<svg width="1172" height="1080" viewBox="0 0 1172 1080" fill="none" xmlns="http://www.w3.org/2000/svg">
<g clip-path="url(#clip0_2_3754)">
<rect width="1172" height="1080" fill="white"/>
<g clip-path="url(#clip1_2_3754)">
<path d="M206.935 558.788V559.314C207.512 591.155 220.431 622.439 244.843 645.436C252.852 653.682 264.685 658.506 257.852 641.189C254.617 633.538 251.912 625.709 249.753 617.749C216.075 496.972 329.574 390.688 449.859 358.744C460.357 355.012 465.188 347.57 451.432 345.962C442.122 345.282 431.997 346.694 422.562 348.024C311.032 364.815 208.643 452.36 206.935 558.788ZM598.347 314.894C543.414 325.779 492.394 290.362 438.536 289.671H437.913C416.329 289.671 394.575 296 376.113 306.287C366.396 311.771 356.622 318.028 348.963 325.573C338.872 335.623 342.854 339.19 357.855 334.85C418.512 312.544 457.71 327.975 517.553 341.035C533.561 344.571 550.36 347.333 566.808 345.385C581.854 343.756 597.815 337.376 607.623 327.264C618.155 316.162 609.818 313.492 598.347 314.894ZM306.745 315.492C239.854 304.154 179.468 364.97 176.991 425.528V426.054C179.4 446.422 190.735 416.777 194.593 412.2C199.575 404.683 205.543 397.747 212.365 391.543C265.963 344.313 281.043 376.556 313.159 362.032C336.169 349.704 332.99 321.563 306.745 315.492ZM348.997 225.453C345.959 225.177 342.895 225.222 339.868 225.587C245.895 234.359 136.729 295.371 131.797 387.42V387.977C131.526 407.356 135.711 428.239 144.614 443.402C146.503 446.495 149.467 451.154 153.664 450.731C156.707 450.515 158.246 444.969 158.189 441.052C155.146 397.759 170.984 357.126 201.414 323.749C238.746 281.157 291.745 254.16 347.696 237.503C355.773 234.627 359.631 226.865 348.997 225.453ZM127.691 516.444C133.177 538.255 151.526 554.995 163.732 573.879C175.497 590.145 185.724 607.451 195.622 624.82C198.088 628.768 201.109 636.736 204.876 638.653L205.08 638.715C210.374 637.818 206.211 622.315 205.396 617.935C198.541 588.104 191.535 558.293 184.378 528.504C181.866 518.33 178.789 507.94 172.285 499.271C151.583 471.079 121.141 484.056 127.691 516.444ZM60.8791 759.533C58.1189 782.973 82.4747 791.23 101.174 776.562C136.503 746.989 135.542 692.79 130.338 652.538L130.259 651.971C128.822 641.797 126.107 622.903 121.763 616.594C121.578 616.221 121.314 615.885 120.986 615.605C120.658 615.326 120.272 615.108 119.851 614.966C118.528 614.852 117.589 617.594 117.068 622.284C116.378 628.067 116.48 635.571 115.847 641.756C112.193 676.71 86.2644 704.345 69.7029 735.001C65.5059 742.628 61.6936 751.04 60.8791 759.533ZM326.293 833.75C327.311 839.337 328.623 843.573 330.252 844.336L330.411 844.398C331.723 844.924 333.227 843.243 334.619 839.924C336 836.344 337.001 832.65 337.605 828.895C348.318 770.594 321.542 707.582 268.384 672.834C254.481 663.062 231.313 653.527 216.98 667.113C206.448 677.545 208.349 695.903 217.093 707.139C235.103 729.084 263.916 741.154 284.889 760.564C308.012 780.149 322.831 805.115 326.293 833.75ZM769.856 195.251C689.424 230.803 610.633 321.295 609.841 405.232V405.768C609.128 470.378 650.272 538.276 719.685 559.695C768.329 575.157 825.095 560.324 857.041 523.247C869.858 509.568 880.402 487.056 850.944 505.136C836.5 513.835 819.613 518.563 802.3 518.752C764.856 519.062 730.375 502.672 705.454 477.882C674.91 448.185 658.835 402.562 670.645 359.032C682.591 314.709 706.121 273.282 736.586 236.998C745.991 226.1 756.497 216.029 767.967 206.92C772.616 203.343 784.189 191.746 769.901 195.272L769.856 195.251ZM756.564 270.354C757.921 267.045 758.43 264.066 757.537 262.407C751.394 255.665 736.156 274.426 731.812 278.899C704.572 309.606 686.562 346.539 685.759 387.018V387.554C685.883 443.464 732.321 487.118 795.366 489.22C807.187 489.88 816.859 485.427 803.646 476.233C732.061 436.98 718.486 355.631 747.74 289.114C750.432 282.827 753.996 276.59 756.609 270.375L756.564 270.354ZM370.547 492.303C370.977 493.777 374.699 494.972 380.729 495.673C397.211 497.116 419.191 497.137 436.827 497.013C494.736 497.858 549.952 469.182 580.496 424.91C590.519 410.345 607.793 381.442 589.06 368.279C563.38 358.62 542.282 408.283 528.968 423.333C500.347 463.296 459.961 478.603 409.247 482.087C401.353 482.836 393.512 483.996 385.763 485.561C376.147 487.623 370.072 490.117 370.593 492.169L370.547 492.303ZM685.205 611.636C707.287 611.719 728.124 607.328 746.959 596.597C750.127 594.793 754.629 591.052 754.267 588.774C753.43 583.62 747.559 585.125 743.272 585.104C735.183 585.104 727.027 585.568 719.006 584.815C691.03 582.187 666.279 573.652 647.738 552.964C631.674 535.101 618.495 516.186 612.329 493.426C608.155 477.964 593.641 467.059 579.274 466.853C563.595 466.626 549.16 476.903 543.074 491.962C538.662 502.92 541.558 512.898 546.117 523.082C569.512 575.332 626.006 611.41 685.205 611.636ZM627.511 643.89L628.099 644.096C692.659 662.959 817.018 642.034 841.6 583.671C842.298 580.783 841.997 577.769 840.739 575.043C839.481 572.317 837.328 570.012 834.575 568.447C824.393 563.746 811.644 570.302 802.56 575.033C760.229 603.813 719.776 636.53 663.813 637.004C654.763 637.303 645.792 636.21 636.844 634.808C632.319 634.159 627.443 633.211 623.959 634.334C617.216 636.581 622.273 642.56 627.488 643.89H627.511ZM848.489 187.799C857.42 176.129 867.406 165.161 878.343 155.009C880.108 153.453 882.732 150.577 882.596 149.299V149.082C881.793 146.248 875.809 147.464 870.368 149.216C856.329 154.37 843.681 162.823 832.821 172.306C789.46 211.28 762.684 263.912 762.978 319.584C762.582 347.055 775.275 372.464 782.673 398.573C788.137 415.004 786.508 432.589 792.685 448.824C809.88 490.159 852.019 457.142 854.541 427.672C860.435 377.009 804.122 356.548 810.196 286.012C813.398 250.944 827.437 217.341 848.489 187.799ZM664.763 745.793C679.243 740.484 686.415 726.548 697.49 717.271C718.984 699.15 750.512 698.501 776.112 687.615C827.618 667.876 873.399 623.707 879.316 571.776V571.271C878.92 560.85 874.18 562.777 872.325 571.209C867.732 594.278 850.254 613.471 830.887 627.974C806.056 646.869 774.03 653.857 743.419 660.867C704.198 670.144 655.645 678.39 635.792 714.725C625.135 735.743 639.649 754.524 664.763 745.793ZM489.634 431.404C510.404 417.715 528.311 399.45 537.633 377.442C539.579 373.154 541.536 364.568 539.613 363.424L539.488 363.3C535.133 361.403 527.972 370.196 523.572 373.608C491.161 404.284 442.71 407.768 399.621 416.684C338.148 429.631 273.531 468.079 261.235 528.009C259.04 542.656 269.663 557.84 286.122 550.573C296.53 545.8 303.657 537.018 311.078 528.627C327.469 508.723 345.592 489.076 370.4 477.727C389.53 468.357 411.137 463.698 431.375 457.514C451.997 451.38 472.021 443.083 489.634 431.352V431.404ZM423.671 269.457C411.691 279.147 427.63 280.208 435.379 279.116C481.41 273.086 524.59 294.011 569.659 297.402H570.213C582.865 297.217 595.428 295.437 607.544 292.114C622.798 287.875 636.703 280.343 648.077 270.158C665.634 253.666 649.966 254.119 634.163 258.82C563.278 277.528 522.565 227.824 445.527 258.449C437.8 261.592 429.972 264.757 423.671 269.457ZM477.258 163.493C475.889 162.72 473.389 164.431 470.471 167.791C467.552 171.151 464.814 175.264 462.179 178.862C441.07 208.476 410.876 229.545 376.045 243.255C350.445 255.037 316.519 254.068 294.279 271.189C275.5 289.31 298.351 307.266 320.297 307.091C395.684 306.37 454.249 238.627 476.41 177.45C477.677 173.553 479.803 165.967 477.428 163.585L477.258 163.493ZM747.321 108.964C736.405 107.006 724.696 108.964 713.531 109.067C659.299 111.129 623.257 114.922 586.05 154.329C570.213 168.08 552.792 180.171 531.954 186.85C519.069 190.736 506.139 195.261 496.422 204.209C491.636 208.662 486.172 214.218 487.281 217.609L487.383 217.774C490.064 219.64 494.555 217.176 497.7 216.454C521.863 208.971 547.905 207.971 573.188 205.507C618.099 200.436 643.326 182.913 675.612 155.721C696.053 142.413 718.101 130.291 741.473 121.952C749.697 119.798 761.089 112.984 747.321 108.964ZM105.054 349.199C105.382 355.621 107.317 371.319 113.833 371.701C115.043 371.505 116.095 370.227 117.08 368.165C119.342 362.846 119.817 356.651 121.288 350.869C126.22 329.975 134.704 309.369 156.538 299.123C161.063 296.639 165.588 294.124 168.902 291.021C177.353 283.94 175.452 271.766 166.3 266.221C156.029 259.861 142.193 264.077 133.223 270.694C109.693 289.156 105.032 321.203 105.02 348.632L105.054 349.199ZM440.289 54.0028C423.479 150.608 297.05 201.56 202.987 165.41C197.692 163.297 183.314 158.287 186.357 167.595C190.181 174.759 198.462 180.325 205.17 185.644C225.171 199.818 252.535 209.095 278.26 209.476H278.78C361.882 211.156 452.88 167.358 462.891 89.6988C463.913 78.1274 461.832 66.5032 456.828 55.8273C452.19 45.4576 443.615 40.9531 440.289 54.0028ZM1010.61 138.455C994.273 119.447 962.44 116.52 939.69 125.684C923.185 132.116 910.402 142.176 900.278 155.061C896.567 160.411 890.096 165.822 890.391 172.151C893.592 179.944 908.694 164.936 913.536 162.792C934.317 149.629 956.851 144.753 981.411 151.597C986.796 152.968 992.554 154.834 997.927 154.958H998.459C1009.48 155.288 1017.49 147.918 1010.61 138.455ZM343.33 129.807C295.942 135.692 252.83 122.138 214.367 97.0071C208.077 92.9561 201.245 88.4928 193.937 86.1632C175.339 79.1539 153.63 92.6263 156.605 110.902C158.144 121.354 168.676 130.487 178.778 136.445C202.851 150.876 232.173 156.432 260.443 156.514H261.02C293.091 155.36 328.601 151.206 355.92 134.6C357.674 133.023 358.183 131.611 357.187 130.683C354.812 128.601 347.402 129.436 343.33 129.807ZM992.328 674.329C979.386 676.493 966.874 678.751 954.137 681.029C884.746 689.924 836.373 717.519 818.307 781.633C813.907 796.178 812.651 811.186 810.83 826.112C810.513 828.668 810.558 832.131 812.73 833.678C816.294 836.007 819.823 832.874 822.278 829.554C846.34 796.786 875.82 770.295 913.762 753.452C926.602 747.267 941.58 743.917 955.075 738.567C978.832 728.527 999.93 708.211 1003.23 683.771V683.266C1003.71 675.514 1000.65 672.741 992.328 674.329ZM585.779 769.161C624.57 791.57 674.22 789.622 717.117 780.273C721.642 779.159 729.493 777.314 731.699 773.655L731.801 773.397C731.642 767.687 709.934 769.955 704.323 769.419C666.991 768.12 634.264 750.504 600.892 736.939C560.959 721.487 553.674 750.617 585.779 769.161ZM562.554 690.399C562.701 699.562 561.91 711.076 569.025 717.921C575.111 723.909 584.659 723.765 591.39 717.539C603.596 706.201 607.793 689.924 607.827 674.514C606.843 615.409 569.681 565.643 515.212 534.822C506.258 529.663 496.437 525.874 486.138 523.607C468.785 519.989 472.722 529.328 483.175 535.668C537.135 571.642 562.6 630.603 562.521 689.852L562.554 690.399ZM975.992 584.784C975.438 573.982 970.641 564.035 965.947 554.284C958.175 538.482 952.112 521.865 944.826 505.837C942.79 500.837 935.776 490.509 934.419 502.322C940.233 568.972 961.071 603.668 911.794 662.949C909.113 666.804 907.642 669.876 908.66 671.092L908.796 671.247C909.927 672.473 913.615 671.638 918.117 669.773C953.899 654.692 977.361 620.501 975.992 584.784ZM345.784 926.85C381.803 918.408 411.057 894.576 433.219 868.343C483.537 809.011 497.112 711.375 448.377 648.095C430.594 625.057 405.39 607.895 374.032 602.967C367.244 602.194 360.887 601.844 359.857 605.514C359.755 610.338 368.285 614.45 372.527 617.563C418.32 644.673 438.298 693.017 437.868 743.092V743.608C434.621 809.155 401.046 869.549 343.386 909.894C339.348 912.831 334.257 916.151 331.067 919.47C323.239 928.582 337.662 928.819 345.784 926.85ZM322.232 911.914C384.394 865.807 441.239 769.666 389.96 701.84C376.962 683.286 358.341 666.794 352.99 644.714C351.701 636.148 349.099 620.522 342.481 635.252C328.42 685.214 359.009 733.094 369.348 781.345C380.661 825.926 352.04 867.982 320.58 899.957C315.829 905.503 304.166 914.388 304.471 919.758L304.55 919.903C308.532 922.335 318.137 914.769 322.232 911.914ZM879.169 680.884C912.948 645.838 933.005 599.174 922.462 552.036C920.384 543.821 917.561 535.778 914.022 527.988C912.507 524.154 908.468 517.928 905.855 518.196C902.223 517.66 901.556 526.731 901.941 530.648C907.834 614.275 844.19 688.255 764.381 723.58C748.351 731.053 731.258 735.949 714.244 740.959C709.854 742.33 705.714 744.133 703.938 745.937C698.7 751.04 712.796 752.122 718.056 751.699H718.656C781.146 749.761 837.787 725.332 879.169 680.884ZM213.01 880.341C249.21 864.426 276.936 827.204 273.927 790.426C272.095 771.336 259.866 754.586 242.332 744.041C230.691 736.712 210.453 729.197 198.586 738.577C186.934 748.463 197.195 760.544 208.948 765.739C224.48 772.738 237.569 785.066 239.605 801.229C242.999 832.152 215.77 857.262 190.803 874.868C186.131 878.682 175.384 883.763 174.536 889.01L174.592 889.165C180.531 893.958 205.871 883.506 213.01 880.341ZM670.996 866.271C666.539 863.271 655.713 860.169 645.611 858.025C614.931 851.191 582.261 846.789 551.31 854.675C493.48 870.518 455.674 918.944 400.695 940.065C380.641 947.948 359.061 952.105 337.221 952.29C327.413 952.506 317.277 951.321 307.458 951.001C300.67 950.826 296.009 951.404 295.093 953.063C292.503 955.125 303.691 961.804 310.218 964.402C351.169 980.894 399.304 985.254 441.658 971.019C520.133 945.25 557.611 870.002 649.287 874.002H649.91C659.763 873.827 680.747 873.157 670.996 866.271ZM135.915 906.709C119.138 914.471 99.8846 915.336 81.762 911.409C72.8025 910.203 61.6144 904.41 53.0848 907.997C47.553 912.553 54.9061 920.233 61.5805 925.428C74.3322 934.844 90.171 940.108 106.582 940.384H107.192C127.114 940.745 149.264 933.458 157.431 915.501C159.207 911.151 160.893 904.462 156.368 901.297C150.825 898.277 141.65 904.359 135.938 906.709H135.915ZM346.327 989.048C336.542 983.564 336.881 1009.17 336.7 1014.17V1014.78C337.3 1028.33 336.485 1048.06 351.407 1055.25C353.051 1055.93 354.856 1056.2 356.651 1056.06C358.445 1055.91 360.168 1055.35 361.656 1054.42C372.833 1045.01 362.787 1030 359.393 1018.4C355.954 1009.85 352.493 994.016 346.305 989.048H346.327ZM169.886 853.129C166.809 845.202 146.413 855.19 139.037 855.19C94.1039 861.375 44.6683 856.015 4.5542 878.826C-2.69711 883.104 -12.6747 887.948 -16.4757 894.855L-16.5889 895.154C-18.1839 903.606 0.379895 895.03 5.43658 893.401C11.23 891.303 17.171 889.561 23.2198 888.185C39.6617 884.619 56.7286 884.142 73.3794 886.784C88.6061 888.845 104.274 894.515 119.399 893.102C133.404 892.072 145.734 884.774 155.09 875.517C160.633 869.734 170.904 860.55 169.886 853.129ZM239.775 1076.17H240.318C268.045 1075.56 291.903 1060.71 310.263 1041.68C314.098 1037.49 318.917 1032.23 319.505 1026.8C318.374 1016.88 298.521 1034.01 293.713 1035.73C285.521 1040.21 276.689 1043.63 267.468 1045.9C240.318 1052.72 219.786 1049.92 195.238 1038.86C183.755 1035.24 182.568 1043.88 187.127 1050.95C197.036 1066.71 219.56 1076.37 239.775 1076.17ZM464.158 1056.4H464.78C509.827 1054.56 551.559 1039.32 579.093 1002.32C588.143 990.491 589.048 980.606 571.74 992.346C515.46 1029.53 423.988 1040.79 370.955 994.501C365.445 990.532 359.472 989.553 359.925 997.016C361.78 1008.5 370.468 1019.37 379.1 1027.79C400.729 1048.27 432.529 1056.1 464.158 1056.4ZM233.53 1039.58C245.612 1039.81 258.588 1038.35 268.52 1031.4C277.197 1025.74 280.421 1013.67 269.651 1009.02C266.031 1007.34 260.601 1007.31 256.483 1007.83C234.356 1010.49 211.154 1016.88 190.871 1007.56C186.946 1006.12 174.366 998.129 173.981 1005.77C174.332 1009.13 176.957 1012.19 179.219 1014.78C192.941 1029.21 212.082 1038.66 232.976 1039.51L233.53 1039.58ZM649.966 910.873C656.618 903.029 665.804 886.278 646.889 888.557C600.779 900.029 561.593 927.489 523.764 952.939C495.63 972.524 463.808 987.914 428.128 992.027C421.341 993.264 408.897 993.057 404.926 996.665L404.847 996.81C404.847 1002.48 426.669 1004.74 432.766 1005.52C517.746 1014.84 602.725 976.091 649.966 910.873ZM1126.28 950.311L1126.43 950.466C1127.56 951.579 1130.39 950.084 1133.52 947.373C1144.98 937.099 1153.26 924.248 1157.51 910.121C1174.73 853.335 1161.53 800.012 1120.43 755.101C1108.05 741.577 1094.56 729.146 1081.27 716.519C1078 713.241 1071.87 709.386 1067.53 712.22C1057.35 721.137 1074.22 740.268 1079.17 749.576C1086.36 760.915 1094.72 771.635 1101.86 782.953C1128.87 826.503 1146.95 879.218 1131.39 929.324C1130.15 935.395 1124.42 944.889 1126.28 950.311ZM1054.25 756.121C1051.81 755.947 1049.36 756.354 1047.14 757.304C1044.92 758.254 1043.01 759.713 1041.59 761.538C1040.18 763.364 1039.31 765.493 1039.07 767.717C1038.84 769.94 1039.24 772.182 1040.24 774.222C1044.39 783.994 1054.31 791.189 1061.67 799.074C1079 816.433 1092.78 835.832 1100.85 857.829C1102.48 862.808 1110.32 879.125 1112.16 866.962C1110.05 835.007 1095.34 804.517 1079.08 776.253C1073.97 767.47 1066.5 756.956 1054.76 756.152L1054.25 756.121ZM1085.11 60.239H1085.19C1089.43 61.6924 1093.59 57.8682 1092.33 53.8997C1092.23 53.5699 1092.12 53.2263 1091.99 52.8689C1091.35 51.4143 1090.47 50.0583 1089.38 48.8489C1077.95 34.521 1067.56 19.0695 1068.02 0H1034.27C1033.97 21.3063 1061.07 51.6217 1085.11 60.239ZM944.351 954.96C915.131 940.477 879.542 938.745 847.743 945.095C815.106 952.043 783.454 967.772 763.148 992.511C753.803 1004.88 763.08 1004.52 773.612 999.18C805.547 983.079 844.089 975.472 879.757 984.141C894.893 987.584 910.086 993.882 925.697 994.583H926.285C956.761 995.665 975.415 970.844 944.351 954.98V954.96ZM1032 1008.82C1048.15 1019.04 1059.7 1003.58 1057.2 988.532C1056.33 981.111 1053.53 974.04 1049.76 967.113C992.599 867.003 838.681 854.932 752.695 931.262C741.631 940.962 731.009 951.568 722.853 963.443C719.119 969.071 717.355 973.349 718.124 974.503V974.596C718.995 975.771 722.649 973.504 727.988 969.03C732.932 964.907 738.781 959.196 744.674 954.455C801.056 909.77 878.365 906.874 943.978 937.096C962.797 945.248 979.96 956.252 994.737 969.638C1008.5 980.946 1017.29 998.593 1032 1008.84V1008.82ZM770.874 1036.12C756.032 1051.48 759.98 1078.15 785.343 1079.8C806.735 1079.21 821.463 1062.17 838.998 1053.24C869.225 1035.89 903.615 1032.2 938.412 1037.9C942.722 1038.36 952.564 1040.64 955.381 1038.03L955.505 1037.81C955.788 1033.1 947.326 1029.04 943.378 1026.64C893.049 1000.54 813.511 994.294 770.874 1036.12ZM12.1336 904.812C3.77364 906.43 -11.0005 909.698 -20.0392 911.791V924.943C-0.604293 920.82 11.6358 921.232 26.8851 920.82C29.5209 920.748 33.6726 918.759 34.2948 916.779C35.1093 914.44 33.8875 910.595 32.0323 908.533C26.7041 902.988 19.1586 903.441 12.1336 904.812ZM925.855 214.681C944.295 199.962 968.006 191.252 991.298 184.892C995.178 183.768 1006.28 181.531 1003.26 176.408C999.07 172.357 985.913 173.038 978.843 172.78H978.289C895.357 172.522 841.984 238.616 844.869 308.431C845.684 367.567 928.683 420.168 899.033 477.954C895.413 483.984 892.246 495.622 904.373 491.684C912.212 488.231 917.529 481.16 922.835 475.078C952.541 441.124 938.853 397.769 916.828 363.753C900.051 338.623 882.427 310.72 889.418 280.476C895.311 256.449 906.862 232.514 925.855 214.681ZM868.456 89.5236L868.999 89.4618C873.524 89.1731 879.734 86.3694 877.822 83.6481C873.478 78.6385 861.894 77.4634 855.39 74.2268C832.018 64.9497 819.382 43.0146 800.773 28.1816C791.576 19.9354 774.075 18.0078 770.286 31.7688C767.955 41.5097 774.03 51.5701 780.23 59.2701C799.959 83.1637 837.063 89.771 868.456 89.5236ZM113.132 785.22C99.8054 799.538 115.926 799.909 127.838 796.332C138.068 793.286 147.638 788.64 156.119 782.602C186.007 761.987 196.765 726.754 196.041 693.563V693.017C195.228 672.561 190.488 652.393 182.036 633.427C173.359 614.976 159.49 599.009 143.2 584.723C122.057 566.632 112.419 570.374 127.555 595.092C154.931 641.24 167.839 700.634 143.076 749.504C136.311 763.224 124.173 774.191 113.132 785.22ZM936.184 788.395C913.4 803.249 886.952 812.897 862.415 825.339C841.279 836.627 821.878 850.419 804.721 866.354C800.264 870.971 791.938 877.187 790.682 882.846V883.021C790.863 883.887 791.961 884.052 793.714 883.382C797.786 881.867 801.825 878.558 805.422 875.94C818.793 865.883 833.936 857.961 850.209 852.51C869.44 845.697 890.617 843.934 910.391 839.048C946.195 830.389 977.78 815.34 1004.4 789.88C1030.8 764.728 1051.68 734.908 1048.6 698.14C1047.75 687.131 1045.2 676.39 1042.8 665.639C1039.1 648.353 1032.83 652.239 1030.42 666.474C1018.7 716.931 981.818 759.75 936.184 788.395ZM485.267 848.593C481.874 854.52 482.926 858.468 489.725 854.005C527.712 816.433 540.325 763.935 541.287 713.571V713.045C541.819 627.335 483.966 513.073 374.824 521.618C328.069 525.215 282.638 560.623 276.405 604.081C274.142 620.573 277.4 637.53 286.699 651.755C289.697 656.63 297.05 663.835 301.609 659.217C305.399 655.414 305.953 649.755 307.322 644.91C311.032 628.686 316.915 612.585 328.103 598.947C365.706 552.727 426.918 581.816 456.828 619.563C493.718 662.856 511.592 716.828 510.935 771.532C511.218 799.27 502.768 825.668 485.267 848.593ZM1036.82 533.596C1049.96 530.596 1058.31 486.324 1059.35 474.521C1061.94 416.746 1071.8 374.649 1113.28 328.851C1121.79 320.863 1124.81 310.575 1109.34 318.471C1054.42 346.663 1014.84 396.213 1014.45 453.844V454.421C1014.6 479.84 1019.32 504.249 1028.2 525.185C1029.74 528.638 1032.02 533.977 1036.82 533.596ZM645.158 208.6C632.003 215.506 617.66 220.333 602.736 222.876C598.868 223.732 593.686 224.422 591.085 226.999C588.313 232.535 605.531 231.473 610.429 231.555H610.995C663.156 230.638 717.162 217.836 756.111 185.551C800.716 143.104 849.1 121.426 913.174 113.397C929.079 109.686 924.011 104.336 911.715 104.305C824.122 104.903 736.371 134.383 672.648 189.262C664.276 196.56 655.136 203.446 645.158 208.6ZM25.8217 165.482C25.997 165.32 26.1186 165.117 26.1724 164.895C26.2878 164.413 26.2753 163.914 26.1361 163.438C25.9968 162.962 25.7348 162.523 25.3718 162.158C25.0088 161.793 24.5553 161.512 24.0492 161.339C23.543 161.166 22.9988 161.106 22.4619 161.163C21.944 161.183 21.4344 161.288 20.9573 161.472C11.6698 165.4 2.94783 170.564 -6.73567 173.584C-11.0982 175.096 -15.5557 176.369 -20.0844 177.398V197.56C-1.76948 190.912 12.654 177.501 25.8217 165.482ZM-20.0052 142.805V166.317C-2.24461 162.132 12.2467 153.896 25.5728 143.949C31.7947 139.3 37.236 133.734 42.6773 128.291C42.942 127.995 43.114 127.639 43.1751 127.261C43.2592 126.698 43.2006 126.126 43.004 125.588C42.8074 125.049 42.4779 124.559 42.0409 124.155C41.6039 123.751 41.071 123.444 40.4832 123.256C39.8953 123.069 39.2682 123.007 38.6501 123.076C38.3559 123.076 38.0618 123.137 37.779 123.189C36.9306 123.323 36.2971 124.313 35.5165 124.797C0.425145 145.454 -17.5391 142.444 -20.0052 142.836V142.805ZM140.847 127.261C137.748 119.2 128.912 127.085 126.345 131.477C78.2891 193.396 158.28 281.023 230.42 246.584C236.936 243.801 261.891 225.969 245.126 222.938C190.113 218.104 143.506 189.005 141.435 137.311V136.826C141.3 133.693 141.752 130.405 140.847 127.292V127.261ZM-20.2202 75.0926C-20.2202 89.1216 -20.3559 105.789 -20.0278 118.932C-7.10898 119.499 0.855017 117.046 8.00451 113.778C19.7243 108.346 20.98 96.8525 12.1562 87.8331C3.88677 79.3498 -6.98454 75.9585 -20.2202 75.0926ZM96.3551 160.503L96.2533 160.411C90.5066 160.266 83.9227 185.417 81.4792 190.932C73.3002 215.671 63.0285 240.533 63.3792 266.623C63.6507 278.425 66.8634 291.908 77.3614 299.505C91.9093 309.957 103.742 297.721 104.07 283.662C104.783 273.838 102.554 263.974 100.676 254.325C95.2804 229.494 92.6559 204.6 95.9252 179.532C96.3551 174.429 98.5837 164.101 96.3551 160.534V160.503ZM2.12202 347.56C16.7151 399.212 54.0464 442.588 109.93 464.234C118.222 467.09 129.026 472.213 137.318 470.584L137.668 470.481C152.228 463.595 116.684 426.394 110.032 418.467C90.5066 396.522 71.264 373.855 53.8314 350.312C28.5028 313.554 8.47964 270.839 20.7876 226.948C21.9189 223.299 24.1814 212.156 20.1202 212.62C16.9753 212.939 12.3711 219.907 10.81 223.701C-7.52754 263.149 -10.6498 305.04 2.12202 347.56ZM1169.16 933.045C1169.78 932.932 1170.4 932.798 1170.99 932.633C1182.63 929.541 1186.19 928.149 1197.79 924.933V911.791C1183.5 914.955 1175.9 919.81 1166.11 927.86L1166.04 927.912C1163.66 929.963 1165.92 933.664 1169.16 933.056V933.045ZM669.706 951.599C670.385 947.878 669.865 943.982 669.899 940.158C665.77 942.096 660.849 943.312 657.625 946.085C640.78 960.474 631.73 978.998 626.074 999.005C619.456 1022.37 641.097 1092.1 656.867 1110H715.556C711.155 1104.99 707.275 1100.03 702.965 1094.97C666.573 1052.28 660.012 1003.83 669.706 951.599ZM358.613 1069.46C322.978 1073.51 288.385 1084.85 251.721 1082.19C251.186 1082.18 250.658 1082.3 250.194 1082.54C249.584 1082.84 249.068 1083.28 248.692 1083.82C248.316 1084.35 248.092 1084.96 248.04 1085.59C247.988 1086.22 248.111 1086.86 248.396 1087.43C248.681 1088.01 249.12 1088.52 249.673 1088.9C250.059 1089.19 250.525 1089.37 251.02 1089.44C262.445 1090.47 273.95 1091.59 285.398 1091.38C319.551 1090.77 353.748 1089.93 387.098 1098.01C398.36 1100.63 409.169 1104.67 419.214 1110H500.223C459.554 1080.41 401.023 1064.65 358.613 1069.46ZM603.743 1042.79C603.916 1040.55 603.628 1038.31 602.895 1036.16C600.248 1026.56 590.089 1023.57 579.919 1029.33C571.677 1033.88 565.463 1040.94 562.373 1049.26C554.251 1070.45 557.136 1090.66 570.383 1110H633.393C632.952 1109.22 600.055 1067.35 603.743 1042.79ZM1170.39 1084.92C1159.4 1090.01 1149.54 1094.58 1149.38 1109.86C1165.6 1109.86 1181.66 1110 1197.89 1110V1077.83C1187.49 1077.56 1178.93 1080.96 1170.39 1084.92ZM35.3129 524.927C15.335 516.474 -2.40298 504.785 -20.2428 490.818C-20.2428 511.764 -20.3672 532.493 -20.0844 551.48C-8.19498 559.592 1.34146 564.416 10.81 566.643C20.2786 568.869 30.2788 568.457 40.0189 569.498C61.6484 571.807 81.1059 577.94 94.1831 595.329C95.0542 596.474 98.7081 596.948 99.5566 596.721C108.969 594.216 94.7148 573.776 89.1943 566.354C75.756 548.293 57.1122 533.959 35.3129 524.927ZM884.881 1063.8C863.15 1064.46 842.72 1069.6 824.484 1080.73C822.425 1081.98 821.475 1084.74 820.016 1086.8C822.448 1087.2 825.061 1088.36 827.267 1087.9C851.374 1082.92 874.779 1085.37 897.155 1094.24C907.495 1098.36 916.76 1104.68 926.568 1110H1009.35C964.012 1079.91 925.471 1062.58 884.893 1063.8H884.881ZM1029.82 1032.18C1018.5 1020 1004.71 1009.68 991.355 999.191C983.142 992.779 972.7 991.903 962.813 995.645C958.888 997.129 954.634 1001.14 953.594 1004.74C952.813 1007.48 956.048 1012.24 958.967 1014.57C964.838 1019.26 971.965 1022.61 978.13 1027.03C1007.9 1048.41 1025.37 1076.77 1034.18 1109.95H1068.12C1067.79 1107.06 1067.71 1104.13 1067.08 1101.31C1061.3 1075.76 1048.48 1051.96 1029.82 1032.18ZM739.199 1030.99C737.446 1010.03 742.593 990.542 758.86 974.411C759.022 974.242 759.158 974.055 759.267 973.854C760.704 971.164 757.729 968.216 754.494 968.7C754.132 968.752 753.781 968.813 753.419 968.886C752.559 969.061 751.869 969.916 751.077 970.473C706.834 1000.88 693.383 1071.03 746.552 1109.99H807.074C765.433 1087.67 742.355 1068.68 739.199 1030.99ZM105.699 1003.94C106.055 1003.64 106.323 1003.25 106.48 1002.83C106.732 1002.11 106.779 1001.35 106.618 1000.61C106.456 999.878 106.09 999.191 105.556 998.619C105.021 998.047 104.334 997.609 103.562 997.346C102.789 997.084 101.956 997.005 101.14 997.119C99.8622 997.213 98.6299 997.596 97.5542 998.232C59.8723 1023.6 48.5146 1072.34 71.1735 1110H108.041C104.014 1104.94 99.7828 1100.01 95.9931 1094.81C74.1713 1064.8 76.8071 1027.29 105.699 1003.94ZM49.5893 1023.31C32.9825 1005.07 1.1152 1003.59 -20.0505 1009.21C-20.3672 1020.32 -20.2315 1034.03 -20.2315 1046.01C-2.06361 1047.04 11.749 1054.59 26.4665 1059.29C30.6182 1060.62 34.7133 1063.05 39.1026 1062.82C53.9219 1062.07 59.0578 1051.73 57.6437 1040.65C56.7605 1034.3 53.9734 1028.31 49.5893 1023.31ZM146.085 1020.81C146.379 1011.53 138.822 1006.2 128.584 1007.1C121.412 1007.73 116.378 1011.22 112.396 1016.48C97.2488 1036.33 96.0949 1058.31 101.864 1080.77C104.444 1090.82 109.783 1100.27 113.935 1110H144.908C141.763 1093.15 137.906 1064.65 142.374 1043.95C144.026 1036.3 145.847 1028.57 146.085 1020.81ZM175.837 1061.91C171.165 1057.21 168.472 1052.46 164.524 1047.97C164.203 1047.6 163.821 1047.27 163.393 1047.01C162.827 1046.67 162.184 1046.45 161.512 1046.37C160.841 1046.28 160.157 1046.34 159.512 1046.53C158.867 1046.72 158.277 1047.04 157.785 1047.46C157.294 1047.89 156.914 1048.41 156.673 1048.99C156.56 1049.3 156.507 1049.63 156.515 1049.96C156.741 1056.63 160.056 1087.3 172.352 1110H277.559C266.755 1107.37 192.805 1080.6 175.837 1061.91ZM150.621 990.573C146.146 984.996 141.134 979.794 135.643 975.029C108.358 952.424 75.3931 941.312 39.3967 936.972C21.4777 934.828 2.67633 930.644 -20.0392 935.303C-20.5482 948.456 -20.1636 971.195 -20.1636 985.089C42.1456 967.484 98.9117 972.163 143.03 997.036C143.816 997.426 144.705 997.608 145.598 997.562C146.388 997.57 147.17 997.425 147.892 997.135C148.614 996.845 149.26 996.418 149.786 995.882C150.312 995.346 150.706 994.714 150.942 994.027C151.178 993.341 151.25 992.617 151.153 991.903C151.083 991.422 150.88 990.964 150.565 990.573H150.621ZM-20.1975 1077.83V1110H42.3493C28.5706 1090.95 6.95246 1078.4 -20.2654 1077.83H-20.1975ZM263.282 992.089C276.857 985.708 287.333 962.196 267.626 956.99C253.588 954.64 240.567 963.103 227.15 965.67C211.098 969.617 194.842 969.545 179.253 964.804C172.579 963.443 161.3 956.805 155.497 960.753L155.293 960.99C153.574 963.69 156.662 967.917 158.823 970.421C183.122 997.078 229.854 1010.23 263.214 992.089H263.282ZM1093.19 163.338C1085.95 159.668 1079.74 154.288 1072.49 150.629C1059.69 144.155 1044.24 145.536 1034.46 153.432C1023.32 162.307 1023.34 173.017 1026.92 185.314C1030.55 197.735 1040.33 203.539 1051.74 208.126C1071.25 215.949 1091.99 217.629 1113.01 217.042C1142.55 216.422 1171.57 209.783 1197.93 197.612V177.398C1196 177.594 1194.05 177.718 1192.13 177.996C1157.33 182.975 1124.12 179.016 1093.12 163.328L1093.19 163.338ZM1085.27 232.246C1072.11 229.927 1058.37 227.927 1045.16 228.886C1014.48 231.133 992.147 247.192 974.442 269.086C974.294 269.283 974.169 269.494 974.069 269.715C972.757 272.735 976.445 275.755 979.725 274.58C980.123 274.444 980.502 274.268 980.857 274.055C991.92 267.468 1003.69 262.242 1016.99 261.685C1034.12 261.015 1051.31 261.458 1068.46 261.16C1083.17 260.902 1098.08 261.582 1112.51 259.582C1147.48 254.738 1173.02 234.452 1197.95 213.63V208.26C1193.81 210.156 1189.36 211.641 1185.59 214.022C1154.92 233.421 1121.56 238.647 1085.16 232.236L1085.27 232.246ZM1126.79 117.2C1121.77 110.356 1118.04 102.769 1113.27 95.7289C1107.41 87.1116 1098.97 82.0504 1087.45 83.5348C1076.31 84.9572 1068.96 91.3172 1066.32 100.862C1065.03 106.277 1065.14 111.89 1066.63 117.262C1069.86 129.58 1079.07 138.414 1089.99 145.619C1122.59 167.183 1159.12 172.481 1197.89 166.286V142.836C1190.14 141.929 1147.5 142.867 1126.67 117.19L1126.79 117.2ZM1146.19 1053.66C1146.1 1053.82 1146.02 1054 1145.96 1054.17C1144.6 1058.08 1149.68 1061.39 1153.45 1059.16L1153.66 1059.04C1167.16 1050.24 1181.79 1045.51 1198 1045.95V1009.21C1173 1015.17 1157.38 1032.02 1146.08 1053.65L1146.19 1053.66ZM1122.16 0.0721548H1090.23C1090.47 1.8451 1096.03 46.4574 1156.87 97.2751C1169.31 105.243 1182.43 116.86 1197.89 118.922V75.0926C1172.81 74.2371 1132.07 31.9028 1122.16 0.0721548ZM1149.38 0.0206157C1149.38 6.28778 1148.8 11.6479 1149.49 16.8946C1151.11 29.0887 1154.61 40.7675 1166.85 48.7355C1168.9 49.9719 1171.36 50.522 1173.8 50.292C1174.76 50.158 1175.94 46.9213 1175.7 45.2411C1173.5 29.903 1182.65 19.0901 1197.89 17.4099V0.0206157H1149.38ZM1172.47 356.559C1173.49 378.793 1178.12 393.275 1188.14 413.396C1190.97 418.702 1194.22 423.815 1197.86 428.693V233.833C1196.03 236.41 1193.76 238.812 1192.43 241.585C1174.9 278.332 1170.69 317.038 1172.47 356.559ZM1181.68 886.32L1197.89 871.147V824.535C1187.94 835.935 1175.74 867.828 1174.81 883.506C1174.75 884.253 1174.94 885 1175.36 885.644C1175.78 886.288 1176.41 886.798 1177.16 887.106C1177.91 887.413 1178.75 887.503 1179.55 887.362C1180.36 887.222 1181.1 886.858 1181.68 886.32ZM1178.81 462.987C1178.68 462.62 1178.48 462.273 1178.24 461.956C1177.72 461.258 1177 460.698 1176.17 460.335C1175.33 459.971 1174.41 459.818 1173.49 459.889C1172.56 459.96 1171.68 460.255 1170.92 460.741C1170.17 461.228 1169.57 461.889 1169.19 462.657C1169.03 462.984 1168.93 463.332 1168.89 463.688C1167.86 475.027 1166.82 486.417 1166.95 497.776C1167.14 517.526 1176.45 533.998 1191.14 548.089C1192.85 549.717 1195.59 550.449 1197.85 551.593V491.014C1188.42 483.407 1182.39 473.934 1178.81 462.936V462.987ZM1120.2 687.976C1097.19 673.36 1080.61 653.569 1066.58 631.737C1066.44 631.529 1066.29 631.329 1066.12 631.139C1065.41 630.387 1064.47 629.841 1063.43 629.567C1062.38 629.294 1061.27 629.305 1060.23 629.6C1059.19 629.895 1058.27 630.46 1057.58 631.226C1056.89 631.992 1056.46 632.926 1056.34 633.912C1056.31 634.256 1056.34 634.604 1056.41 634.942C1067.16 684.173 1096.74 720.013 1148.18 739.474C1164.02 745.442 1180.75 747.648 1197.89 744.123V702.49C1169.07 710.653 1143.72 702.923 1120.2 687.976ZM1090.23 1110H1122.21C1125.34 1045.23 1147.26 1005.74 1190.34 987.574C1192.76 986.543 1195.36 985.863 1197.89 985.028V935.303C1128.97 952.414 1071.79 1042.37 1090.23 1110ZM1157.65 652.961C1135.6 650.97 1114.8 642.704 1098.2 629.335C1097.79 629.021 1097.33 628.754 1096.84 628.541C1093.18 626.944 1088.76 629.572 1089.32 633.283C1089.38 633.67 1089.5 634.047 1089.67 634.406C1091.96 638.97 1094.93 643.221 1098.51 647.034C1113.21 662.495 1132.77 671.772 1155.07 677.503C1169.05 681.07 1183.35 682.781 1197.89 680.111V651.919C1184.46 652.332 1170.86 654.156 1157.65 652.961ZM1167.47 560.53C1165.01 555.366 1161.67 550.589 1157.57 546.377C1147.61 535.843 1131.18 536.853 1123.13 548.439C1120.1 552.653 1118.06 557.389 1117.12 562.354C1116.18 567.319 1116.37 572.406 1117.68 577.301C1124.72 605.132 1160.43 625.985 1197.89 630.067V587.279C1182.65 581.764 1172.94 572.724 1167.47 560.53ZM1114.9 928.314V927.768C1114.73 916.491 1112.01 903.792 1106.56 893.752C1102.04 886.165 1096.72 887.567 1097.1 897.092C1103.89 964.835 1065.13 976.462 1068.92 1011.92C1069.16 1021.62 1080.24 1040.24 1084.66 1021.2C1086.58 1002.51 1099.89 986.831 1106.36 969.401C1111.54 956.196 1114.42 942.332 1114.9 928.314ZM689.198 1007.06H689.356C690.103 1007.15 690.736 1006.4 691.2 1004.99C692.807 998.593 692.196 991.594 693.055 984.832C694.539 969.217 700.147 954.162 709.402 940.951C726.02 917.924 746.224 896.988 766.881 877.043C773.668 870.404 780.331 863.643 785.15 855.654C803.047 825.246 781.078 805.146 749.064 824.937C694.764 863.643 671.007 933.468 683.689 994.861C684.548 998.552 686.426 1005.77 689.198 1007.06ZM1084.86 527.947C1125.81 494.477 1155.15 450.216 1160.13 399.738C1160.49 385.534 1160.79 368.938 1151.75 356.641C1149.25 353.716 1146.06 351.342 1142.41 349.693C1138.77 348.044 1134.76 347.164 1130.69 347.117C1114.85 346.745 1104.67 360.795 1099.59 372.721C1088.64 408.221 1099.37 445.979 1089.13 481.644C1083.47 502.528 1072.79 521.845 1058.79 539.183C1056.05 542.533 1050.17 549.604 1051.54 551.985L1051.65 552.17C1052.62 553.892 1057.31 551.274 1059.18 549.758C1067.84 542.687 1076.06 534.987 1084.86 527.947ZM1082.85 903.4C1082.48 900.905 1081.93 898.37 1081.28 895.855C1071.19 856.375 1034.47 835.451 993.04 834.492H992.441C975.458 834.426 958.974 839.718 945.788 849.469C939.917 853.5 929.837 865.158 943.095 866.652C981.558 866.879 1017.32 889.113 1037.28 918.439C1043.86 926.819 1048.4 943.095 1061.92 943.178C1080.35 940.735 1085.12 917.707 1082.85 903.4ZM1146.35 259.706C1116.24 275.931 1080.14 266.045 1047.85 274.292C1033.78 277.291 1015.86 285.63 1014.41 300.391C1012.77 315.286 1031.31 325.295 1045.95 325.223H1046.51C1085.3 321.79 1121.7 297.247 1149.07 272.91C1154.63 267.612 1161.43 262.603 1165.58 256.418C1170.86 245.172 1150.35 258.067 1146.35 259.706ZM1008.88 214.413C1014.09 211.249 1024.09 202.91 1012.6 200.848C957.383 200.848 909.181 240.441 910.64 291.98V292.506C910.923 306.823 915.007 321.11 923.084 335.974C930.573 349.374 938.921 345.189 938.073 331.356C936.987 284.579 968.153 241.358 1008.88 214.413ZM1059.78 73.8866C1055.07 57.4662 1034.66 46.3647 1016.8 45.7771H1016.2C989.047 45.4576 967.112 60.0226 955.935 81.3598C954.465 84.5346 950.879 90.6369 954.295 93.1314C956.942 94.5435 964.137 89.1731 967.666 86.8539C983.097 76.4533 996.445 72.2477 1014.74 77.5047C1025.24 80.195 1034.72 86.3385 1045.28 88.4001C1054.65 90.2761 1061.99 82.3597 1059.81 73.8866H1059.78ZM977.067 300.659C974.194 298.536 969.397 294.825 965.868 296.886C964.272 298.031 964.589 300.876 965.63 303.958C969.963 314.812 972.259 326.449 968.481 337.654C964.227 351.662 951.874 362.001 945.596 375.051C940.516 384.637 941.659 397.367 949.261 405.614C956.942 413.056 967.361 406.397 974.533 400.635C990.619 387.637 999.296 369.124 1000.02 349.601V349.054C999.782 330.397 992.18 312.956 977.09 300.659H977.067ZM982.78 446.835C983.01 435.631 986.216 424.646 992.124 414.818C993.493 412.355 995.699 407.51 992.837 406.16C981.988 404.191 967.802 421.075 963.91 429.569C949.102 462.235 952.915 498.879 968.277 530.73C979.126 554.077 994.058 576.662 994.613 602.792V603.318C994.782 614.657 989.239 627.469 979.839 637.097C974.59 642.972 966.603 648.106 965.992 656.228C967.383 671.175 991.185 660.125 999.239 656.228C1006.96 652.323 1013.5 646.735 1018.27 639.962C1032.08 617.625 1030.56 588.825 1023.92 564.633C1013.41 531.555 995.642 500.724 985.676 467.636C983.677 460.855 982.71 453.856 982.802 446.835H982.78ZM34.1816 643.209C34.2265 642.941 34.2085 642.667 34.1289 642.405C34.0493 642.143 33.9099 641.899 33.7197 641.69C33.5296 641.481 33.2931 641.311 33.0256 641.19C32.7582 641.07 32.466 641.003 32.168 640.993C31.9683 640.987 31.77 641.026 31.5911 641.107C16.5568 648.569 -3.47767 650.384 -20.0957 651.94C-20.4464 659.506 -20.2654 672.556 -20.2654 680.132C4.53158 678.349 31.6703 659.063 34.1816 643.209ZM61.6484 699.201C78.4474 681.802 91.1966 662.392 95.8234 639.292C95.9657 638.221 95.7858 637.134 95.303 636.148C94.9996 635.43 94.528 634.78 93.921 634.245C93.314 633.71 92.5863 633.301 91.7884 633.048C90.9906 632.795 90.1418 632.703 89.3011 632.779C88.4604 632.855 87.648 633.098 86.9205 633.489C86.0712 633.946 85.3074 634.524 84.658 635.2C79.5787 640.622 75.608 646.91 70.359 652.198C45.8561 676.988 16.5115 694.594 -19.8695 702.036V744.154C18.0274 735.65 42.1117 719.446 61.6484 699.201ZM35.5618 595.566C18.7288 600.617 3.21933 596.257 -12.1544 590.413C-14.5187 589.516 -17.0187 588.238 -19.8695 587.392V630.129C-0.547731 630.582 14.8825 624.119 28.5593 613.636C32.9458 610.074 36.9255 606.116 40.4374 601.823C43.2656 598.597 42.2135 592.67 35.5618 595.566ZM194.22 940.085H194.774C255.782 940.982 305.116 881.454 304.369 807.537C304.256 801.96 303.419 790.333 298.713 788.715C291.473 789.746 291.926 814.113 289.267 821.123C278.362 869.972 239.718 894.648 189.118 903.513C159.06 911.698 161.968 940.168 194.22 940.085ZM799.008 761.409C800.886 757.802 805.796 748.813 800.524 747.535C795.105 747.772 789.494 755.338 784.969 759.42C770.898 773.198 753.747 784.066 734.674 791.292C710.396 800.611 683.655 803.251 657.749 798.889C640.543 796.497 623.597 790.416 606.345 790.385C574.908 789.354 549.206 809.434 533.549 832.698C529.137 838.728 526.49 847.552 536.57 844.573C541.457 842.913 546.536 839.646 551.4 837.471C561.853 832.482 574.025 832.162 586.141 832.317C607.714 832.688 630.113 837.347 651.131 838.893H651.708C718.542 840.264 773.453 812.784 799.008 761.409ZM17.7785 854.438C17.1903 862.931 37.1116 852.861 42.123 852.438C53.7749 849.583 65.9584 850.026 77.961 850.376C102.928 851.85 127.238 847.748 148.098 835.007C183.97 812.918 142.374 806.032 119.308 804.785H118.686C84.7711 803.486 30.2109 824.473 17.7785 854.438ZM-20.2541 870.858C3.37771 852.304 20.7311 831.08 34.159 807.362C39.4681 797.839 43.0914 787.611 44.8946 777.057C46.0258 770.315 43.8764 762.306 40.6524 755.936C34.8378 744.443 19.4301 743.381 11.2399 753.637C6.31527 760.033 2.21217 766.922 -0.988919 774.17C-5.8646 784.643 -9.95973 805.733 -20.4803 825.328C-20.0844 838.615 -20.2541 856.427 -20.2541 870.858ZM41.0031 234.596C40.5732 244.368 41.4895 254.181 42.2701 263.994C42.2839 264.206 42.3335 264.415 42.4171 264.613C43.5484 267.303 47.8019 267.179 49.363 264.674C49.5666 264.345 49.7589 264.004 49.9286 263.644C50.4038 262.737 49.9286 261.438 49.9286 260.325C49.9286 242.533 51.5689 224.763 58.4582 208.136C66.5014 188.726 73.1645 168.327 85.6874 150.989C117.973 106.315 120.971 22.5226 108.041 0.0927705H71.1735C76.7053 10.4006 81.3547 18.7912 83.0177 27.8106C89.2961 63.0531 85.0087 97.2751 70.8794 130.631C56.6369 164.235 42.6094 197.993 41.0031 234.596ZM142.125 62.7954C144.571 67.3852 148.427 71.2292 153.225 73.8605C158.022 76.4918 163.555 77.7971 169.151 77.618C177.839 77.5459 181.595 72.3301 178.529 65.0219C177.253 62.1183 175.589 59.3694 173.574 56.8374C160.78 40.5511 145.089 5.29823 144.92 0.14431H113.935C116.604 8.82351 117.736 12.5137 120.089 17.781C126.933 32.9542 133.879 48.1995 142.125 62.7954ZM200.724 22.4402C229.741 36.5516 260.952 40.7263 293.351 38.2112C316.575 36.4073 338.714 30.9235 358.466 19.1623L358.567 19.1004C362.878 16.4204 360.196 9.95738 355.027 10.5655H354.947C328.77 14.0805 279.301 0.876166 277.287 0.0927705C243.927 0.0206156 207.15 0.0927705 171.708 0.0927705C179.408 9.4391 189.327 17.0786 200.724 22.4402ZM19.9392 38.2524C26.4213 50.3847 28.91 63.1974 25.8104 76.6594C24.0456 84.3594 26.9416 90.0596 33.6726 92.884C39.8944 95.4197 47.2476 93.7498 51.3993 87.225C55.2342 81.1536 64.6122 57.4868 49.5553 12.7302C48.1073 8.44212 42.3493 0.0927705 42.3493 0.0927705H-20.2654C-20.2541 2.82435 -19.9939 11.3592 -19.9939 17.3687C-1.38485 16.6884 12.0544 23.4916 19.9392 38.2524ZM-20.1862 417.231C-20.1862 420.086 -20.0844 425.322 -20.0844 428.693C-8.02529 445.185 11.7829 478.624 39.0573 497.096C47.7878 502.97 58.0675 506.636 68.8544 507.723C83.391 509.372 98.6516 503.074 104.466 493.117C109.082 485.221 106.83 475.8 99.5905 471.749C46.1389 441.856 8.87558 400.264 -9.25835 345.313C-19.779 313.41 -22.132 280.981 -9.68823 248.965C-5.2311 237.462 1.62427 226.752 7.04296 215.516C7.40707 214.517 7.44246 213.442 7.14477 212.424C7.0528 211.94 6.84673 211.481 6.54079 211.077C6.23485 210.673 5.83633 210.334 5.37275 210.084C4.90917 209.834 4.39158 209.679 3.85573 209.629C3.31988 209.579 2.77853 209.636 2.26908 209.796C1.30533 210.04 0.428087 210.509 -0.276231 211.156C-2.82154 213.795 -15.1069 224.226 -20.0844 233.833C-22.0415 261.046 -20.2541 309.307 -20.2428 336.634C-20.2428 363.496 -20.2767 390.368 -20.1862 417.231ZM1027.98 39.4481C1028.69 39.662 1029.44 39.7309 1030.18 39.6499C1030.92 39.5688 1031.63 39.3397 1032.26 38.9791C1032.89 38.6186 1033.42 38.1354 1033.83 37.5642C1034.23 36.993 1034.48 36.348 1034.58 35.6754C1034.73 34.9503 1034.66 34.2028 1034.38 33.5108C1028.41 20.7806 1010.95 0.113386 1009.12 0.103078C979.431 0.0206156 956.218 0.0412313 926.534 0.0412313C979.273 27.0787 993.278 14.9464 1026.9 38.9224C1027.23 39.1477 1027.59 39.325 1027.98 39.4481ZM236.924 56.3736C231.37 53.8172 225.906 50.962 220.374 48.4262C216.72 46.777 212.342 45.3957 209.91 46.4884C205.736 48.4881 209.525 54.2089 211.878 57.023C237.343 86.7714 269.934 104.233 305.987 105.748H306.587C409.304 108.253 425.141 -3.11297 397.019 23.7905C360.23 73.4434 294.233 83.8543 236.924 56.3736ZM742.593 64.3725C749.539 66.2588 757.05 66.6196 764.358 67.0834C766.191 67.1968 768.985 65.3208 769.867 63.7025C770.444 62.6717 768.736 60.0741 767.412 58.7238C765.806 57.1054 763.464 56.1056 761.496 54.7759C740.851 40.7778 738.407 32.8305 715.556 0.0721548H656.867C657.907 1.90695 706.777 54.6419 742.593 64.3725ZM851.317 19.956C851.692 19.8823 852.051 19.7535 852.381 19.5746C853.148 19.1397 853.769 18.5198 854.173 17.7835C854.578 17.0472 854.752 16.2232 854.674 15.4027C854.597 14.5821 854.272 13.7971 853.736 13.1344C853.199 12.4717 852.472 11.9572 851.634 11.6479C851.274 11.5157 850.891 11.4424 850.503 11.4314C837.335 11.3386 813.862 2.18526 807.074 0.164925C789.359 -0.0515393 764.302 0.0927705 746.575 0.061847C773.827 19.9663 827.719 24.3059 851.351 19.956H851.317ZM860.367 60.7132C872.826 67.7737 887.19 71.5488 901.861 71.6189H902.495C925.222 71.8457 948.492 62.2181 961.795 45.2102C965.788 40.5407 969.318 32.0265 966.648 29.0784C957.417 18.7706 925.052 57.157 870.809 48.1685C853.614 45.1071 841.769 48.5293 860.424 60.7132H860.367ZM771.7 93.0901C771.879 93.0718 772.056 93.0443 772.232 93.0077C775.467 92.2964 776.406 87.9156 773.476 86.4622C771.659 85.7462 769.763 85.2105 767.82 84.8645C709.934 76.68 651.527 25.2233 633.405 0.0927705H570.394C571.989 3.07174 573.539 5.04053 574.715 6.87533C619.287 76.1234 702.999 98.3471 771.7 93.0901ZM506.524 164.214C503.13 167.307 498.752 169.626 497.066 173.491C495.686 177.078 499.329 178.872 503.447 177.893C517.61 174.625 529.409 166.08 542.203 159.906C560.124 151.107 576.167 139.45 589.569 125.488C602.148 113.427 610.452 98.1925 610.124 81.0403V80.5249C611.583 43.0455 553.561 28.9238 549.613 72.4126C552.249 107.397 533.956 140.578 506.524 164.245V164.214ZM500.641 115.293C500.684 115.564 500.744 115.833 500.822 116.097C501.082 117.099 501.661 118.008 502.486 118.71C503.31 119.413 504.345 119.879 505.458 120.048C506.572 120.218 507.716 120.084 508.747 119.663C509.778 119.243 510.649 118.555 511.252 117.685C511.589 117.219 511.852 116.712 512.033 116.18C515.755 104.645 519.872 93.0386 521.547 81.1949C525.393 54.1059 531.536 36.6547 504.499 4.64884C503.314 2.9435 501.875 1.3963 500.223 0.0515392H419.214C430.051 6.80318 439.904 12.3282 449.158 19.4921C481.478 44.5402 494.849 78.2674 500.641 115.293Z" fill="url(#paint0_linear_2_3754)"/>
</g>
</g>
<defs>
<linearGradient id="paint0_linear_2_3754" x1="-20.2428" y1="1110.02" x2="1084.94" y2="-102.893" gradientUnits="userSpaceOnUse">
<stop stop-color="#98989A" stop-opacity="0.19"/>
<stop offset="0.0818296" stop-color="#98989A" stop-opacity="0.2"/>
<stop offset="0.317411" stop-color="#98989A" stop-opacity="0.05"/>
<stop offset="0.841458" stop-color="#98989A" stop-opacity="0"/>
</linearGradient>
<clipPath id="clip0_2_3754">
<rect width="1172" height="1080" fill="white"/>
</clipPath>
<clipPath id="clip1_2_3754">
<rect width="1920" height="1080" fill="white"/>
</clipPath>
</defs>
</svg>
