<svg width="1920" height="1080" viewBox="0 0 1920 1080" fill="none" xmlns="http://www.w3.org/2000/svg">
<g clip-path="url(#clip0_2_3754)">
<rect width="1920" height="1080" fill="white"/>
<g clip-path="url(#clip1_2_3754)">
<path d="M345.304 461.899V462.509C346.231 499.485 366.992 535.814 406.224 562.52C419.096 572.096 438.112 577.698 427.131 557.588C421.932 548.703 417.585 539.611 414.114 530.368C359.993 390.114 542.391 266.691 735.697 229.595C752.568 225.262 760.33 216.62 738.224 214.752C723.262 213.962 706.991 215.602 691.829 217.146C512.594 236.646 348.049 338.308 345.304 461.899ZM974.325 178.675C886.044 191.315 804.053 150.186 717.499 149.384H716.499C681.812 149.384 646.852 156.733 617.183 168.68C601.566 175.048 585.859 182.313 573.551 191.076C557.335 202.746 563.734 206.888 587.84 201.849C685.321 175.945 748.314 193.865 844.485 209.031C870.209 213.136 897.206 216.344 923.64 214.082C947.819 212.191 973.471 204.781 989.232 193.039C1006.16 180.147 992.759 177.047 974.325 178.675ZM505.704 179.369C398.207 166.202 301.163 236.825 297.182 307.15V307.76C301.054 331.413 319.27 296.987 325.47 291.672C333.476 282.943 343.067 274.888 354.03 267.684C440.166 212.837 464.4 250.28 516.012 233.414C552.99 219.098 547.881 186.419 505.704 179.369ZM573.606 74.81C568.723 74.4892 563.8 74.5414 558.935 74.9656C407.915 85.1521 232.48 156.003 224.553 262.896V263.543C224.117 286.046 230.844 310.298 245.151 327.906C248.187 331.497 252.95 336.907 259.695 336.416C264.585 336.165 267.058 329.725 266.967 325.177C262.077 274.902 287.528 227.716 336.432 188.957C396.425 139.496 481.598 108.147 571.515 88.803C584.495 85.4634 590.695 76.4499 573.606 74.81ZM217.954 412.726C226.771 438.055 256.259 457.494 275.875 479.423C294.782 498.312 311.217 518.41 327.124 538.579C331.087 543.164 335.941 552.417 341.995 554.643L342.322 554.715C350.83 553.674 344.14 535.671 342.831 530.583C331.814 495.942 320.555 461.324 309.053 426.731C305.017 414.916 300.072 402.851 289.619 392.784C256.35 360.045 207.428 375.116 217.954 412.726ZM110.584 695.017C106.148 722.237 145.29 731.825 175.341 714.791C232.116 680.449 230.571 617.51 222.208 570.767L222.081 570.109C219.772 558.294 215.409 536.353 208.428 529.027C208.131 528.594 207.707 528.203 207.18 527.879C206.652 527.554 206.032 527.302 205.356 527.136C203.229 527.004 201.72 530.188 200.883 535.635C199.774 542.35 199.938 551.064 198.92 558.246C193.048 598.837 151.38 630.929 124.765 666.528C118.02 675.386 111.893 685.153 110.584 695.017ZM537.119 781.201C538.755 787.689 540.864 792.609 543.482 793.495L543.736 793.566C545.845 794.177 548.263 792.226 550.499 788.371C552.719 784.213 554.327 779.924 555.299 775.563C572.515 707.861 529.483 634.687 444.056 594.336C421.713 582.988 384.481 571.916 361.447 587.693C344.522 599.807 347.576 621.125 361.629 634.173C390.571 659.657 436.875 673.674 470.581 696.214C507.74 718.957 531.556 747.948 537.119 781.201ZM1249.95 39.7376C1120.69 81.0225 994.068 186.108 992.796 283.58V284.203C991.65 359.231 1057.77 438.079 1169.32 462.952C1247.49 480.908 1338.72 463.683 1390.06 420.626C1410.66 404.742 1427.6 378.599 1380.26 399.595C1357.05 409.697 1329.91 415.187 1302.09 415.407C1241.91 415.766 1186.5 396.734 1146.45 367.946C1097.37 333.46 1071.53 280.48 1090.51 229.93C1109.71 178.459 1147.52 130.351 1196.48 88.2165C1211.6 75.5606 1228.48 63.8664 1246.91 53.2878C1254.38 49.1341 1272.98 35.6678 1250.02 39.7615L1249.95 39.7376ZM1228.59 126.952C1230.77 123.109 1231.59 119.65 1230.15 117.723C1220.28 109.894 1195.79 131.68 1188.81 136.875C1145.03 172.534 1116.09 215.423 1114.8 262.429V263.052C1115 327.978 1189.63 378.671 1290.94 381.113C1309.94 381.879 1325.49 376.708 1304.25 366.031C1189.21 320.448 1167.39 225.98 1214.41 148.737C1218.73 141.436 1224.46 134.194 1228.66 126.976L1228.59 126.952ZM608.238 384.692C608.929 386.404 614.91 387.792 624.6 388.606C651.088 390.282 686.411 390.306 714.754 390.162C807.816 391.144 896.552 357.843 945.637 306.431C961.745 289.518 989.505 255.953 959.399 240.668C918.131 229.452 884.226 287.124 862.828 304.6C816.833 351.008 751.931 368.784 670.431 372.83C657.744 373.699 645.143 375.046 632.69 376.863C617.237 379.257 607.475 382.154 608.311 384.536L608.238 384.692ZM1113.91 523.27C1149.4 523.365 1182.88 518.266 1213.15 505.805C1218.24 503.711 1225.48 499.365 1224.9 496.72C1223.55 490.735 1214.12 492.483 1207.23 492.459C1194.23 492.459 1181.12 492.997 1168.23 492.123C1123.27 489.071 1083.49 479.16 1053.7 455.136C1027.88 434.392 1006.7 412.427 996.795 385.997C990.087 368.041 966.762 355.377 943.674 355.138C918.477 354.874 895.279 366.809 885.498 384.297C878.408 397.021 883.062 408.608 890.389 420.435C927.985 481.111 1018.77 523.006 1113.91 523.27ZM1021.19 560.724L1022.14 560.964C1125.89 582.869 1325.74 558.569 1365.25 490.795C1366.37 487.441 1365.88 483.941 1363.86 480.775C1361.84 477.609 1358.38 474.933 1353.96 473.115C1337.59 467.657 1317.11 475.27 1302.51 480.764C1234.48 514.184 1169.47 552.177 1079.53 552.728C1064.99 553.075 1050.57 551.806 1036.19 550.178C1028.92 549.424 1021.08 548.323 1015.48 549.628C1004.65 552.237 1012.78 559.18 1021.16 560.724H1021.19ZM1376.32 31.0832C1390.67 17.5323 1406.72 4.79564 1424.29 -6.99367C1427.13 -8.80115 1431.35 -12.1408 1431.13 -13.6251V-13.8765C1429.84 -17.1683 1420.22 -15.7558 1411.48 -13.7209C1388.92 -7.73581 1368.59 2.07967 1351.14 13.0922C1281.45 58.3511 1238.42 119.47 1238.9 184.121C1238.26 216.021 1258.66 245.528 1270.55 275.848C1279.33 294.928 1276.71 315.349 1286.64 334.202C1314.27 382.202 1381.99 343.862 1386.04 309.639C1395.51 250.806 1305.02 227.046 1314.78 145.134C1319.92 104.412 1342.48 65.3895 1376.32 31.0832ZM1081.06 679.06C1104.33 672.896 1115.85 656.712 1133.65 645.939C1168.19 624.896 1218.86 624.142 1260 611.501C1342.78 588.579 1416.35 537.287 1425.86 476.981V476.395C1425.22 464.293 1417.6 466.531 1414.62 476.323C1407.24 503.112 1379.15 525.4 1348.03 542.242C1308.12 564.183 1256.66 572.299 1207.46 580.439C1144.43 591.212 1066.41 600.788 1034.5 642.983C1017.37 667.39 1040.7 689.199 1081.06 679.06ZM799.617 313.973C832.995 298.076 861.774 276.865 876.754 251.309C879.881 246.33 883.026 236.358 879.935 235.03L879.735 234.886C872.736 232.684 861.228 242.894 854.156 246.856C802.071 282.479 724.207 286.525 654.96 296.879C556.171 311.914 452.328 356.562 432.567 426.156C429.04 443.166 446.111 460.798 472.562 452.359C489.288 446.817 500.741 436.618 512.667 426.874C539.01 403.76 568.134 380.945 608.002 367.766C638.744 356.885 673.467 351.475 705.991 344.293C739.133 337.171 771.311 327.535 799.617 313.913V313.973ZM693.611 125.91C674.358 137.162 699.974 138.395 712.427 137.126C786.4 130.124 855.793 154.423 928.221 158.361H929.112C949.444 158.146 969.633 156.08 989.105 152.221C1013.62 147.298 1035.96 138.552 1054.24 126.724C1082.46 107.572 1057.28 108.099 1031.88 113.557C917.968 135.283 852.538 77.5631 728.734 113.126C716.317 116.777 703.737 120.452 693.611 125.91ZM779.728 2.85772C777.529 1.95996 773.511 3.947 768.82 7.84925C764.13 11.7515 759.731 16.5276 755.495 20.7051C721.571 55.0952 673.049 79.5621 617.074 95.4823C575.933 109.164 521.412 108.039 485.67 127.921C455.492 148.965 492.215 169.817 527.484 169.613C648.634 168.775 742.751 90.1078 778.365 19.0652C780.401 14.5405 783.819 5.73056 780.001 2.96547L779.728 2.85772ZM1213.73 -60.4641C1196.19 -62.7384 1177.38 -60.4641 1159.43 -60.3444C1072.28 -57.9504 1014.36 -53.5454 954.564 -7.78369C929.112 8.18442 901.115 22.2254 867.628 29.982C846.921 34.4947 826.141 39.7496 810.525 50.1396C802.835 55.3107 794.054 61.7626 795.836 65.7007L795.999 65.8923C800.308 68.0589 807.525 65.198 812.579 64.3601C851.411 55.6698 893.261 54.5087 933.893 51.6478C1006.07 45.7586 1046.61 25.4094 1098.49 -6.16773C1131.34 -21.6211 1166.78 -35.698 1204.34 -45.3818C1217.55 -47.8835 1235.86 -55.7958 1213.73 -60.4641ZM181.576 218.511C182.104 225.968 185.212 244.199 195.684 244.642C197.629 244.414 199.32 242.93 200.902 240.536C204.537 234.359 205.301 227.165 207.664 220.45C215.591 196.187 229.226 172.259 264.313 160.36C271.585 157.475 278.857 154.555 284.183 150.952C297.764 142.728 294.709 128.592 280.002 122.152C263.495 114.766 241.261 119.662 226.844 127.347C189.03 148.785 181.54 186 181.522 217.853L181.576 218.511ZM720.317 -124.289C693.302 -12.1049 490.124 47.0633 338.959 5.08416C330.451 2.63029 307.344 -3.18716 312.235 7.62183C318.379 15.9411 331.687 22.4049 342.468 28.5815C374.61 45.0404 418.587 55.8134 459.927 56.2563H460.764C594.312 58.2075 740.551 7.3465 756.64 -82.8362C758.281 -96.2737 754.937 -109.772 746.896 -122.17C739.442 -134.212 725.662 -139.443 720.317 -124.289ZM1636.85 -26.2176C1610.6 -48.2905 1559.44 -51.69 1522.88 -41.0486C1496.36 -33.5793 1475.81 -21.8964 1459.54 -6.9338C1453.58 -0.721324 1443.18 5.56298 1443.65 12.9126C1448.8 21.962 1473.07 4.53355 1480.85 2.04377C1514.25 -13.242 1550.46 -18.9039 1589.93 -10.9558C1598.58 -9.36375 1607.84 -7.19716 1616.47 -7.05352H1617.33C1635.03 -6.67047 1647.9 -15.2291 1636.85 -26.2176ZM564.498 -36.2606C488.342 -29.4256 419.059 -45.1663 357.248 -74.3494C347.14 -79.0537 336.159 -84.2367 324.415 -86.942C294.528 -95.0816 259.64 -79.4367 264.422 -58.2137C266.894 -46.076 283.82 -35.4705 300.054 -28.5518C338.741 -11.7937 385.863 -5.34177 431.294 -5.24601H432.221C483.761 -6.58666 540.828 -11.4106 584.732 -30.6945C587.55 -32.5259 588.368 -34.1658 586.768 -35.2431C582.95 -37.6611 571.042 -36.6915 564.498 -36.2606ZM1607.47 596.072C1586.68 598.586 1566.57 601.207 1546.1 603.852C1434.58 614.183 1356.85 646.227 1327.81 720.681C1320.74 737.57 1318.72 754.999 1315.8 772.332C1315.29 775.3 1315.36 779.322 1318.85 781.118C1324.58 783.823 1330.25 780.184 1334.19 776.33C1372.86 738.277 1420.24 707.513 1481.21 687.954C1501.85 680.772 1525.92 676.882 1547.61 670.669C1585.78 659.011 1619.69 635.418 1625 607.036V606.45C1625.76 597.448 1620.85 594.228 1607.47 596.072ZM954.127 706.197C1016.47 732.22 1096.26 729.957 1165.19 719.1C1172.47 717.808 1185.08 715.665 1188.63 711.416L1188.79 711.116C1188.54 704.485 1153.65 707.118 1144.63 706.496C1084.64 704.988 1032.05 684.531 978.415 668.778C914.241 650.835 902.533 684.663 954.127 706.197ZM916.804 614.733C917.04 625.375 915.768 638.745 927.203 646.693C936.984 653.648 952.327 653.48 963.144 646.25C982.76 633.083 989.505 614.183 989.56 596.287C987.978 527.651 928.257 469.859 840.722 434.068C826.332 428.077 810.549 423.677 793.999 421.045C766.112 416.844 772.438 427.688 789.236 435.05C875.954 476.826 916.877 545.295 916.75 614.099L916.804 614.733ZM1581.22 492.088C1580.33 479.543 1572.62 467.992 1565.08 456.668C1552.59 438.318 1542.84 419.022 1531.14 400.409C1527.86 394.603 1516.59 382.609 1514.41 396.327C1523.76 473.725 1557.24 514.017 1478.05 582.857C1473.74 587.334 1471.38 590.901 1473.02 592.313L1473.23 592.493C1475.05 593.917 1480.98 592.948 1488.21 590.781C1545.72 573.269 1583.42 533.564 1581.22 492.088ZM568.443 889.315C626.327 879.512 673.34 851.837 708.954 821.373C789.818 752.473 811.634 639.092 733.315 565.608C704.737 538.855 664.232 518.924 613.838 513.203C602.93 512.305 592.713 511.898 591.058 516.159C590.895 521.761 604.602 526.538 611.42 530.152C685.012 561.634 717.117 617.774 716.426 675.924V676.523C711.209 752.641 657.251 822.773 564.588 869.624C558.098 873.036 549.917 876.89 544.791 880.745C532.21 891.326 555.39 891.602 568.443 889.315ZM530.592 871.971C630.49 818.428 721.844 706.783 639.435 628.02C618.546 606.474 588.622 587.322 580.023 561.682C577.951 551.735 573.769 533.588 563.134 550.693C540.537 608.712 589.695 664.313 606.311 720.345C624.491 772.116 578.496 820.954 527.938 858.085C520.303 864.525 501.559 874.843 502.05 881.08L502.177 881.247C508.577 884.072 524.011 875.286 530.592 871.971ZM1425.62 603.685C1479.91 562.986 1512.14 508.798 1495.19 454.059C1491.86 444.519 1487.32 435.178 1481.63 426.132C1479.2 421.679 1472.71 414.45 1468.51 414.761C1462.67 414.138 1461.6 424.672 1462.22 429.221C1471.69 526.334 1369.41 612.243 1241.15 653.265C1215.39 661.943 1187.92 667.629 1160.58 673.446C1153.52 675.039 1146.87 677.133 1144.02 679.228C1135.6 685.153 1158.25 686.41 1166.7 685.919H1167.67C1268.09 683.669 1359.12 655.3 1425.62 603.685ZM355.066 835.306C413.242 816.824 457.8 773.6 452.965 730.891C450.019 708.722 430.367 689.271 402.188 677.026C383.481 668.515 350.958 659.789 331.887 670.681C313.162 682.161 329.651 696.19 348.54 702.223C373.501 710.35 394.535 724.667 397.807 743.436C403.261 779.346 359.502 808.505 319.379 828.95C311.871 833.379 294.6 839.28 293.237 845.373L293.328 845.553C302.872 851.119 343.595 838.981 355.066 835.306ZM1091.08 818.967C1083.91 815.484 1066.51 811.881 1050.28 809.391C1000.98 801.455 948.473 796.343 898.733 805.501C805.798 823.899 745.041 880.134 656.687 904.661C624.459 913.816 589.779 918.642 554.681 918.857C538.919 919.109 522.63 917.732 506.849 917.361C495.942 917.158 488.452 917.828 486.979 919.755C482.816 922.149 500.796 929.906 511.285 932.922C577.096 952.074 654.451 957.138 722.516 940.607C848.63 910.682 908.86 823.3 1056.19 827.945H1057.19C1073.02 827.741 1106.75 826.963 1091.08 818.967ZM231.171 865.926C204.21 874.939 173.268 875.945 144.144 871.384C129.746 869.984 111.766 863.256 98.0584 867.422C89.1684 872.713 100.985 881.63 111.711 887.663C132.204 898.598 157.658 904.711 184.031 905.032H185.012C217.027 905.451 252.623 896.988 265.749 876.136C268.603 871.085 271.312 863.316 264.04 859.641C255.132 856.134 240.388 863.197 231.207 865.926H231.171ZM569.315 961.543C553.59 955.175 554.135 984.908 553.844 990.714V991.42C554.808 1007.16 553.499 1030.07 577.478 1038.43C580.12 1039.21 583.022 1039.53 585.906 1039.36C588.789 1039.19 591.559 1038.53 593.949 1037.46C611.911 1026.53 595.767 1009.1 590.313 995.634C584.786 985.699 579.223 967.312 569.279 961.543H569.315ZM285.765 803.705C280.82 794.5 248.042 806.099 236.189 806.099C163.978 813.281 84.5326 807.057 20.067 833.547C8.41376 838.514 -7.62083 844.14 -13.7292 852.16L-13.911 852.507C-16.4744 862.323 13.3587 852.364 21.485 850.472C30.7954 848.036 40.3429 846.012 50.0637 844.415C76.4867 840.274 103.914 839.72 130.673 842.787C155.143 845.182 180.322 851.765 204.628 850.125C227.135 848.928 246.951 840.453 261.986 829.704C270.894 822.989 287.401 812.324 285.765 803.705ZM398.08 1062.71H398.952C443.511 1062.01 481.852 1044.76 511.358 1022.66C517.521 1017.8 525.266 1011.69 526.211 1005.38C524.393 993.862 492.487 1013.76 484.761 1015.76C471.596 1020.95 457.402 1024.92 442.584 1027.56C398.952 1035.48 365.956 1032.23 326.506 1019.38C308.053 1015.18 306.144 1025.21 313.471 1033.42C329.396 1051.73 365.592 1062.94 398.08 1062.71ZM758.676 1039.76H759.676C832.068 1037.62 899.133 1019.92 943.383 976.96C957.927 963.219 959.381 951.739 931.566 965.373C841.122 1008.55 694.12 1021.63 608.893 967.875C600.039 963.267 590.44 962.129 591.167 970.796C594.149 984.13 608.111 996.759 621.982 1006.54C656.742 1030.31 707.845 1039.41 758.676 1039.76ZM388.044 1020.22C407.46 1020.5 428.313 1018.8 444.275 1010.73C458.218 1004.16 463.4 990.139 446.093 984.741C440.275 982.79 431.549 982.754 424.931 983.352C389.372 986.441 352.085 993.862 319.488 983.041C313.18 981.365 292.964 972.089 292.346 980.958C292.91 984.861 297.127 988.416 300.763 991.42C322.815 1008.18 353.576 1019.15 387.154 1020.15L388.044 1020.22ZM1057.28 870.762C1067.97 861.652 1082.73 842.201 1052.33 844.846C978.234 858.169 915.259 890.057 854.466 919.612C809.252 942.355 758.113 960.226 700.773 965.002C689.866 966.439 669.868 966.199 663.487 970.389L663.359 970.556C663.359 977.14 698.428 979.761 708.227 980.671C844.794 991.492 981.361 946.496 1057.28 870.762ZM1822.74 916.559L1822.98 916.739C1824.79 918.032 1829.34 916.296 1834.38 913.148C1852.79 901.217 1866.1 886.293 1872.93 869.888C1900.6 803.945 1879.39 742.023 1813.34 689.87C1793.45 674.165 1771.76 659.729 1750.4 645.065C1745.15 641.259 1735.3 636.782 1728.33 640.074C1711.97 650.428 1739.08 672.645 1747.04 683.454C1758.58 696.621 1772.02 709.07 1783.49 722.213C1826.9 772.786 1855.95 834.001 1830.96 892.188C1828.96 899.238 1819.76 910.263 1822.74 916.559ZM1706.99 691.055C1703.06 690.852 1699.12 691.325 1695.55 692.428C1691.99 693.531 1688.92 695.225 1686.65 697.345C1684.37 699.465 1682.98 701.937 1682.6 704.52C1682.21 707.102 1682.86 709.705 1684.46 712.074C1691.14 723.422 1707.08 731.777 1718.92 740.934C1746.77 761.092 1768.91 783.619 1781.87 809.163C1784.49 814.945 1797.09 833.894 1800.05 819.769C1796.65 782.662 1773.02 747.254 1746.89 714.432C1738.68 704.234 1726.68 692.024 1707.81 691.09L1706.99 691.055ZM1756.58 -117.047H1756.71C1763.53 -115.359 1770.2 -119.8 1768.18 -124.408C1768.02 -124.791 1767.84 -125.19 1767.64 -125.605C1766.61 -127.295 1765.19 -128.869 1763.44 -130.274C1745.08 -146.912 1728.37 -164.855 1729.11 -187H1674.88C1674.39 -162.258 1717.95 -127.054 1756.58 -117.047ZM1530.37 921.958C1483.41 905.14 1426.22 903.129 1375.12 910.502C1322.67 918.57 1271.8 936.837 1239.17 965.565C1224.15 979.929 1239.06 979.51 1255.98 973.309C1307.31 954.612 1369.24 945.778 1426.57 955.845C1450.89 959.843 1475.31 967.157 1500.39 967.971H1501.34C1550.32 969.228 1580.29 940.404 1530.37 921.982V921.958ZM1671.23 984.502C1697.19 996.376 1715.75 978.421 1711.73 960.944C1710.33 952.326 1705.83 944.114 1699.77 936.07C1607.91 819.817 1360.55 805.8 1222.37 894.438C1204.59 905.702 1187.52 918.02 1174.41 931.809C1168.41 938.345 1165.58 943.312 1166.81 944.653V944.761C1168.21 946.125 1174.08 943.492 1182.67 938.297C1190.61 933.509 1200.01 926.877 1209.48 921.371C1300.09 869.481 1424.33 866.117 1529.77 901.214C1560.02 910.68 1587.6 923.458 1611.35 939.003C1633.47 952.134 1647.6 972.627 1671.23 984.525V984.502ZM1251.59 1016.21C1227.73 1034.05 1234.08 1065.01 1274.84 1066.93C1309.22 1066.25 1332.89 1046.46 1361.06 1036.09C1409.64 1015.93 1464.91 1011.65 1520.83 1018.27C1527.75 1018.81 1543.57 1021.45 1548.1 1018.42L1548.3 1018.17C1548.75 1012.7 1535.15 1007.99 1528.81 1005.2C1447.93 974.889 1320.1 967.636 1251.59 1016.21ZM32.2475 863.723C18.8126 865.603 -4.93022 869.397 -19.4559 871.827V887.101C11.777 882.313 31.4476 882.792 55.954 882.313C60.1898 882.229 66.8618 879.919 67.8617 877.62C69.1707 874.903 67.2072 870.438 64.2258 868.044C55.6631 861.604 43.5371 862.131 32.2475 863.723ZM1500.65 62.3012C1530.28 45.2079 1568.39 35.0932 1605.82 27.7077C1612.05 26.4029 1629.89 23.8054 1625.03 17.8562C1618.31 13.152 1597.17 13.942 1585.8 13.6428H1584.91C1451.64 13.3435 1365.86 90.0958 1370.5 171.169C1371.81 239.842 1505.19 300.925 1457.54 368.029C1451.73 375.032 1446.64 388.546 1466.13 383.974C1478.72 379.964 1487.27 371.752 1495.79 364.69C1543.53 325.26 1521.54 274.914 1486.14 235.413C1459.18 206.23 1430.86 173.827 1442.09 138.706C1451.56 110.804 1470.12 83.0095 1500.65 62.3012ZM1408.4 -83.0397L1409.28 -83.1115C1416.55 -83.4467 1426.53 -86.7025 1423.46 -89.8627C1416.48 -95.6801 1397.86 -97.0447 1387.41 -100.803C1349.85 -111.576 1329.54 -137.049 1299.63 -154.274C1284.85 -163.85 1256.73 -166.088 1250.64 -150.108C1246.89 -138.796 1256.66 -127.114 1266.62 -118.172C1298.33 -90.4252 1357.96 -82.7524 1408.4 -83.0397ZM194.557 724.846C173.141 741.473 199.047 741.903 218.191 737.75C234.631 734.213 250.011 728.817 263.64 721.806C311.671 697.866 328.96 656.952 327.797 618.408V617.774C326.49 594.019 318.873 570.598 305.29 548.574C291.346 527.148 269.058 508.606 242.879 492.016C208.901 471.008 193.411 475.353 217.736 504.058C261.731 557.648 282.474 626.62 242.679 683.37C231.807 699.302 212.3 712.038 194.557 724.846ZM1517.25 728.533C1480.63 745.782 1438.13 756.986 1398.7 771.434C1364.73 784.542 1333.55 800.558 1305.98 819.063C1298.82 824.425 1285.44 831.643 1283.42 838.215V838.418C1283.71 839.424 1285.47 839.615 1288.29 838.837C1294.83 837.078 1301.33 833.235 1307.11 830.195C1328.59 818.516 1352.93 809.317 1379.08 802.987C1409.99 795.075 1444.02 793.028 1475.8 787.354C1533.34 777.299 1584.09 759.823 1626.87 730.257C1669.3 701.05 1702.86 666.42 1697.9 623.723C1696.54 610.939 1692.45 598.466 1688.59 585.981C1682.65 565.907 1672.56 570.42 1668.68 586.951C1649.85 645.544 1590.58 695.268 1517.25 728.533ZM792.6 798.438C787.146 805.321 788.836 809.906 799.762 804.723C860.81 761.092 881.081 700.128 882.626 641.642V641.032C883.48 541.5 790.509 408.812 615.11 418.735C539.973 422.912 466.963 464.03 456.946 514.496C453.31 533.648 458.546 553.339 473.49 569.857C478.307 575.519 490.124 583.886 497.451 578.524C503.541 574.107 504.432 567.535 506.631 561.909C512.594 543.068 522.048 524.371 540.028 508.535C600.457 454.861 698.828 488.64 746.896 532.475C806.18 582.749 834.904 645.425 833.85 708.95C834.304 741.161 820.724 771.817 792.6 798.438ZM1678.97 432.644C1700.1 429.161 1713.52 377.749 1715.19 364.043C1719.35 296.951 1735.19 248.065 1801.85 194.882C1815.52 185.605 1820.38 173.659 1795.52 182.828C1707.26 215.566 1643.65 273.107 1643.03 340.031V340.702C1643.27 370.22 1650.85 398.565 1665.12 422.877C1667.59 426.886 1671.27 433.087 1678.97 432.644ZM1049.55 55.2389C1028.41 63.259 1005.36 68.8644 981.379 71.8175C975.161 72.811 966.835 73.613 962.654 76.6055C958.2 83.0334 985.869 81.8005 993.741 81.8963H994.65C1078.48 80.8309 1165.27 65.9641 1227.86 28.4737C1299.54 -20.8191 1377.3 -45.9922 1480.27 -55.3169C1505.83 -59.6262 1497.69 -65.8387 1477.92 -65.8746C1337.16 -65.1803 1196.14 -30.9458 1093.73 32.783C1080.28 41.2578 1065.59 49.2538 1049.55 55.2389ZM54.245 5.16796C54.5268 4.98006 54.7222 4.74353 54.8086 4.48566C54.9941 3.9268 54.9741 3.34687 54.7503 2.79413C54.5265 2.24139 54.1054 1.73184 53.522 1.30793C52.9387 0.884014 52.2099 0.557997 51.3965 0.357019C50.5831 0.156042 49.7085 0.0859151 48.8456 0.152491C48.0134 0.175494 47.1944 0.297144 46.4277 0.511595C31.5021 5.0722 17.4855 11.0692 1.92357 14.5765C-5.08726 16.3319 -12.2507 17.8108 -19.5286 19.0054V42.4189C9.90451 34.6982 33.0838 19.1251 54.245 5.16796ZM-19.4013 -21.1663V6.13753C9.14095 1.27767 32.4293 -8.28643 53.8451 -19.8376C63.844 -25.2361 72.5885 -31.7 81.333 -38.0202C81.7584 -38.3645 82.0347 -38.778 82.1329 -39.2172C82.268 -39.87 82.174 -40.5346 81.858 -41.1597C81.542 -41.7849 81.0125 -42.354 80.3102 -42.8234C79.6079 -43.2928 78.7515 -43.6498 77.8068 -43.8672C76.8622 -44.0845 75.8544 -44.1563 74.8609 -44.077C74.3883 -44.077 73.9156 -44.0052 73.4611 -43.9454C72.0976 -43.7897 71.0795 -42.6406 69.8251 -42.078C13.4314 -18.09 -15.4381 -21.5852 -19.4013 -21.1304V-21.1663ZM239.097 -39.2172C234.116 -48.5778 219.918 -39.4207 215.791 -34.3214C138.563 37.583 267.112 139.341 383.045 99.3487C393.517 96.1168 433.621 75.4085 406.679 71.8893C318.27 66.2753 243.37 32.4837 240.043 -27.5463V-28.1089C239.824 -31.7478 240.552 -35.5663 239.097 -39.1813V-39.2172ZM-19.7468 -99.7978C-19.7468 -83.5065 -19.9649 -64.1509 -19.4377 -48.889C1.32364 -48.2307 14.1222 -51.0795 25.6119 -54.8741C44.4461 -61.1823 46.4641 -74.529 32.2838 -85.0028C18.9944 -94.8542 1.52361 -98.7923 -19.7468 -99.7978ZM167.596 -0.613603L167.433 -0.721321C158.197 -0.888903 147.617 28.3181 143.69 34.7221C130.546 63.4504 114.038 92.3222 114.602 122.619C115.038 136.324 120.201 151.981 137.072 160.803C160.451 172.941 179.468 158.732 179.995 142.405C181.14 130.998 177.559 119.542 174.541 108.338C165.869 79.5023 161.651 50.5945 166.905 21.4832C167.596 15.558 171.178 3.56397 167.596 -0.577682V-0.613603ZM16.1584 216.608C39.6103 276.59 99.6036 326.96 189.412 352.097C202.738 355.413 220.099 361.362 233.425 359.471L233.989 359.351C257.386 351.355 200.265 308.155 189.576 298.95C158.197 273.466 127.273 247.143 99.2582 219.804C58.5537 177.118 26.3754 127.514 46.155 76.5457C47.973 72.3083 51.609 59.3686 45.0824 59.9072C40.0284 60.2783 32.6293 68.3701 30.1204 72.7751C0.650985 118.585 -4.36664 167.231 16.1584 216.608ZM1891.66 896.509C1892.64 896.378 1893.64 896.222 1894.59 896.031C1913.29 892.439 1919.02 890.824 1937.65 887.089V871.827C1914.69 875.502 1902.48 881.14 1886.75 890.488L1886.64 890.548C1882.81 892.93 1886.44 897.228 1891.66 896.521V896.509ZM1089 918.056C1090.09 913.734 1089.26 909.21 1089.31 904.769C1082.68 907.019 1074.77 908.431 1069.59 911.651C1042.52 928.362 1027.97 949.872 1018.88 973.106C1008.25 1000.24 1043.03 1081.21 1068.37 1102H1162.69C1155.61 1096.18 1149.38 1090.42 1142.45 1084.55C1083.97 1034.97 1073.42 978.708 1089 918.056ZM589.059 1054.92C531.792 1059.63 476.198 1072.79 417.278 1069.7C416.418 1069.69 415.569 1069.83 414.823 1070.11C413.844 1070.47 413.014 1070.98 412.41 1071.59C411.805 1072.21 411.445 1072.92 411.362 1073.65C411.279 1074.39 411.476 1075.12 411.934 1075.8C412.392 1076.47 413.098 1077.05 413.987 1077.5C414.606 1077.83 415.355 1078.05 416.15 1078.12C434.512 1079.32 453.001 1080.62 471.399 1080.38C526.284 1079.66 581.241 1078.69 634.835 1088.08C652.935 1091.12 670.305 1095.81 686.448 1102H816.633C751.277 1067.63 657.215 1049.33 589.059 1054.92ZM982.997 1023.95C983.274 1021.36 982.811 1018.75 981.633 1016.26C977.379 1005.1 961.054 1001.63 944.71 1008.32C931.464 1013.61 921.478 1021.8 916.513 1031.46C903.46 1056.07 908.096 1079.54 929.385 1102H1030.65C1029.94 1101.09 977.07 1052.47 982.997 1023.95ZM1893.62 1072.88C1875.97 1078.79 1860.12 1084.09 1859.86 1101.83C1885.93 1101.83 1911.75 1102 1937.82 1102V1064.64C1921.11 1064.33 1907.35 1068.28 1893.62 1072.88ZM69.4979 422.577C37.3924 412.762 8.88644 399.188 -19.7831 382.968C-19.7831 407.291 -19.9831 431.363 -19.5286 453.412C-0.421624 462.833 14.9039 468.435 30.1204 471.02C45.3369 473.606 61.4079 473.127 77.0607 474.336C111.82 477.017 143.09 484.139 164.106 504.333C165.505 505.662 171.378 506.212 172.741 505.949C187.867 503.04 164.96 479.304 156.088 470.685C134.492 449.712 104.531 433.066 69.4979 422.577ZM1434.8 1048.35C1399.88 1049.12 1367.05 1055.09 1337.74 1068C1334.43 1069.47 1332.9 1072.66 1330.56 1075.06C1334.47 1075.52 1338.67 1076.87 1342.21 1076.34C1380.95 1070.55 1418.57 1073.4 1454.53 1083.7C1471.14 1088.49 1486.03 1095.82 1501.79 1102H1634.83C1561.97 1067.06 1500.03 1046.94 1434.82 1048.35H1434.8ZM1667.72 1011.63C1649.54 997.489 1627.38 985.507 1605.91 973.321C1592.71 965.876 1575.93 964.859 1560.04 969.204C1553.73 970.927 1546.9 975.584 1545.23 979.761C1543.97 982.945 1549.17 988.475 1553.86 991.181C1563.3 996.627 1574.75 1000.52 1584.66 1005.65C1632.51 1030.48 1660.58 1063.41 1674.74 1101.94H1729.28C1728.75 1098.59 1728.62 1095.19 1727.61 1091.91C1718.32 1062.23 1697.71 1034.61 1667.72 1011.63ZM1200.68 1010.25C1197.86 985.914 1206.14 963.279 1232.28 944.545C1232.54 944.349 1232.76 944.132 1232.93 943.899C1235.24 940.775 1230.46 937.351 1225.26 937.914C1224.68 937.974 1224.12 938.045 1223.53 938.129C1222.15 938.333 1221.04 939.326 1219.77 939.973C1148.67 975.284 1127.05 1056.74 1212.5 1101.99H1309.76C1242.84 1076.07 1205.75 1054.01 1200.68 1010.25ZM182.613 978.84C183.185 978.483 183.616 978.039 183.867 977.547C184.272 976.716 184.349 975.831 184.089 974.975C183.829 974.12 183.241 973.322 182.382 972.658C181.522 971.993 180.419 971.485 179.178 971.18C177.936 970.875 176.596 970.784 175.286 970.915C173.232 971.025 171.252 971.47 169.523 972.208C108.966 1001.67 90.7137 1058.26 127.128 1102H186.376C179.904 1096.12 173.105 1090.4 167.014 1084.36C131.946 1049.51 136.181 1005.95 182.613 978.84ZM92.4408 1001.33C65.7529 980.144 14.5404 978.433 -19.4741 984.956C-19.9831 997.86 -19.7649 1013.78 -19.7649 1027.69C9.43183 1028.89 31.6294 1037.65 55.2813 1043.11C61.9533 1044.65 68.5344 1047.48 75.5881 1047.21C99.4037 1046.34 107.657 1034.33 105.385 1021.47C103.965 1014.1 99.4864 1007.13 92.4408 1001.33ZM247.515 998.423C247.987 987.65 235.843 981.461 219.39 982.502C207.864 983.233 199.774 987.291 193.375 993.395C169.032 1016.45 167.178 1041.97 176.45 1068.05C180.595 1079.72 189.176 1090.7 195.848 1102H245.624C240.57 1082.43 234.371 1049.33 241.552 1025.3C244.206 1016.41 247.133 1007.44 247.515 998.423ZM295.327 1046.16C287.819 1040.7 283.492 1035.18 277.148 1029.96C276.631 1029.53 276.018 1029.16 275.33 1028.85C274.42 1028.46 273.387 1028.2 272.307 1028.1C271.228 1028.01 270.129 1028.07 269.092 1028.29C268.056 1028.51 267.108 1028.88 266.318 1029.38C265.528 1029.87 264.918 1030.48 264.531 1031.15C264.349 1031.51 264.263 1031.89 264.276 1032.27C264.64 1040.02 269.967 1075.64 289.728 1102H458.8C441.439 1098.95 322.597 1067.86 295.327 1046.16ZM254.805 963.314C247.613 956.838 239.558 950.797 230.735 945.263C186.885 919.013 133.909 906.109 76.0608 901.07C47.264 898.58 17.0492 893.72 -19.4559 899.131C-20.274 914.405 -19.6559 940.811 -19.6559 956.946C80.4785 936.501 171.705 941.936 242.606 970.82C243.868 971.273 245.298 971.484 246.733 971.43C248.001 971.44 249.258 971.271 250.419 970.934C251.579 970.598 252.617 970.102 253.463 969.479C254.308 968.857 254.942 968.122 255.321 967.325C255.699 966.528 255.815 965.687 255.659 964.859C255.546 964.3 255.221 963.769 254.714 963.314H254.805ZM-19.7104 1064.64V1102H80.8057C58.6627 1079.88 23.9211 1065.3 -19.8195 1064.64H-19.7104ZM435.857 965.074C457.673 957.664 474.508 930.361 442.838 924.316C420.277 921.587 399.352 931.414 377.791 934.395C351.994 938.979 325.87 938.895 300.818 933.389C290.092 931.809 271.966 924.1 262.64 928.685L262.313 928.96C259.55 932.096 264.513 937.004 267.985 939.913C307.035 970.868 382.136 986.141 435.748 965.074H435.857ZM1769.56 2.67817C1757.93 -1.58318 1747.95 -7.83157 1736.3 -12.081C1715.73 -19.5982 1690.9 -17.9942 1675.17 -8.82508C1657.29 1.48117 1657.3 13.9181 1663.07 28.1984C1668.9 42.6224 1684.61 49.3616 1702.95 54.6883C1734.31 63.7736 1767.64 65.7247 1801.42 65.0424C1848.89 64.3225 1895.53 56.6127 1937.89 42.4788V19.0054C1934.78 19.2328 1931.66 19.3765 1928.56 19.6997C1872.64 25.4812 1819.27 20.8847 1769.46 2.66621L1769.56 2.67817ZM1756.84 82.6983C1735.7 80.005 1713.61 77.6828 1692.37 78.796C1643.07 81.4055 1607.18 100.055 1578.73 125.479C1578.49 125.708 1578.29 125.953 1578.13 126.21C1576.02 129.717 1581.95 133.224 1587.22 131.859C1587.86 131.702 1588.47 131.497 1589.04 131.249C1606.82 123.6 1625.73 117.531 1647.11 116.885C1674.63 116.107 1702.26 116.622 1729.82 116.274C1753.46 115.975 1777.42 116.765 1800.62 114.443C1856.81 108.817 1897.86 85.2599 1937.93 61.0803V54.8439C1931.27 57.0464 1924.11 58.77 1918.06 61.5351C1868.77 84.0629 1815.16 90.1317 1756.66 82.6863L1756.84 82.6983ZM1823.56 -50.9C1815.49 -58.8481 1809.51 -67.6581 1801.83 -75.8337C1792.42 -85.8407 1778.85 -91.718 1760.35 -89.9943C1742.44 -88.3425 1730.62 -80.9569 1726.39 -69.8726C1724.31 -63.5847 1724.48 -57.0661 1726.88 -50.8282C1732.08 -36.5239 1746.88 -26.2655 1764.42 -17.8984C1816.81 7.14302 1875.52 13.2957 1937.82 6.10162V-21.1304C1925.37 -22.1837 1856.85 -21.0945 1823.38 -50.912L1823.56 -50.9ZM1854.74 1036.57C1854.59 1036.76 1854.47 1036.96 1854.37 1037.17C1852.19 1041.71 1860.35 1045.55 1866.41 1042.96L1866.74 1042.82C1888.44 1032.6 1911.95 1027.11 1938 1027.62V984.956C1897.82 991.875 1872.72 1011.45 1854.55 1036.56L1854.74 1036.57ZM1816.12 -186.916H1764.8C1765.2 -184.857 1774.13 -133.051 1871.9 -74.0382C1891.9 -64.7853 1912.98 -51.295 1937.82 -48.901V-99.7978C1897.51 -100.791 1832.05 -149.953 1816.12 -186.916ZM1859.86 -186.976C1859.86 -179.698 1858.94 -173.474 1860.04 -167.381C1862.64 -153.22 1868.26 -139.658 1887.93 -130.405C1891.23 -128.97 1895.18 -128.331 1899.11 -128.598C1900.66 -128.754 1902.55 -132.512 1902.17 -134.463C1898.62 -152.275 1913.33 -164.831 1937.82 -166.783V-186.976H1859.86ZM1896.97 227.058C1898.6 252.877 1906.06 269.695 1922.15 293.061C1926.7 299.223 1931.93 305.159 1937.78 310.824V84.5417C1934.84 87.5342 1931.18 90.3233 1929.06 93.5432C1900.88 136.217 1894.11 181.164 1896.97 227.058ZM1911.77 842.249L1937.82 824.629V770.5C1921.84 783.739 1902.22 820.775 1900.73 838.981C1900.63 839.849 1900.94 840.716 1901.62 841.464C1902.29 842.212 1903.3 842.805 1904.51 843.162C1905.71 843.519 1907.06 843.623 1908.36 843.459C1909.66 843.296 1910.85 842.873 1911.77 842.249ZM1907.17 350.649C1906.95 350.223 1906.63 349.82 1906.24 349.452C1905.41 348.641 1904.26 347.991 1902.92 347.569C1901.58 347.147 1900.09 346.968 1898.61 347.051C1897.12 347.134 1895.7 347.476 1894.49 348.041C1893.27 348.606 1892.31 349.374 1891.7 350.266C1891.44 350.645 1891.28 351.05 1891.22 351.463C1889.57 364.63 1887.9 377.857 1888.1 391.048C1888.41 413.983 1903.37 433.111 1926.98 449.474C1929.73 451.365 1934.13 452.215 1937.76 453.544V383.196C1922.6 374.362 1912.91 363.361 1907.17 350.589V350.649ZM1812.98 611.92C1776 594.947 1749.35 571.964 1726.81 546.611C1726.58 546.37 1726.33 546.138 1726.06 545.917C1724.92 545.044 1723.42 544.41 1721.74 544.092C1720.05 543.775 1718.27 543.788 1716.6 544.13C1714.93 544.473 1713.45 545.129 1712.34 546.019C1711.23 546.908 1710.54 547.992 1710.35 549.137C1710.3 549.537 1710.34 549.94 1710.46 550.334C1727.73 607.503 1775.27 649.123 1857.94 671.723C1883.39 678.654 1910.28 681.215 1937.82 677.121V628.774C1891.51 638.254 1850.77 629.277 1812.98 611.92ZM1764.8 1102H1816.2C1821.23 1026.78 1856.46 980.922 1925.69 959.831C1929.58 958.634 1933.76 957.844 1937.82 956.874V899.131C1827.07 919.001 1735.17 1023.46 1764.8 1102ZM1873.15 571.258C1837.72 568.947 1804.3 559.347 1777.62 543.822C1776.95 543.458 1776.22 543.148 1775.44 542.901C1769.55 541.045 1762.44 544.098 1763.35 548.407C1763.45 548.856 1763.64 549.294 1763.91 549.712C1767.58 555.012 1772.36 559.947 1778.11 564.375C1801.74 582.33 1833.18 593.103 1869.01 599.759C1891.48 603.9 1914.46 605.887 1937.82 602.787V570.049C1916.24 570.528 1894.39 572.646 1873.15 571.258ZM1888.93 463.922C1884.98 457.924 1879.61 452.377 1873.03 447.487C1857.03 435.254 1830.61 436.427 1817.69 449.881C1812.82 454.775 1809.53 460.275 1808.02 466.04C1806.51 471.806 1806.82 477.713 1808.92 483.397C1820.23 515.717 1877.62 539.932 1937.82 544.672V494.984C1913.33 488.58 1897.73 478.083 1888.93 463.922ZM1804.45 891.015V890.381C1804.18 877.285 1799.82 862.538 1791.05 850.879C1783.78 842.069 1775.24 843.697 1775.85 854.758C1786.76 933.425 1724.48 946.927 1730.57 988.104C1730.95 999.368 1748.75 1020.99 1755.86 998.878C1758.95 977.176 1780.33 958.969 1790.73 938.728C1799.06 923.393 1803.69 907.294 1804.45 891.015ZM1120.33 982.455H1120.58C1121.78 982.562 1122.8 981.689 1123.54 980.061C1126.13 972.627 1125.14 964.5 1126.53 956.647C1128.91 938.515 1137.92 921.031 1152.8 905.69C1179.5 878.949 1211.97 854.638 1245.17 831.476C1256.08 823.767 1266.78 815.915 1274.53 806.638C1303.29 771.326 1267.98 747.984 1216.53 770.967C1129.27 815.915 1091.09 897 1111.47 968.294C1112.86 972.579 1115.87 980.958 1120.33 982.455ZM1756.18 426.084C1821.99 387.218 1869.13 335.818 1877.13 277.2C1877.72 260.706 1878.21 241.434 1863.68 227.153C1859.66 223.757 1854.53 221 1848.67 219.085C1842.81 217.171 1836.37 216.148 1829.83 216.093C1804.38 215.662 1788.02 231.977 1779.85 245.827C1762.26 287.052 1779.49 330.898 1763.04 372.315C1753.95 396.566 1736.79 418.998 1714.28 439.132C1709.88 443.022 1700.43 451.234 1702.63 453.999L1702.81 454.214C1704.37 456.213 1711.9 453.173 1714.92 451.413C1728.82 443.202 1742.04 434.26 1756.18 426.084ZM1752.95 862.083C1752.35 859.187 1751.48 856.242 1750.42 853.321C1734.2 807.476 1675.19 783.176 1608.62 782.063H1607.65C1580.36 781.986 1553.87 788.132 1532.68 799.456C1523.25 804.136 1507.05 817.674 1528.35 819.41C1590.17 819.673 1647.63 845.493 1679.72 879.548C1690.28 889.279 1697.59 908.18 1719.32 908.276C1748.93 905.439 1756.6 878.698 1752.95 862.083ZM1854.99 114.587C1806.61 133.428 1748.58 121.948 1696.7 131.524C1674.08 135.008 1645.29 144.691 1642.96 161.833C1640.32 179.129 1670.12 190.752 1693.65 190.669H1694.55C1756.89 186.683 1815.38 158.182 1859.37 129.92C1868.3 123.768 1879.22 117.95 1885.9 110.768C1894.39 97.7088 1861.43 112.683 1854.99 114.587ZM1634.07 61.99C1642.45 58.3152 1658.52 48.6314 1640.05 46.2374C1551.32 46.2374 1473.85 92.2145 1476.2 152.065V152.675C1476.65 169.302 1483.21 185.893 1496.19 203.153C1508.23 218.715 1521.65 213.855 1520.28 197.791C1518.54 143.47 1568.62 93.2798 1634.07 61.99ZM1715.88 -101.198C1708.3 -120.267 1675.5 -133.159 1646.8 -133.841H1645.83C1602.2 -134.212 1566.95 -117.298 1548.99 -92.52C1546.63 -88.8332 1540.86 -81.7469 1546.35 -78.8502C1550.61 -77.2103 1562.17 -83.4467 1567.84 -86.14C1592.64 -98.2178 1614.09 -103.102 1643.49 -96.9968C1660.36 -93.8726 1675.59 -86.7385 1692.57 -84.3444C1707.63 -82.1659 1719.42 -91.3589 1715.92 -101.198H1715.88ZM1582.95 162.144C1578.33 159.678 1570.62 155.369 1564.95 157.763C1562.39 159.091 1562.9 162.395 1564.57 165.974C1571.53 178.579 1575.22 192.093 1569.15 205.104C1562.31 221.372 1542.46 233.378 1532.37 248.532C1524.21 259.664 1526.05 274.447 1538.26 284.023C1550.61 292.666 1567.35 284.933 1578.88 278.242C1604.73 263.148 1618.67 241.649 1619.84 218.978V218.343C1619.45 196.678 1607.24 176.424 1582.98 162.144H1582.95ZM1592.13 331.892C1592.5 318.882 1597.65 306.125 1607.15 294.713C1609.35 291.852 1612.89 286.226 1608.29 284.658C1590.86 282.371 1568.06 301.979 1561.81 311.842C1538.01 349.775 1544.13 392.329 1568.82 429.316C1586.26 456.429 1610.25 482.655 1611.15 512.999V513.61C1611.42 526.777 1602.51 541.656 1587.4 552.836C1578.97 559.659 1566.13 565.62 1565.15 575.052C1567.39 592.409 1605.64 579.577 1618.58 575.052C1630.99 570.518 1641.5 564.028 1649.16 556.163C1671.36 530.224 1668.92 496.78 1658.25 468.686C1641.36 430.274 1612.8 394.471 1596.78 356.047C1593.57 348.173 1592.02 340.045 1592.17 331.892H1592.13ZM67.6799 559.934C67.752 559.622 67.7231 559.304 67.5952 559C67.4672 558.696 67.2432 558.413 66.9376 558.17C66.6321 557.927 66.2519 557.729 65.8222 557.59C65.3924 557.45 64.9227 557.372 64.4439 557.361C64.123 557.353 63.8043 557.398 63.5168 557.492C39.3558 566.159 7.15935 568.265 -19.5468 570.073C-20.1104 578.859 -19.8195 594.013 -19.8195 602.811C20.0307 600.74 63.644 578.344 67.6799 559.934ZM111.82 624.956C138.817 604.75 159.306 582.21 166.742 555.385C166.97 554.141 166.681 552.879 165.905 551.735C165.418 550.9 164.66 550.146 163.684 549.524C162.709 548.902 161.539 548.428 160.257 548.134C158.975 547.84 157.611 547.734 156.26 547.822C154.909 547.911 153.603 548.192 152.434 548.646C151.069 549.177 149.842 549.848 148.798 550.633C140.635 556.93 134.254 564.231 125.819 570.372C86.4415 599.16 39.2831 619.605 -19.1832 628.247V677.157C41.7192 667.282 80.424 648.465 111.82 624.956ZM69.8979 504.608C42.8463 510.474 17.9218 505.41 -6.78456 498.623C-10.5841 497.582 -14.6019 496.098 -19.1832 495.116V544.744C11.8679 545.271 36.6652 537.765 58.6446 525.592C65.6939 521.455 72.0894 516.859 77.7334 511.874C82.2783 508.127 80.5876 501.245 69.8979 504.608ZM324.87 904.685H325.76C423.804 905.726 503.086 836.599 501.886 750.761C501.705 744.286 500.359 730.783 492.796 728.904C481.161 730.101 481.889 758.398 477.616 766.538C460.091 823.264 397.989 851.921 316.671 862.215C268.367 871.719 273.039 904.781 324.87 904.685ZM1296.8 697.195C1299.82 693.006 1307.71 682.568 1299.23 681.083C1290.53 681.359 1281.51 690.145 1274.24 694.885C1251.62 710.885 1224.06 723.506 1193.41 731.896C1154.39 742.718 1111.42 745.785 1069.79 740.718C1042.14 737.941 1014.9 730.879 987.178 730.843C936.656 729.646 895.352 752.964 870.191 779.98C863.101 786.983 858.847 797.229 875.045 793.77C882.899 791.843 891.061 788.048 898.879 785.523C915.677 779.729 935.238 779.358 954.709 779.537C989.378 779.968 1025.37 785.379 1059.15 787.174H1060.08C1167.49 788.766 1255.73 756.854 1296.8 697.195ZM41.3192 805.225C40.3739 815.089 72.3885 803.394 80.4421 802.903C99.1673 799.587 118.747 800.102 138.036 800.509C178.159 802.221 217.227 797.457 250.751 782.662C308.399 757.01 241.552 749.014 204.483 747.565H203.483C148.98 746.057 61.2988 770.428 41.3192 805.225ZM-19.8013 824.294C18.1763 802.748 46.0641 778.101 67.6436 750.558C76.1756 739.499 81.9984 727.622 84.8962 715.366C86.7142 707.537 83.26 698.237 78.0788 690.839C68.7343 677.492 43.9735 676.26 30.8113 688.17C22.8971 695.597 16.3032 703.597 11.1589 712.014C3.32341 724.176 -3.25767 748.667 -20.1649 771.422C-19.5286 786.851 -19.8013 807.536 -19.8013 824.294ZM78.6423 85.4275C77.9515 96.7751 79.4241 108.171 80.6785 119.566C80.7007 119.812 80.7804 120.054 80.9148 120.284C82.7328 123.409 89.5684 123.265 92.0772 120.356C92.4045 119.973 92.7135 119.578 92.9862 119.159C93.7498 118.106 92.9862 116.598 92.9862 115.305C92.9862 94.6444 95.6223 74.008 106.694 54.7002C119.62 32.1605 130.328 8.4717 150.453 -11.662C202.338 -63.5404 207.155 -160.845 186.376 -186.892H127.128C136.018 -174.922 143.49 -165.179 146.162 -154.705C156.252 -113.779 149.362 -74.0382 126.655 -35.3029C103.767 3.71958 81.2239 42.9217 78.6423 85.4275ZM241.152 -114.078C245.082 -108.748 251.279 -104.284 258.989 -101.229C266.698 -98.1731 275.59 -96.6572 284.583 -96.8652C298.545 -96.949 304.581 -103.006 299.654 -111.493C297.604 -114.864 294.93 -118.057 291.691 -120.997C271.13 -139.91 245.915 -180.847 245.642 -186.832H195.848C200.138 -176.754 201.956 -172.468 205.737 -166.352C216.736 -148.732 227.899 -131.028 241.152 -114.078ZM335.323 -160.941C381.954 -144.554 432.112 -139.706 484.179 -142.627C521.502 -144.722 557.08 -151.09 588.822 -164.748L588.986 -164.819C595.912 -167.932 591.604 -175.437 583.296 -174.731H583.168C541.1 -170.649 461.6 -185.983 458.364 -186.892C404.752 -186.976 345.649 -186.892 288.692 -186.892C301.067 -176.039 317.008 -167.167 335.323 -160.941ZM44.7915 -142.579C55.2086 -128.49 59.2081 -113.611 54.2269 -97.9784C51.3908 -89.0367 56.0448 -82.4173 66.8618 -79.1374C76.8607 -76.1928 88.6776 -78.132 95.3496 -85.709C101.513 -92.7594 116.584 -120.243 92.3863 -172.217C90.0593 -177.196 80.8057 -186.892 80.8057 -186.892H-19.8195C-19.8013 -183.72 -19.3832 -173.809 -19.3832 -166.83C10.5226 -167.62 32.1202 -159.72 44.7915 -142.579ZM-19.6922 297.514C-19.6922 300.829 -19.5286 306.91 -19.5286 310.824C-0.148929 329.977 31.6839 368.808 75.5154 390.258C89.5458 397.079 106.066 401.337 123.401 402.599C146.762 404.514 171.287 397.201 180.631 385.638C188.048 376.468 184.431 365.528 172.796 360.823C86.896 326.11 27.0117 277.811 -2.13053 213.998C-19.0377 176.951 -22.8191 139.293 -2.82136 102.114C4.34148 88.7551 15.3584 76.3182 24.0666 63.2708C24.6517 62.1099 24.7086 60.8617 24.2302 59.6798C24.0824 59.1182 23.7512 58.5844 23.2596 58.1153C22.7679 57.6463 22.1275 57.253 21.3825 56.9628C20.6375 56.6726 19.8057 56.4923 18.9445 56.4344C18.0834 56.3765 17.2134 56.4423 16.3947 56.6274C14.8459 56.9112 13.4361 57.4558 12.3042 58.2075C8.21378 61.2718 -11.5295 73.3855 -19.5286 84.5417C-22.6737 116.143 -19.8013 172.187 -19.7831 203.919C-19.7831 235.114 -19.8377 266.32 -19.6922 297.514ZM1664.78 -141.19C1665.91 -140.942 1667.12 -140.862 1668.3 -140.956C1669.49 -141.05 1670.63 -141.316 1671.64 -141.735C1672.66 -142.154 1673.52 -142.715 1674.16 -143.378C1674.81 -144.041 1675.22 -144.79 1675.37 -145.571C1675.61 -146.414 1675.5 -147.282 1675.05 -148.085C1665.47 -162.868 1637.4 -186.868 1634.45 -186.88C1586.75 -186.976 1549.44 -186.952 1501.74 -186.952C1586.49 -155.555 1609 -169.643 1663.03 -141.801C1663.56 -141.539 1664.15 -141.333 1664.78 -141.19ZM393.498 -121.536C384.572 -124.504 375.791 -127.82 366.901 -130.764C361.029 -132.68 353.994 -134.284 350.085 -133.015C343.377 -130.693 349.467 -124.049 353.248 -120.781C394.171 -86.2357 446.547 -65.9584 504.486 -64.1988H505.45C670.522 -61.29 695.974 -190.615 650.779 -159.373C591.658 -101.713 485.597 -89.6233 393.498 -121.536ZM1206.14 -112.247C1217.3 -110.056 1229.37 -109.637 1241.11 -109.099C1244.06 -108.967 1248.55 -111.145 1249.97 -113.025C1250.89 -114.222 1248.15 -117.238 1246.02 -118.806C1243.44 -120.686 1239.68 -121.847 1236.51 -123.391C1203.34 -139.646 1199.41 -148.875 1162.69 -186.916H1068.37C1070.04 -184.786 1148.58 -123.547 1206.14 -112.247ZM1380.86 -163.826C1381.46 -163.911 1382.04 -164.061 1382.57 -164.269C1383.8 -164.774 1384.8 -165.494 1385.45 -166.349C1386.1 -167.204 1386.38 -168.161 1386.26 -169.113C1386.13 -170.066 1385.61 -170.978 1384.75 -171.748C1383.89 -172.517 1382.72 -173.115 1381.37 -173.474C1380.79 -173.627 1380.18 -173.712 1379.55 -173.725C1358.39 -173.833 1320.67 -184.462 1309.76 -186.808C1281.29 -187.06 1241.02 -186.892 1212.54 -186.928C1256.33 -163.814 1342.94 -158.775 1380.92 -163.826H1380.86ZM1395.41 -116.496C1415.43 -108.297 1438.51 -103.913 1462.09 -103.832H1463.11C1499.63 -103.568 1537.03 -114.748 1558.41 -134.499C1564.82 -139.922 1570.5 -149.809 1566.2 -153.232C1551.37 -165.202 1499.36 -120.626 1412.19 -131.064C1384.55 -134.619 1365.52 -130.645 1395.5 -116.496H1395.41ZM1252.91 -78.898C1253.2 -78.9193 1253.48 -78.9513 1253.77 -78.9938C1258.97 -79.8197 1260.48 -84.907 1255.77 -86.5948C1252.85 -87.4263 1249.8 -88.0483 1246.68 -88.4502C1153.65 -97.9544 1059.79 -157.709 1030.66 -186.892H929.403C931.966 -183.433 934.457 -181.147 936.347 -179.016C1007.98 -98.6008 1142.51 -72.7933 1252.91 -78.898ZM826.759 3.69564C821.306 7.28667 814.27 9.97995 811.561 14.4687C809.343 18.6343 815.197 20.7171 821.815 19.5799C844.576 15.7854 863.537 5.86222 884.099 -1.30787C912.899 -11.525 938.68 -25.0623 960.217 -41.276C980.433 -55.281 993.777 -72.9729 993.25 -92.8911V-93.4896C995.595 -137.013 902.351 -153.412 896.006 -102.91C900.242 -62.2835 870.846 -23.7518 826.759 3.73156V3.69564ZM817.306 -53.1145C817.375 -52.7997 817.472 -52.488 817.597 -52.1808C818.015 -51.018 818.945 -49.9624 820.27 -49.1462C821.596 -48.33 823.258 -47.7896 825.048 -47.5928C826.838 -47.3959 828.676 -47.5514 830.332 -48.0396C831.989 -48.5279 833.389 -49.3272 834.359 -50.3374C834.9 -50.878 835.323 -51.4664 835.613 -52.085C841.594 -65.4796 848.212 -78.9579 850.902 -92.7115C857.083 -124.169 866.955 -144.434 823.505 -181.601C821.601 -183.582 819.288 -185.379 816.633 -186.94H686.448C703.864 -179.1 719.699 -172.684 734.57 -164.365C786.509 -135.277 807.998 -96.1111 817.306 -53.1145Z" fill="url(#paint0_linear_2_3754)"/>
</g>
</g>
<defs>
<linearGradient id="paint0_linear_2_3754" x1="-19.7831" y1="1102.02" x2="1164.27" y2="-696.297" gradientUnits="userSpaceOnUse">
<stop stop-color="#98989A" stop-opacity="0.19"/>
<stop offset="0.105869" stop-color="#98989A" stop-opacity="0.2"/>
<stop offset="0.403951" stop-color="#98989A" stop-opacity="0.05"/>
<stop offset="0.68761" stop-color="#98989A" stop-opacity="0"/>
</linearGradient>
<clipPath id="clip0_2_3754">
<rect width="1920" height="1080" fill="white"/>
</clipPath>
<clipPath id="clip1_2_3754">
<rect width="1920" height="1080" fill="white"/>
</clipPath>
</defs>
</svg>
