<svg width="1920" height="1080" viewBox="0 0 1920 1080" fill="none" xmlns="http://www.w3.org/2000/svg">
<g clip-path="url(#clip0_104_2)">
<rect width="1920" height="1080" fill="#10312B"/>
<path d="M65.1729 680.27C78.4173 663.345 88.4558 644.467 92.1184 621.984C92.2237 620.954 92.0815 619.911 91.7065 618.963C91.4728 618.258 91.1041 617.619 90.6265 617.092C90.1489 616.565 89.574 616.162 88.9427 615.913C88.3113 615.663 87.6388 615.572 86.9729 615.647C86.3069 615.722 85.6637 615.96 85.0888 616.346C84.4186 616.787 83.8142 617.344 83.2978 617.997C79.2949 623.283 76.1338 629.394 72.0234 634.539C52.7165 658.703 29.5768 675.759 0.867188 683.039V724.007C30.7768 715.741 49.7614 699.963 65.1729 680.27Z" fill="#336A5D"/>
<path d="M64.5682 738.967C62.3922 761.772 81.5827 769.806 96.3494 755.539C124.199 726.764 123.438 673.985 119.337 634.86L119.274 634.316C118.146 624.419 115.997 606.034 112.576 599.892C112.191 599.157 111.68 598.442 111.071 598.312C110.024 598.191 109.28 600.859 108.877 605.43C108.376 611.048 108.376 618.358 107.91 624.379C105.027 658.379 84.6274 685.272 71.5262 715.095C68.2219 722.525 65.213 730.711 64.5682 738.967Z" fill="#336A5D"/>
<path d="M99.4189 339.754C99.6786 345.996 101.21 361.26 106.341 361.632C107.299 361.451 108.177 360.203 108.902 358.209C110.693 353.034 111.06 346.993 112.225 341.365C116.111 321.037 122.8 300.991 139.985 291.023C143.522 288.606 147.104 286.16 149.728 283.149C156.391 276.253 154.904 264.412 147.677 258.985C139.618 252.793 128.675 256.901 121.6 263.335C103.055 281.337 99.4189 312.529 99.4189 339.2V339.754Z" fill="#336A5D"/>
<path d="M43.5133 625.8C43.553 625.541 43.5431 625.276 43.4845 625.021C43.4258 624.767 43.3197 624.529 43.1732 624.325C43.0267 624.12 42.8431 623.953 42.6346 623.834C42.4262 623.715 42.1976 623.647 41.9641 623.635C41.8068 623.626 41.6499 623.66 41.5074 623.736C29.651 630.995 13.8365 632.798 0.753323 634.278C0.475718 641.638 0.618997 654.304 0.618997 661.714C20.1319 659.992 41.5253 641.235 43.5133 625.8Z" fill="#336A5D"/>
<path d="M363.727 52.5408C350.473 146.529 250.76 196.106 176.612 160.937C172.439 158.923 161.102 154.01 163.502 163.061C166.511 170.029 173.048 175.445 178.332 180.631C194.11 194.434 215.692 203.446 235.975 203.788H236.432C301.937 205.419 373.685 162.84 381.583 87.2867C382.384 76.0256 380.743 64.7141 376.801 54.3229C373.12 44.2243 366.359 39.8445 363.727 52.5408Z" fill="#336A5D"/>
<path d="M44.406 510.717C28.6542 502.481 14.6576 491.114 0.598243 477.492C0.598243 497.88 0.499738 518.057 0.723612 536.523C10.0905 544.416 17.6217 549.108 25.0901 551.263C32.5586 553.417 40.4389 553.035 48.1133 554.052C65.1278 556.297 80.5125 562.257 90.8196 579.223C91.5092 580.33 94.4016 580.793 95.0553 580.582C102.488 578.145 91.2405 558.26 86.8884 551.031C76.2954 533.455 61.5954 519.506 44.406 510.717Z" fill="#336A5D"/>
<path d="M92.5405 156.189L92.451 156.108C87.9197 155.957 82.7348 180.433 80.8095 185.8C74.344 209.823 66.2845 234.047 66.5442 259.44C66.7591 270.918 69.3023 284.037 77.5678 291.437C89.0481 301.596 98.3791 289.685 98.6299 276.023C99.1851 266.458 97.4299 256.893 95.9434 247.469C91.6898 223.304 89.6212 199.14 92.2002 174.714C92.5405 169.71 94.2957 159.662 92.5405 156.189Z" fill="#336A5D"/>
<path d="M287.284 126.293C249.915 132.012 215.895 118.822 185.591 94.3862C180.63 90.4394 175.24 86.11 169.472 83.8244C154.804 77.0081 137.691 90.1172 140.046 107.918C141.255 118.087 149.566 126.937 157.536 132.767C176.511 146.802 199.624 152.219 221.922 152.299H222.379C247.658 151.172 275.661 147.134 297.206 130.975C298.585 129.444 298.997 128.065 298.2 127.159C296.338 125.125 290.49 125.92 287.284 126.293Z" fill="#336A5D"/>
<path d="M876.024 141.696C901.734 162.669 930.542 167.874 961.096 161.833V161.38C974.457 157.191 985.472 149.408 995.609 140.065C1000.53 135.544 1004.81 130.128 1009.1 124.832C1009.31 124.546 1009.45 124.196 1009.49 123.825C1009.55 123.279 1009.5 122.726 1009.34 122.206C1009.18 121.686 1008.92 121.213 1008.58 120.825C1008.23 120.436 1007.81 120.141 1007.35 119.963C1006.88 119.785 1006.39 119.729 1005.91 119.797L1005.22 119.908C1004.55 120.039 1004.04 121.006 1003.43 121.469C978.8 139.28 964.92 138.947 960.774 138.947C953.915 138.132 921.121 138.635 904.958 114.048C900.991 107.393 898.062 99.9526 894.292 93.1464C889.672 84.7292 882.982 79.7957 873.938 81.2455C865.216 82.635 859.448 88.827 857.371 98.1503C856.351 103.415 856.431 108.874 857.604 114.099C860.156 126.09 867.436 134.678 876.024 141.696Z" fill="#336A5D"/>
<path d="M818.334 44.5292H817.859C796.457 44.2271 779.156 58.3933 770.344 79.1543C769.18 82.2453 766.35 88.2158 769.046 90.6021C771.132 91.9915 776.801 86.7559 779.586 84.4906C791.765 74.4222 802.278 70.2841 816.713 75.429C824.988 78.0468 832.456 84.0375 840.766 86.0411C848.154 87.8735 853.948 80.1712 852.229 71.9453C848.512 55.9064 832.42 45.1031 818.334 44.5292Z" fill="#336A5D"/>
<path d="M832.193 149.217C823.426 157.856 823.426 168.347 826.256 180.238C829.121 192.32 836.823 197.978 845.822 202.438C861.216 210.05 877.559 211.681 894.179 211.117C917.471 210.515 940.347 204.054 961.127 192.209V191.484C974.837 184.809 985.815 172.284 995.845 160.997C995.978 160.835 996.07 160.638 996.114 160.423C996.203 159.955 996.192 159.469 996.081 159.006C995.971 158.544 995.764 158.117 995.478 157.762C995.192 157.407 994.835 157.133 994.436 156.964C994.038 156.795 993.609 156.735 993.185 156.788C992.78 156.806 992.382 156.912 992.012 157.101C984.687 160.916 977.801 165.941 970.171 168.881C966.732 170.35 963.218 171.591 959.649 172.596V172.767C958.61 172.878 957.58 172.998 956.56 173.17C929.157 178.013 902.964 174.177 878.526 158.903C872.813 155.339 867.923 150.093 862.201 146.539C852.136 140.286 839.993 141.585 832.193 149.217Z" fill="#336A5D"/>
<path d="M726.436 150.865C723.508 156.071 718.376 161.336 718.627 167.498C721.161 175.07 733.062 160.45 736.886 158.386C753.274 145.589 771.041 140.837 790.437 147.492C794.682 148.832 799.222 150.644 803.449 150.765H803.869C812.547 151.087 818.851 143.918 813.424 134.706C800.547 116.21 775.446 113.361 757.51 122.281C744.489 128.544 734.424 138.27 726.436 150.865Z" fill="#336A5D"/>
<path d="M350.635 262.171C341.188 271.595 353.751 272.632 359.868 271.565C396.162 265.695 430.2 286.053 465.742 289.356H466.181C476.149 289.172 486.046 287.434 495.589 284.191C507.618 280.072 518.583 272.746 527.55 262.835C541.385 246.797 529.036 247.24 516.58 251.76C460.692 269.974 428.579 221.555 367.838 251.408C361.802 254.519 355.596 257.6 350.635 262.171Z" fill="#336A5D"/>
<path d="M392.887 159.103C391.813 158.348 389.834 160.029 387.559 163.292C385.285 166.554 383.082 170.561 381.013 174.065C364.366 202.88 340.555 223.4 313.099 236.72C292.914 248.178 266.157 247.242 248.623 263.905C233.82 281.535 251.838 299.054 269.103 298.832C328.546 298.137 374.718 232.22 392.198 172.706C393.201 168.91 394.884 161.52 393.004 159.214L392.887 159.103Z" fill="#336A5D"/>
<path d="M605.836 106.01C597.221 104.097 587.926 106.01 579.186 106.101C536.426 108.115 508.003 111.8 478.666 150.14C466.174 163.531 452.446 175.311 436.014 181.785C425.859 185.571 415.659 189.971 408.003 198.67C404.224 203.009 399.943 208.406 400.785 211.708L400.874 211.869C402.988 213.682 406.534 211.285 409.005 210.591C428.062 203.311 448.595 202.335 468.529 199.938C503.937 195.005 523.817 177.959 549.294 151.489C565.413 138.551 582.786 126.761 601.233 118.646C607.707 116.542 616.689 109.917 605.836 106.01Z" fill="#336A5D"/>
<path d="M961.093 724.014V723.621C990.233 715.264 1008.89 699.679 1024.06 680.277C1037.3 663.352 1047.34 644.474 1051 621.991C1051.11 620.961 1050.96 619.918 1050.59 618.97C1050.35 618.27 1049.98 617.637 1049.5 617.115C1049.02 616.593 1048.45 616.196 1047.82 615.95C1047.19 615.704 1046.52 615.617 1045.86 615.693C1045.19 615.77 1044.55 616.009 1043.98 616.393C1043.31 616.835 1042.71 617.392 1042.19 618.044C1038.19 623.33 1035.03 629.442 1030.92 634.587C1011.62 658.751 988.469 675.806 959.759 683.086V683.962C937.595 691.151 918.029 683.65 899.85 669.403C881.671 655.156 868.651 635.885 857.565 614.641C857.459 614.44 857.339 614.248 857.206 614.067C856.649 613.331 855.911 612.795 855.085 612.526C854.259 612.256 853.381 612.265 852.559 612.551C851.737 612.838 851.008 613.388 850.463 614.136C849.917 614.883 849.577 615.794 849.487 616.755C849.471 617.092 849.489 617.43 849.541 617.762C858.021 665.657 881.349 700.524 921.906 719.453C934.354 725.303 947.58 727.447 961.093 724.014Z" fill="#336A5D"/>
<path d="M399.204 825.622C396.517 831.391 397.35 835.237 402.705 830.888C432.66 794.329 442.609 743.293 443.37 694.26V693.726C443.782 610.34 398.174 499.175 312.117 507.461C275.249 510.965 239.42 545.409 234.495 587.696C232.704 603.806 235.274 620.237 242.554 634.071C244.927 638.823 250.721 645.831 254.321 641.341C257.303 637.635 257.751 632.138 258.799 627.416C261.718 611.639 266.366 595.972 275.177 582.692C304.827 537.727 353.086 566.029 376.682 602.748C405.777 644.895 419.863 697.391 419.344 750.592C419.666 777.646 412.994 803.331 399.204 825.622Z" fill="#336A5D"/>
<path d="M872.232 225.948C861.863 223.692 851.027 221.749 840.612 222.676C816.434 224.86 798.811 240.487 784.85 261.821C784.73 262.013 784.631 262.219 784.554 262.436C783.524 265.376 786.426 268.305 789.032 267.168C789.346 267.034 789.646 266.862 789.927 266.654C798.658 260.241 807.927 255.156 818.422 254.653C831.935 253.988 845.484 254.421 859.015 254.139C870.612 253.888 882.361 254.542 893.751 252.599C921.324 247.887 941.463 228.153 961.111 207.895V202.66C957.851 204.512 954.341 205.962 951.368 208.278C927.225 227.096 900.888 232.18 872.232 225.948Z" fill="#336A5D"/>
<path d="M105.761 763.982C95.2572 777.907 107.964 778.279 117.403 774.796C125.452 771.821 132.981 767.301 139.656 761.435C163.216 741.379 171.706 707.066 171.133 674.847V674.313C170.493 654.412 166.756 634.79 160.091 616.339C153.232 598.347 142.289 582.802 129.456 568.887C112.773 551.288 105.188 554.922 117.107 578.956C138.698 623.85 148.88 681.653 129.349 729.196C124.047 742.577 114.475 753.249 105.761 763.982Z" fill="#336A5D"/>
<path d="M948.351 862.289L961.129 847.539V845.767C978.146 828.821 992.154 808.405 1002.41 785.598C1006.6 776.318 1009.46 766.352 1010.88 756.068C1011.78 749.513 1010.08 741.72 1007.53 735.508C1002.95 724.332 990.797 723.305 984.323 733.283C980.442 739.511 977.211 746.22 974.696 753.279C970.863 763.478 967.622 783.987 959.329 803.047C959.329 803.701 959.329 804.386 959.329 805.06C951.879 817.887 943.569 845.565 942.897 859.651C942.856 860.38 943.016 861.106 943.357 861.729C943.697 862.352 944.2 862.842 944.797 863.13C945.394 863.419 946.056 863.493 946.692 863.343C947.329 863.192 947.908 862.824 948.351 862.289Z" fill="#336A5D"/>
<path d="M127.618 123.866C125.182 116.033 118.215 123.705 116.182 127.974C78.2939 188.223 141.373 273.472 198.255 239.964C203.377 237.266 223.06 219.958 209.825 216.958C166.447 212.256 129.704 183.944 128.066 133.642V133.179C127.985 130.088 128.334 126.886 127.618 123.866Z" fill="#336A5D"/>
<path d="M525.27 202.957C514.897 209.671 503.588 214.365 491.823 216.841C488.77 217.677 484.659 218.351 482.635 220.868C480.45 226.255 494.026 225.218 497.859 225.299H498.307C539.437 224.402 582.018 211.948 612.724 180.535C647.9 139.254 686.048 118.111 736.572 110.298C749.109 106.683 745.115 101.488 735.425 101.458C666.356 102.031 597.125 130.716 546.923 184.099C540.35 191.237 533.141 197.933 525.27 202.957Z" fill="#336A5D"/>
<path d="M701.337 87.0712L701.767 87.0108C705.295 86.7289 710.239 83.9903 708.725 81.3524C705.304 76.4793 696.188 75.3114 691.048 72.1902C672.61 63.1286 662.652 41.8139 647.975 27.396C640.721 19.3413 626.921 17.4887 623.939 30.8796C622.095 40.354 626.886 50.1404 631.766 57.6414C647.339 80.9094 676.586 87.3431 701.337 87.0712Z" fill="#336A5D"/>
<path d="M870.391 878.981C870.095 876.564 869.674 874.098 869.155 871.641C861.203 833.23 832.242 812.872 799.602 811.945H799.127C785.736 811.88 772.738 817.028 762.34 826.514C757.71 830.441 749.803 841.788 760.227 843.238C790.566 843.459 818.738 865.086 834.481 893.58C839.666 901.735 843.257 917.573 853.905 917.673C868.43 915.277 872.182 892.865 870.391 878.981Z" fill="#336A5D"/>
<path d="M646.571 740.806C648.049 737.293 651.944 728.553 647.771 727.305C643.491 727.536 639.067 734.896 635.503 738.873C624.406 752.269 610.889 762.842 595.859 769.884C576.724 778.954 555.647 781.53 535.225 777.294C521.658 774.978 508.289 769.058 494.686 769.028C469.899 768.021 449.643 787.564 437.285 810.198C433.81 816.057 431.724 824.646 439.667 821.746C443.526 820.135 447.529 816.964 451.362 814.839C459.6 809.996 469.272 809.674 478.764 809.805C495.779 810.167 513.42 814.698 530.004 816.198H530.452C583.143 817.568 626.432 790.786 646.571 740.806Z" fill="#336A5D"/>
<path d="M559.993 979.816H560.118C560.718 979.907 561.21 979.172 561.578 977.802C562.849 971.57 562.357 964.713 563.046 958.189C564.21 942.991 568.632 928.336 575.932 915.479C589.034 893.067 604.964 872.698 621.254 853.337C626.573 846.883 631.856 840.248 635.653 832.526C649.775 802.945 632.447 783.392 607.203 802.633C564.354 840.298 545.656 908.23 555.649 967.955C556.339 971.54 557.816 978.557 559.993 979.816Z" fill="#336A5D"/>
<path d="M169.707 914.645H170.146C218.252 915.501 257.143 857.588 256.552 785.669C256.472 780.243 255.8 768.936 252.075 767.355C246.361 768.362 246.702 792.073 244.615 798.889C236.027 846.412 205.554 870.435 165.659 879.054C141.982 887.038 144.275 914.726 169.707 914.645Z" fill="#336A5D"/>
<path d="M938.501 907.822C938.985 907.711 939.468 907.58 939.943 907.419C949.113 904.398 951.925 903.049 961.068 899.928V899.586C975.584 895.951 984.996 896.313 996.691 895.951C998.777 895.891 1002 893.937 1002.53 892.024C1003.17 889.749 1002.22 885.983 1000.74 884.04C996.556 878.563 990.61 879.006 985.067 880.335C978.476 881.916 966.826 885.087 959.698 887.131V887.534C949.31 890.615 943.489 895.266 936.128 902.767C934.113 904.811 935.895 908.406 938.501 907.822Z" fill="#336A5D"/>
<path d="M733.063 652.92L733.171 653.071C734.066 654.259 736.976 653.454 740.532 651.631C768.713 636.962 787.214 603.706 786.13 568.95C785.7 558.439 781.922 548.763 778.223 539.278C772.08 523.904 767.307 507.734 761.567 492.138C759.955 487.275 754.403 477.227 753.355 488.715C757.931 553.565 774.372 587.325 735.544 644.996C733.43 648.752 732.266 651.732 733.063 652.92Z" fill="#336A5D"/>
<path d="M30.58 831.318C30.1143 839.584 45.8034 829.787 49.7705 829.374C58.9583 826.585 68.5759 827.018 78.0324 827.421C97.7333 828.841 116.888 824.854 133.356 812.459C161.654 790.963 128.879 784.268 110.664 783.05H110.172C83.4054 781.741 40.3857 802.17 30.58 831.318Z" fill="#336A5D"/>
<path d="M44.5971 579.443C31.3169 584.357 19.0933 580.108 6.98619 574.409C5.13251 573.543 3.15346 572.295 0.905762 571.469V613.052C16.1292 613.485 28.308 607.202 39.0898 597.003C42.5491 593.55 45.6903 589.715 48.4656 585.555C50.6775 582.393 49.8447 576.624 44.5971 579.443Z" fill="#336A5D"/>
<path d="M289.21 901.77C317.615 893.554 340.692 870.357 358.163 844.844C397.816 787.081 408.58 692.116 370.118 630.558C356.094 608.136 336.205 591.433 311.499 586.63C306.17 585.895 301.138 585.543 300.323 589.117C300.242 593.819 306.958 597.816 310.308 600.837C346.414 627.266 362.166 674.255 361.799 722.976V723.469C359.247 787.253 332.767 846.002 287.311 885.268C284.114 888.128 280.102 891.309 277.595 894.581C271.434 903.432 282.816 903.673 289.21 901.77Z" fill="#336A5D"/>
<path d="M273.879 811.224C274.685 816.651 275.715 820.779 277.004 821.514L277.13 821.585C278.169 822.098 279.351 820.457 280.443 817.235C281.541 813.754 282.33 810.158 282.798 806.502C291.252 749.767 270.136 688.461 228.218 654.661C217.248 645.146 198.989 635.873 187.687 649.093C179.386 659.242 180.882 677.103 187.777 688.038C201.989 709.393 224.698 721.143 241.238 740.011C259.435 759.09 271.121 783.345 273.879 811.224Z" fill="#336A5D"/>
<path d="M270.636 887.231C319.656 842.387 364.475 748.852 324.044 682.843C313.799 664.72 299.113 648.722 294.895 627.256C293.883 618.929 291.832 603.716 286.603 618.043C275.525 666.664 299.641 713.24 307.79 760.189C316.691 803.573 294.143 844.481 269.338 875.602C265.594 880.989 256.398 889.608 256.639 894.853L256.693 895.004C259.836 897.37 267.412 890.061 270.636 887.231Z" fill="#336A5D"/>
<path d="M184.494 856.513C213.006 841.028 234.892 804.812 232.519 769.029C231.077 750.453 221.442 734.162 207.606 723.903C198.428 716.764 182.47 709.455 173.112 718.597C163.924 728.202 172.019 739.952 181.288 745.006C193.529 751.822 203.854 763.814 205.466 779.53C208.153 809.635 186.661 834.051 166.96 851.187C163.27 854.902 154.808 859.836 154.136 864.951V865.092C158.918 869.763 178.897 859.584 184.494 856.513Z" fill="#336A5D"/>
<path d="M117.249 502.469C121.566 523.683 136.055 539.964 145.672 558.339C154.941 574.166 163 591.021 170.809 607.905C172.752 611.742 175.134 619.494 178.107 621.367L178.268 621.417C182.45 620.551 179.164 605.469 178.519 601.21C173.11 572.186 167.585 543.179 161.944 514.189C159.964 504.292 157.547 494.183 152.415 485.756C136.082 458.33 112.082 470.955 117.249 502.469Z" fill="#336A5D"/>
<path d="M258.431 306.952C205.686 295.877 158.064 355.049 156.121 414.019V414.533C158.028 434.347 166.956 405.471 170.01 401.041C173.924 393.71 178.625 386.947 184.006 380.904C226.265 334.952 238.157 366.325 263.482 352.179C281.625 340.238 279.117 312.862 258.431 306.952Z" fill="#336A5D"/>
<path d="M291.745 219.36C289.342 219.091 286.92 219.139 284.527 219.501C210.46 228.039 124.358 287.392 120.463 376.91V377.463C120.248 396.311 123.552 416.629 130.573 431.39C132.06 434.35 134.397 438.931 137.737 438.518C140.137 438.307 141.319 432.91 141.319 429.094C138.821 386.978 151.358 347.44 175.33 314.969C204.756 273.528 246.558 247.269 290.67 231.059C297.091 228.28 300.136 220.729 291.745 219.36Z" fill="#336A5D"/>
<path d="M478.447 748.345C509.037 770.153 548.188 768.23 582.011 759.168C585.593 758.071 591.772 756.279 593.518 752.725L593.59 752.463C593.465 746.905 576.343 749.11 571.919 748.597C542.448 747.338 516.685 730.192 490.366 716.992C458.889 701.96 453.14 730.302 478.447 748.345Z" fill="#336A5D"/>
<path d="M894.388 319.953C901.095 312.19 903.477 302.182 891.289 309.885C847.983 337.311 816.766 385.518 816.461 441.599V442.133C816.578 466.871 820.303 490.612 827.306 510.99C828.515 514.353 830.315 519.559 834.103 519.186C844.464 516.276 851.055 473.204 851.869 461.706C853.911 405.474 861.72 364.495 894.388 319.953Z" fill="#336A5D"/>
<path d="M845.792 537.227C846.562 538.898 850.269 536.341 851.729 534.871C858.553 527.994 865.045 520.493 871.985 513.657C904.223 481.096 927.407 438.033 931.33 388.92C931.607 375.096 931.858 358.946 924.721 346.975C922.748 344.13 920.232 341.821 917.358 340.217C914.484 338.614 911.326 337.758 908.118 337.712C895.671 337.35 887.522 351.023 883.6 362.631C874.967 397.166 883.421 433.905 875.343 468.601C870.866 488.919 862.466 507.747 851.424 524.591C849.266 527.843 844.628 534.72 845.702 537.036L845.792 537.227Z" fill="#336A5D"/>
<path d="M460.133 671.701C460.25 680.632 459.632 691.838 465.247 698.493C470.038 704.323 477.569 704.172 482.879 698.111C492.497 687.035 495.81 671.238 495.837 656.266C495.022 598.746 465.757 550.327 422.836 520.343C415.776 515.331 408.031 511.657 399.911 509.47C386.228 505.946 389.326 515.027 397.574 521.199C440.128 556.197 460.196 613.556 460.133 671.218V671.701Z" fill="#336A5D"/>
<path d="M875.814 617.199C877.62 621.636 879.965 625.77 882.781 629.482C894.333 644.514 909.807 653.646 927.386 659.133C938.41 662.597 949.648 664.258 961.137 661.671V661.499C980.211 658.942 1000.54 640.779 1002.44 625.767C1002.48 625.509 1002.47 625.244 1002.41 624.99C1002.35 624.737 1002.25 624.5 1002.1 624.295C1001.95 624.09 1001.77 623.923 1001.57 623.803C1001.36 623.684 1001.13 623.615 1000.9 623.602C1000.74 623.592 1000.58 623.626 1000.43 623.703C988.575 630.962 972.77 632.764 959.678 634.244V634.315C949.567 634.838 939.35 636.379 929.419 635.261C912.032 633.329 895.629 625.286 882.539 612.275C882.216 611.969 881.857 611.711 881.474 611.51C878.581 609.949 875.089 612.517 875.537 616.111C875.588 616.486 875.681 616.851 875.814 617.199Z" fill="#336A5D"/>
<path d="M179.727 543.707V544.221C180.174 575.191 190.365 605.638 209.6 628C215.923 636.054 225.254 640.716 219.854 623.882C217.305 616.435 215.175 608.815 213.478 601.067C186.926 483.569 276.413 380.157 371.256 349.076C379.53 345.441 383.354 338.202 372.491 336.631C365.157 335.977 357.178 337.356 349.737 338.645C261.808 354.935 181.079 440.144 179.727 543.707Z" fill="#336A5D"/>
<path d="M640.034 859.113C640.177 859.959 641.037 860.12 642.425 859.465C645.631 857.985 648.819 854.774 651.657 852.226C662.199 842.435 674.141 834.724 686.976 829.421C702.092 822.796 718.829 821.085 734.437 816.332C762.663 807.905 787.558 793.246 808.557 768.488C829.369 744.021 845.837 715.004 843.41 679.191C842.739 668.478 840.724 658.048 838.843 647.566C835.915 630.752 830.972 634.538 829.073 648.382C819.814 697.516 790.737 739.189 754.747 767.038C736.783 781.496 715.927 790.89 696.584 802.992C679.908 813.978 664.597 827.394 651.048 842.893C647.538 847.393 640.974 853.424 639.98 858.932L640.034 859.113Z" fill="#336A5D"/>
<path d="M709.779 662.516C736.429 628.454 752.243 582.975 743.924 537.185C742.289 529.187 740.063 521.357 737.27 513.775C736.079 510.05 732.891 503.989 730.832 504.251C727.966 503.727 727.438 512.557 727.751 516.333C732.399 597.695 682.206 669.674 619.28 704.038C606.635 711.307 593.158 716.029 579.735 720.952C576.278 722.282 573.018 724.033 571.621 725.795C567.493 730.749 578.606 731.786 582.752 731.403H583.218C632.497 729.47 677.165 705.699 709.779 662.516Z" fill="#336A5D"/>
<path d="M815.001 195.412C771.462 195.412 733.457 233.933 734.603 284.084V284.597C734.827 298.532 738.042 312.426 744.454 326.884C750.364 339.893 756.991 335.855 756.274 322.404C755.379 276.865 779.978 234.809 812.091 208.631C816.174 205.52 824.064 197.345 815.001 195.412Z" fill="#336A5D"/>
<path d="M762.167 364.944C758.155 374.267 759.06 386.651 765.059 394.675C771.104 401.915 779.387 395.431 784.993 389.833C797.664 377.187 804.506 359.164 805.088 340.165V339.642C804.9 321.458 798.9 304.483 786.999 292.522C784.733 290.508 780.954 286.853 778.169 288.847C776.907 289.964 777.158 292.733 777.981 295.723C781.393 306.295 783.211 317.612 780.229 328.516C776.862 342.149 767.083 352.197 762.167 364.944Z" fill="#336A5D"/>
<path d="M788.37 168.098H787.932C722.56 167.847 680.472 232.153 682.738 300.075C683.382 357.626 748.825 408.813 725.453 465.025C722.587 470.885 720.08 482.212 729.653 478.376C735.832 475.013 740.031 468.136 744.205 462.216C767.631 429.192 756.849 387.015 739.476 353.93C726.268 329.494 712.352 302.34 717.859 272.87C722.56 249.461 731.623 226.173 746.595 208.835C761.129 194.508 779.836 186.04 798.194 179.838C801.257 178.751 810.006 176.576 807.624 171.592C804.319 167.686 793.949 168.35 788.37 168.098Z" fill="#336A5D"/>
<path d="M488.351 306.381C445.081 316.963 404.783 282.498 362.346 281.834H361.862C344.848 281.834 327.681 287.986 313.129 298.004C305.473 303.33 297.753 309.421 291.7 316.771C283.73 326.538 286.873 330.011 298.703 325.833C346.531 304.125 377.444 319.147 424.636 331.874C437.254 335.297 450.525 337.995 463.465 336.092C475.331 334.512 487.921 328.31 495.64 318.463C503.986 307.609 497.405 305.011 488.351 306.381Z" fill="#336A5D"/>
<path d="M819.469 622.596C830.358 600.868 829.167 572.848 823.946 549.298C815.663 517.079 801.657 487.166 793.786 454.927C792.214 448.346 791.452 441.554 791.52 434.74C791.705 423.838 794.236 413.149 798.899 403.589C799.974 401.192 801.711 396.48 799.454 395.161C790.893 393.258 779.709 409.68 776.646 417.946C765.005 449.732 767.978 485.404 780.094 516.365C788.637 539.089 800.422 561.058 800.851 586.481V587.004C800.986 598.079 796.616 610.504 789.21 619.857C785.073 625.586 778.768 630.58 778.294 638.484C779.395 653.023 798.156 642.27 804.514 638.484C810.591 634.66 815.73 629.201 819.469 622.596Z" fill="#336A5D"/>
<path d="M661.792 760.467C658.326 774.623 657.315 789.222 655.9 803.761C655.64 806.248 655.676 809.631 657.395 811.131C660.198 813.397 662.992 810.346 664.926 807.104C683.893 775.217 707.14 749.432 737.059 733.051C747.187 727.06 758.989 723.768 769.637 718.563C788.38 708.806 805 689.032 807.606 665.251V664.767C807.955 657.246 805.546 654.548 798.982 656.088C788.774 658.183 778.914 660.387 768.867 662.603C714.188 671.241 676.039 698.094 661.792 760.467Z" fill="#336A5D"/>
<path d="M402.641 419.686C419.02 406.366 433.133 388.585 440.485 367.189C442.025 363.021 443.565 354.654 442.043 353.547L441.945 353.436C438.515 351.584 432.873 360.132 429.408 363.444C403.886 393.277 365.648 396.72 331.664 405.359C283.2 417.944 232.264 455.348 222.548 513.664C220.81 527.921 229.192 542.681 242.177 535.623C250.389 530.982 256.021 522.434 261.878 514.268C274.8 494.907 289.092 475.787 308.659 464.742C323.721 455.68 340.717 451.2 356.72 445.169C372.964 439.168 388.752 431.053 402.641 419.686Z" fill="#336A5D"/>
<path d="M920.464 252.729C896.716 268.506 868.248 258.891 842.789 266.916C831.694 269.835 817.572 277.91 816.434 292.308C815.136 306.796 829.759 316.533 841.293 316.472H841.741C872.331 313.13 901.023 289.288 922.604 265.577C926.992 260.422 932.356 255.579 935.625 249.578C939.789 238.533 923.625 251.078 920.464 252.729Z" fill="#336A5D"/>
<path d="M308.741 478.985C309.082 480.424 312.019 481.582 316.738 482.267C329.732 483.676 347.042 483.697 360.976 483.576C406.646 484.391 450.141 456.512 474.22 413.419C482.119 399.253 495.712 371.132 480.972 358.315C460.725 348.911 444.096 397.239 433.592 411.879C411.025 450.763 379.172 465.654 339.197 469.057C332.972 469.785 326.789 470.914 320.678 472.44C313.094 474.454 308.303 476.87 308.715 478.864L308.741 478.985Z" fill="#336A5D"/>
<path d="M613.157 263.054C614.213 259.832 614.625 256.932 613.909 255.322C609.073 248.767 597.056 267.011 593.635 271.431C572.152 301.274 557.913 337.198 557.322 376.575V377.099C557.43 431.468 594.038 473.966 643.747 476.01C653.069 476.645 660.69 472.325 650.284 463.374C593.868 425.185 583.122 346.048 606.199 281.318C608.276 275.166 611.097 269.105 613.157 263.054Z" fill="#336A5D"/>
<path d="M556.85 595.065C574.268 595.145 590.691 590.866 605.548 580.425C608.046 578.683 611.592 575.049 611.297 572.814C610.652 567.779 606.013 569.269 602.646 569.239C596.261 569.239 589.823 569.692 583.509 568.967C561.435 566.41 541.931 558.104 527.263 537.967C514.601 520.629 504.186 502.234 499.351 480.074C496.055 465.062 484.611 454.43 473.274 454.218C460.916 454.007 449.534 464.005 444.743 478.664C441.26 489.317 443.552 499.022 447.143 508.93C465.581 559.825 510.168 594.873 556.85 595.065Z" fill="#336A5D"/>
<path d="M702.823 145.173C691.754 150.208 681.787 158.413 673.218 167.636C639.027 205.563 617.912 256.761 618.144 310.939C617.831 337.661 627.834 362.378 633.672 387.791C637.98 403.77 636.699 420.926 641.562 436.673C655.128 476.896 688.351 444.778 690.339 416.103C694.996 366.768 650.588 346.923 655.415 278.267C657.958 244.145 669.044 211.504 685.62 182.718C692.654 171.365 700.524 160.695 709.145 150.822C710.533 149.301 712.61 146.492 712.503 145.254V145.002C711.831 142.294 707.121 143.462 702.823 145.173Z" fill="#336A5D"/>
<path d="M623.634 189.985C560.161 224.55 498.049 312.608 497.422 394.273V394.796C496.858 457.653 529.302 523.672 584.035 544.553C622.371 559.656 667.155 545.167 692.39 509.092C702.491 495.792 710.81 473.853 687.581 491.473C676.185 499.943 662.86 504.543 649.2 504.723C619.649 505.015 592.488 489.077 572.832 464.963C548.725 436.067 536.027 391.685 545.376 349.317C554.77 306.174 573.316 265.891 597.315 230.591C604.732 219.991 613.016 210.195 622.058 201.332C625.774 197.839 634.926 186.562 623.634 189.985Z" fill="#336A5D"/>
<path d="M540.736 725.606C552.109 720.441 557.804 706.879 566.535 697.807C583.442 680.187 608.337 679.553 628.531 668.951C669.133 649.761 705.23 606.779 709.914 556.256V555.783C709.609 545.644 705.866 547.516 704.397 555.722C700.815 578.165 686.998 596.821 671.73 610.957C652.154 629.332 626.901 636.128 602.776 642.955C571.846 651.956 533.572 659.96 517.91 695.36C509.483 715.87 520.91 734.093 540.736 725.606Z" fill="#336A5D"/>
<path d="M511.348 626.461L511.813 626.662C562.723 645.017 660.744 624.648 680.167 567.883C680.719 565.071 680.483 562.136 679.49 559.482C678.497 556.828 676.797 554.585 674.624 553.062C666.564 548.481 656.544 554.874 649.389 559.476C616.005 587.476 584.107 619.302 539.986 619.775C532.822 620.057 525.765 618.99 518.718 617.631C515.198 617.006 511.303 616.08 508.554 617.168C503.288 619.362 507.229 625.172 511.348 626.461Z" fill="#336A5D"/>
<path d="M893.509 843.533C891.843 812.421 880.246 782.78 867.432 755.253C863.402 746.705 857.519 736.476 848.25 735.69H847.838C845.912 735.522 843.98 735.92 842.231 736.845C840.482 737.77 838.978 739.19 837.864 740.965C836.751 742.741 836.067 744.812 835.88 746.974C835.693 749.136 836.009 751.316 836.797 753.3C840.065 762.815 847.883 769.812 853.695 777.464C867.36 794.359 878.223 813.237 884.581 834.662C885.861 839.485 892.049 855.363 893.509 843.533Z" fill="#336A5D"/>
<path d="M544.625 925.857C545.172 922.243 544.751 918.437 544.777 914.722C541.527 916.604 537.676 917.742 535.097 920.491C521.772 934.496 514.707 952.508 510.238 971.981C505.017 994.705 522.077 1062.6 534.506 1079.97H580.785C577.311 1075.1 574.248 1070.28 570.854 1065.35C542.163 1023.78 537.022 976.713 544.625 925.857Z" fill="#336A5D"/>
<path d="M492.613 1014.58C492.754 1012.4 492.526 1010.21 491.942 1008.13C489.855 998.782 481.858 995.883 473.835 1001.48C467.334 1005.91 462.434 1012.78 459.999 1020.87C453.588 1041.49 455.862 1061.15 466.268 1079.97H515.95C515.655 1079.21 489.73 1038.46 492.613 1014.58Z" fill="#336A5D"/>
<path d="M599.429 1003.08C598.041 982.693 602.115 963.734 614.93 948.038C615.058 947.873 615.166 947.69 615.252 947.494C616.39 944.876 614.035 942.007 611.482 942.46C611.205 942.46 610.918 942.57 610.641 942.641C609.96 942.812 609.414 943.648 608.796 944.191C573.871 973.772 563.331 1042.02 605.268 1079.93H652.971C620.106 1058.2 601.918 1039.75 599.429 1003.08Z" fill="#336A5D"/>
<path d="M299.329 1040.52C271.228 1044.46 243.951 1055.49 215.045 1052.9C214.624 1052.89 214.208 1053 213.845 1053.24C213.362 1053.54 212.953 1053.96 212.655 1054.48C212.357 1055 212.18 1055.6 212.139 1056.21C212.098 1056.83 212.195 1057.45 212.421 1058.01C212.647 1058.57 212.995 1059.06 213.433 1059.43C213.734 1059.72 214.101 1059.9 214.489 1059.96C223.507 1060.96 232.57 1062.05 241.596 1061.84C268.533 1061.25 295.496 1060.44 321.788 1068.29C330.671 1070.84 339.195 1074.77 347.113 1079.96H410.989C378.93 1051.15 332.776 1035.82 299.329 1040.52Z" fill="#336A5D"/>
<path d="M895.667 903.194V902.661C895.532 891.686 893.392 879.322 889.094 869.596C885.565 862.226 881.33 863.555 881.634 872.858C887.007 938.766 856.435 950.103 859.426 984.617C859.614 994.051 868.327 1012.15 871.828 993.588C873.351 975.405 883.837 960.161 888.932 943.246C893.025 930.373 895.297 916.859 895.667 903.194Z" fill="#336A5D"/>
<path d="M828.577 1004.25C819.622 992.417 808.777 982.358 798.246 972.209C791.772 965.967 783.533 965.161 775.751 968.756C772.644 970.206 769.295 974.102 768.48 977.596C767.862 980.274 770.405 984.906 772.715 987.171C777.336 991.732 782.96 995.004 787.823 999.253C811.293 1020.04 825.066 1047.58 832.024 1079.92H858.8C858.531 1077.11 858.486 1074.26 857.985 1071.51C853.418 1046.65 843.298 1023.5 828.577 1004.25Z" fill="#336A5D"/>
<path d="M714.303 1035.05C697.172 1035.69 681.062 1040.69 666.68 1051.52C665.059 1052.74 664.316 1055.41 663.152 1057.42C665.077 1057.82 667.137 1058.95 668.874 1058.49C687.885 1053.64 706.36 1056.04 723.983 1064.67C732.132 1068.69 739.448 1074.82 747.141 1080H812.413C776.683 1050.69 746.299 1033.82 714.303 1035.05Z" fill="#336A5D"/>
<path d="M0.583984 1048.67V1079.97H49.9528C39.0904 1061.44 22.0401 1049.23 0.583984 1048.67Z" fill="#336A5D"/>
<path d="M99.8823 976.774C100.156 976.47 100.361 976.097 100.482 975.686C100.682 974.991 100.72 974.25 100.593 973.534C100.467 972.817 100.179 972.149 99.7588 971.593C99.3382 971.036 98.7981 970.609 98.1897 970.353C97.5813 970.097 96.9248 970.02 96.2824 970.129C95.2759 970.219 94.3058 970.593 93.4616 971.216C63.7758 995.894 54.8119 1043.33 72.6771 1079.95H101.745C98.5749 1075.03 95.2347 1070.23 92.2526 1065.17C75.0412 1035.99 77.1187 999.488 99.8823 976.774Z" fill="#336A5D"/>
<path d="M55.664 995.628C42.5629 977.878 17.4442 976.438 0.752106 981.915C0.501367 992.709 0.60883 1006.08 0.60883 1017.71C14.9368 1018.72 25.826 1026.06 37.4317 1030.63C40.7003 1031.92 43.933 1034.28 47.3896 1034.06C59.0848 1033.33 63.1235 1023.28 62.0131 1012.49C61.3147 1006.32 59.118 1000.49 55.664 995.628Z" fill="#336A5D"/>
<path d="M155.162 1033.18C151.481 1028.6 149.359 1023.98 146.207 1019.6C145.952 1019.25 145.65 1018.93 145.311 1018.68C144.864 1018.35 144.357 1018.14 143.828 1018.06C143.299 1017.98 142.76 1018.03 142.252 1018.22C141.744 1018.4 141.279 1018.71 140.891 1019.12C140.503 1019.54 140.202 1020.04 140.01 1020.6C139.921 1020.9 139.876 1021.22 139.875 1021.54C140.064 1028.03 142.678 1057.88 152.359 1079.93H235.353C226.9 1077.4 168.54 1051.36 155.162 1033.18Z" fill="#336A5D"/>
<path d="M0.777832 138.95V161.806C14.7924 157.778 26.2189 149.723 36.7231 140.038C41.6304 135.517 45.9199 130.1 50.2093 124.804C50.4212 124.516 50.5576 124.168 50.6033 123.797C50.6645 123.252 50.614 122.698 50.4556 122.178C50.2972 121.658 50.0352 121.186 49.6896 120.797C49.3439 120.409 48.9238 120.114 48.4613 119.936C47.9989 119.758 47.5063 119.701 47.0213 119.77L46.3318 119.881C45.6602 120.012 45.1587 120.978 44.5408 121.441C16.8968 141.498 2.70315 138.578 0.777832 138.95Z" fill="#336A5D"/>
<path d="M224.096 965.26C234.842 959.048 243.072 936.202 227.535 931.108C216.458 928.822 206.204 937.058 195.62 939.545C183.236 943.504 170.083 943.213 157.847 938.709C152.582 937.38 143.69 930.917 139.114 934.763L138.961 935.004C137.609 937.622 140.036 941.74 141.737 944.177C160.946 970.103 197.796 982.9 224.096 965.26Z" fill="#336A5D"/>
<path d="M131.756 993.194C131.989 984.132 126.025 978.977 117.957 979.843C112.297 980.467 108.33 983.871 105.187 988.975C93.241 1008.3 92.3276 1029.67 96.8856 1051.53C98.9095 1061.31 103.154 1070.5 106.405 1079.97H130.825C128.344 1063.57 125.3 1035.86 128.828 1015.7C130.127 1008.26 131.559 1000.73 131.756 993.194Z" fill="#336A5D"/>
<path d="M135.285 963.764C131.754 958.346 127.801 953.292 123.473 948.661C101.981 926.662 76.0116 915.859 47.5885 911.64C33.4934 909.546 18.6729 905.478 0.762961 910.009C0.359987 922.806 0.664455 944.936 0.664455 958.448C49.7915 941.332 94.5395 945.872 129.321 970.077C129.944 970.454 130.647 970.632 131.353 970.59C131.976 970.597 132.593 970.454 133.163 970.171C133.732 969.888 134.241 969.471 134.656 968.949C135.071 968.426 135.381 967.81 135.567 967.142C135.753 966.473 135.809 965.768 135.732 965.073C135.684 964.601 135.53 964.151 135.285 963.764Z" fill="#336A5D"/>
<path d="M904.641 924.585L904.757 924.736C905.653 925.814 907.873 924.364 910.345 921.716C919.382 911.719 925.91 899.215 929.267 885.47C942.852 830.225 932.428 778.372 900.047 734.686C890.286 721.526 879.647 709.424 869.17 697.151C866.591 693.959 861.755 690.194 858.352 692.952C850.293 701.631 863.609 720.258 867.522 729.299C873.182 740.374 879.773 750.765 885.432 761.78C906.736 804.147 920.984 855.416 908.715 904.177C907.685 910.067 903.172 919.31 904.641 924.585Z" fill="#336A5D"/>
<path d="M0.617739 73.0864C0.617739 86.7391 0.510278 102.959 0.769972 115.736C10.9607 116.3 17.2382 113.904 22.8709 110.702C32.0945 105.436 33.1064 94.2602 26.1484 85.5309C19.5933 77.1943 11.0503 73.902 0.617739 73.0864Z" fill="#336A5D"/>
<path d="M289.63 962.291C281.902 956.955 282.17 981.874 282.036 986.727V987.321C282.511 1000.51 281.875 1019.7 293.678 1026.7C294.971 1027.35 296.391 1027.61 297.802 1027.47C299.212 1027.33 300.567 1026.78 301.737 1025.88C310.549 1016.74 302.633 1002.13 299.946 990.845C297.233 982.529 294.501 967.124 289.63 962.291Z" fill="#336A5D"/>
<path d="M830.286 981.536C843.038 991.483 852.136 976.441 850.175 961.802C849.486 954.573 847.274 947.706 844.31 940.96C799.239 843.538 677.908 831.799 610.056 906.053C601.334 915.497 592.961 925.807 586.532 937.376C583.594 942.853 582.197 947.001 582.797 948.129L582.842 948.219C583.532 949.367 586.424 947.152 590.624 942.803C594.528 938.775 599.14 933.238 603.788 928.626C648.24 885.141 709.197 882.312 760.93 911.742C775.774 919.676 789.313 930.386 800.968 943.417C811.767 954.391 818.698 971.608 830.286 981.536Z" fill="#336A5D"/>
<path d="M761.192 929.136C738.142 915.04 710.086 913.359 685.012 919.541C659.275 926.307 634.309 941.6 618.306 965.694C610.945 977.685 618.253 977.363 626.554 972.178C651.744 956.512 682.128 949.091 710.256 957.518C722.193 960.871 734.166 967.003 746.479 967.688H746.945C770.971 968.725 785.675 944.54 761.192 929.136Z" fill="#336A5D"/>
<path d="M0.591694 847.312C19.218 829.28 32.9013 808.609 43.495 785.533C47.6822 776.252 50.5383 766.286 51.9575 756.002C52.853 749.448 51.1605 741.655 48.6172 735.443C44.0323 724.267 31.8804 723.24 25.397 733.217C21.5222 739.448 18.2952 746.157 15.7793 753.213C11.9466 763.413 8.70491 783.922 0.412598 802.981C0.726022 815.919 0.591694 833.217 0.591694 847.312Z" fill="#336A5D"/>
<path d="M624.432 1008.08C612.718 1023.03 615.844 1048.97 635.84 1050.57C652.702 1050 664.317 1033.46 678.143 1024.74C701.982 1007.85 729.097 1004.26 756.535 1009.81C759.929 1010.26 767.693 1012.47 769.887 1009.94L769.986 1009.73C770.21 1005.14 763.538 1001.19 760.422 998.853C720.724 973.471 658.022 967.39 624.432 1008.08Z" fill="#336A5D"/>
<path d="M529.062 886.206C534.309 878.584 541.599 862.294 526.635 864.499C490.287 875.665 459.401 902.386 429.554 927.154C407.373 946.173 382.299 961.175 354.144 965.182C348.834 966.381 339.001 966.189 335.849 969.683L335.787 969.824C335.831 975.341 352.998 977.546 357.798 978.302C424.808 987.373 491.818 949.667 529.062 886.206Z" fill="#336A5D"/>
<path d="M382.548 1027.79H383.041C418.556 1026.02 451.466 1011.19 473.182 975.191C480.345 963.672 481.026 954.047 467.379 965.485C422.998 1001.65 350.874 1012.66 309.055 967.579C304.72 963.713 300.01 962.766 300.368 970.016C301.828 981.191 308.679 991.773 315.484 999.969C332.535 1019.93 357.609 1027.52 382.548 1027.79Z" fill="#336A5D"/>
<path d="M123.746 882.181C110.519 889.722 95.3317 890.568 81.0396 886.752C73.983 885.584 65.1624 879.945 58.4283 883.439C54.0493 887.869 59.8521 895.34 65.0728 900.384C75.1274 909.55 87.6195 914.671 100.561 914.933H101.045C116.752 915.285 134.178 908.197 140.662 890.769C142.059 886.53 143.348 880.016 139.82 876.945C135.477 873.955 128.25 879.895 123.746 882.181Z" fill="#336A5D"/>
<path d="M545.648 842.82C542.129 839.91 533.595 836.88 525.625 834.766C501.446 828.12 475.656 823.831 451.299 831.503C405.682 846.908 375.871 894.078 332.52 914.578C316.708 922.27 299.689 926.334 282.461 926.529C274.733 926.74 266.737 925.592 258.991 925.28C253.618 925.109 249.973 925.673 249.247 927.294C247.206 929.308 256.026 935.792 261.176 938.279C293.467 954.388 331.409 958.566 364.811 944.722C426.69 919.632 456.242 846.475 528.526 850.311H529.028C536.783 850.17 553.341 849.516 545.648 842.82Z" fill="#336A5D"/>
<path d="M150.515 830.053C148.088 822.351 132.005 832.067 126.193 832.067C90.7583 838.108 51.7863 832.862 20.1484 855.053C14.4351 859.211 6.57261 863.933 3.58165 870.659L3.48315 870.941C2.22945 879.167 16.8619 870.83 20.8558 869.229C25.4271 867.208 30.1117 865.526 34.8793 864.195C47.8456 860.733 61.3022 860.267 74.4334 862.826C86.442 864.839 98.791 870.357 110.71 868.978C121.76 868.021 131.486 860.923 138.856 851.861C143.226 846.213 151.357 837.313 150.515 830.053Z" fill="#336A5D"/>
<path d="M26.1351 880.317C19.5442 881.898 7.89379 885.069 0.765625 887.113V899.91C16.0876 895.883 25.6963 896.305 37.7676 895.933C39.8541 895.873 43.0689 893.919 43.5973 892.006C44.251 889.731 43.2928 885.965 41.8063 884.022C37.6333 878.545 31.6693 878.978 26.1351 880.317Z" fill="#336A5D"/>
<path d="M200.683 1011.45C210.211 1011.67 220.446 1010.25 228.273 1003.5C235.115 997.98 237.658 986.24 229.168 981.72C226.312 980.089 222.004 980.048 218.79 980.562C201.345 983.139 183.041 989.352 167.075 980.3C163.985 978.89 154.072 971.118 153.768 978.548C154.036 981.82 156.114 984.791 157.896 987.308C168.713 1001.4 183.803 1010.56 200.28 1011.42L200.683 1011.45Z" fill="#336A5D"/>
<path d="M205.629 1047.03H206.095C227.963 1046.45 246.768 1032.05 261.24 1013.49C264.266 1009.41 268.072 1004.28 268.538 998.998C267.642 989.342 251.989 1006 248.192 1007.7C241.736 1012.05 234.774 1015.38 227.506 1017.58C206.131 1024.22 189.895 1021.49 170.552 1010.73C161.49 1007.22 160.559 1015.61 164.15 1022.5C171.958 1037.78 189.689 1047.23 205.629 1047.03Z" fill="#336A5D"/>
<path d="M32.2577 37.2075C37.371 49.0177 39.3322 61.4824 36.8875 74.5814C35.4905 82.0722 37.783 87.6702 43.0843 90.3585C47.9916 92.8353 53.8303 91.2042 57.063 84.8612C60.0898 78.951 67.4866 55.9347 55.6123 12.3689C54.493 8.21063 49.9528 0.0854492 49.9528 0.0854492H0.583984C0.583984 2.7435 0.798909 11.0398 0.798909 16.9097C15.4761 16.2251 26.0699 22.85 32.2577 37.2075Z" fill="#336A5D"/>
<path d="M687.861 19.4133C688.154 19.3455 688.436 19.223 688.693 19.0508C689.3 18.629 689.79 18.0266 690.111 17.3105C690.431 16.5944 690.569 15.7924 690.508 14.9937C690.448 14.1949 690.192 13.4306 689.769 12.7853C689.346 12.1401 688.772 11.6393 688.111 11.3384C687.825 11.2115 687.523 11.1368 687.216 11.1169C676.846 11.0364 658.345 2.12586 653.008 0.162526C639.038 -0.0489096 619.274 0.0920476 605.305 0.0618425C626.725 19.4233 669.234 23.642 687.861 19.4133Z" fill="#336A5D"/>
<path d="M827.128 38.382C827.686 38.5911 828.277 38.6588 828.861 38.5801C829.444 38.5014 830.005 38.2784 830.502 37.9269C831 37.5755 831.422 37.1045 831.738 36.5477C832.054 35.991 832.257 35.3623 832.331 34.707C832.449 34.0022 832.393 33.2746 832.17 32.6028C827.46 20.2186 813.705 0.1121 812.236 0.102031C788.855 0.0214844 770.542 0.0214844 747.143 0.0214844C788.721 26.3201 799.771 14.53 826.287 37.8484C826.539 38.0774 826.823 38.2578 827.128 38.382Z" fill="#336A5D"/>
<path d="M695.012 59.0744C704.834 65.9449 716.158 69.6152 727.725 69.6764H728.226C746.136 69.8879 764.494 60.5343 774.989 43.9719C778.133 39.431 780.918 31.1448 778.813 28.2853C771.524 18.2975 746.02 55.6109 703.242 46.8514C689.639 43.8813 680.299 47.224 695.012 59.0744Z" fill="#336A5D"/>
<path d="M602.133 62.6293C607.604 64.4517 613.533 64.8142 619.282 65.2572C620.732 65.378 622.935 63.5456 623.634 61.9648C624.09 60.958 622.738 58.4409 621.699 57.132C620.428 55.5613 618.583 54.5746 617.034 53.2859C600.727 39.6634 598.793 31.9007 580.784 0.0644531H534.505C535.329 1.86669 573.862 53.155 602.133 62.6293Z" fill="#336A5D"/>
<path d="M928.761 94.6597C938.137 102.11 948.094 112.783 959.655 115.461V115.763C969.846 116.327 976.124 113.931 981.765 110.729C990.98 105.463 991.992 94.2872 985.034 85.5579C978.819 77.7247 970.804 74.3518 961.097 73.3349V73.1838C941.325 72.318 909.158 31.1383 901.403 0.167969H876.213C876.41 1.79905 880.789 45.1837 928.761 94.6597Z" fill="#336A5D"/>
<path d="M0.644181 405.934C0.644181 408.713 0.72478 413.797 0.72478 417.079C10.235 433.189 25.8524 465.669 47.3623 483.631C54.246 489.342 62.3486 492.909 70.8512 493.972C82.3136 495.582 94.3491 489.441 98.934 479.765C102.579 472.083 100.806 462.911 95.0834 458.974C52.9412 429.927 23.551 389.422 9.25887 335.948C0.966563 304.918 -0.905026 273.373 8.88276 242.212C12.4021 231.026 17.8377 220.605 22.0734 209.671C22.3641 208.695 22.3952 207.645 22.163 206.65C22.0914 206.178 21.9293 205.729 21.688 205.335C21.4468 204.94 21.1321 204.609 20.7658 204.365C20.3995 204.121 19.9904 203.969 19.5667 203.92C19.1431 203.872 18.7151 203.927 18.3124 204.083C17.5658 204.33 16.8877 204.788 16.3423 205.412C14.3363 207.989 4.64706 218.128 0.72478 227.492C-0.824431 253.962 0.590456 300.92 0.59941 327.491C0.59941 353.649 0.572541 379.796 0.644181 405.934Z" fill="#336A5D"/>
<path d="M872.181 58.602H872.244C875.593 60.0116 878.862 56.2963 877.868 52.4301C877.787 52.1079 877.706 51.7958 877.608 51.4232C877.095 50.0129 876.397 48.6963 875.539 47.5167C866.531 33.6425 858.328 18.6205 858.695 0.0644531H832.09C831.857 20.7248 853.224 50.215 872.181 58.602Z" fill="#336A5D"/>
<path d="M36.931 160.996C37.0637 160.834 37.1563 160.636 37.1997 160.422C37.289 159.953 37.278 159.468 37.1674 159.005C37.0569 158.542 36.8501 158.116 36.564 157.761C36.2779 157.406 35.9208 157.132 35.5222 156.963C35.1236 156.794 34.6948 156.733 34.2714 156.787C33.8632 156.805 33.4619 156.911 33.0894 157.099C25.7642 160.915 18.8868 165.939 11.2482 168.879C7.80916 170.35 4.29564 171.591 0.726074 172.594V192.208C15.1436 185.734 26.5433 172.685 36.931 160.996Z" fill="#336A5D"/>
<path d="M625.076 90.5599C625.218 90.552 625.36 90.5249 625.497 90.4793C628.049 89.7947 628.792 85.5358 626.482 84.1161C625.042 83.4212 623.541 82.8981 622.004 82.5555C576.334 74.5914 530.296 24.5315 516.013 0.0854492H466.313C467.567 2.97507 468.794 4.89813 469.716 6.67017C504.873 74.0075 570.835 95.6645 625.076 90.5599Z" fill="#336A5D"/>
<path d="M936.632 47.4133C938.239 48.6128 940.166 49.1499 942.086 48.9337C942.838 48.8028 943.769 45.6514 943.581 44.0102C941.844 29.0889 949.044 18.5674 961.061 16.9162C975.004 16.7249 985.123 23.3499 991.132 37.2443C996.245 49.0545 998.206 61.5191 995.771 74.6181C994.365 82.1089 996.666 87.707 1001.96 90.3952C1006.87 92.872 1012.7 91.241 1015.94 84.8979C1018.96 78.9878 1026.36 55.9714 1014.49 12.4056C1013.35 8.23728 1008.8 0.1121 1008.8 0.1121H961.097V0.0214844H922.85C922.85 6.12292 922.394 11.3383 922.94 16.4329C924.22 28.3035 926.978 39.6707 936.632 47.4133Z" fill="#336A5D"/>
<path d="M174.802 21.8435C197.682 35.5667 222.263 39.6343 247.848 37.1877C266.16 35.4257 283.614 30.1398 299.186 18.6518L299.267 18.5914C302.67 15.9837 300.557 9.69094 296.482 10.285H296.428C275.832 13.6982 236.788 0.830768 235.203 0.095777C208.902 0.0252983 179.951 0.095777 151.922 0.095777C157.995 9.18952 165.816 16.6237 174.802 21.8435Z" fill="#336A5D"/>
<path d="M18.2342 338.161C29.7414 388.412 59.1764 430.618 103.244 451.682C109.772 454.45 118.297 459.434 124.843 457.864L125.112 457.753C136.601 451.087 108.572 414.841 103.324 407.149C87.9308 385.794 72.7611 363.744 59.0062 340.829C39.0456 305.096 23.249 263.504 32.9562 220.804C33.798 217.26 35.6427 206.416 32.4279 206.859C29.9563 207.171 26.3206 213.907 25.0848 217.632C10.6314 256.033 8.16882 296.8 18.2342 338.161Z" fill="#336A5D"/>
<path d="M203.376 54.8435C199.006 52.3667 194.699 49.5878 190.338 47.111C187.454 45.5202 184.006 44.171 182.09 45.2282C178.795 47.1714 181.777 52.7493 183.639 55.4778C203.707 84.4143 229.408 101.42 257.84 102.88H258.315C339.313 105.336 351.805 -2.99933 329.623 23.1784C300.636 71.5067 248.563 81.575 203.376 54.8435Z" fill="#336A5D"/>
<path d="M48.8949 228.235C48.5546 237.749 49.271 247.365 49.8889 256.849C49.9051 257.056 49.9473 257.26 50.0143 257.453C50.9098 260.071 54.2589 259.94 55.4768 257.514C55.638 257.181 55.7992 256.859 55.9335 256.507C56.3007 255.621 55.9335 254.362 55.9335 253.275C55.9335 235.967 57.223 218.68 62.6587 202.5C68.9988 183.612 74.3002 163.757 84.1507 146.892C109.583 103.437 111.956 21.9036 101.747 0.0854492H72.6793C77.0404 10.0632 80.7388 18.279 82.0283 27.0586C86.9715 61.3414 83.5954 94.6275 72.4465 127.088C61.217 159.78 50.1665 192.633 48.8949 228.235Z" fill="#336A5D"/>
<path d="M128.632 61.0898C130.561 65.5566 133.602 69.2982 137.385 71.861C141.168 74.4237 145.531 75.6974 149.945 75.5278C156.795 75.4473 159.795 70.3728 157.333 63.2645C156.32 60.4443 155.006 57.7733 153.419 55.3105C143.3 39.4427 130.96 5.19012 130.826 0.0854492H106.406C108.51 8.52275 109.406 12.1675 111.259 17.2017C116.65 32.0526 122.122 46.8833 128.632 61.0898Z" fill="#336A5D"/>
<path d="M415.962 159.79C413.276 162.811 409.837 165.066 408.503 168.801C407.41 172.285 410.294 174.027 413.526 173.08C424.711 169.899 433.997 161.582 444.099 155.592C458.225 147.026 470.872 135.684 481.441 122.104C491.363 110.365 497.9 95.5439 497.649 78.8102V78.3068C498.814 41.8794 453.009 28.1461 449.919 70.4937C452.015 104.485 437.588 136.774 415.962 159.79Z" fill="#336A5D"/>
<path d="M411.321 112.223C411.357 112.485 411.405 112.743 411.464 112.999C411.669 113.974 412.125 114.86 412.776 115.545C413.427 116.23 414.244 116.683 415.123 116.848C416.003 117.012 416.906 116.881 417.719 116.47C418.532 116.059 419.219 115.388 419.694 114.539C419.956 114.087 420.161 113.595 420.303 113.079C423.231 101.863 426.473 90.5664 427.807 79.028C430.834 52.6791 435.678 35.734 414.375 4.52205C413.431 2.87879 412.292 1.38829 410.99 0.091963L347.114 0.0214844C355.657 6.62634 363.43 12.0029 370.755 18.9702C396.214 43.3155 406.763 76.1485 411.321 112.223Z" fill="#336A5D"/>
<path d="M1504.53 842.82C1501.01 839.91 1492.47 836.88 1484.5 834.766C1460.33 828.12 1434.54 823.831 1410.18 831.503C1364.59 846.918 1334.78 894.038 1291.43 914.588C1275.61 922.281 1258.59 926.345 1241.37 926.539C1233.64 926.75 1225.64 925.602 1217.9 925.29C1212.52 925.119 1208.88 925.683 1208.15 927.304C1206.12 929.318 1214.93 935.802 1220.08 938.289C1252.37 954.398 1290.32 958.576 1323.73 944.732C1385.6 919.642 1415.15 846.485 1487.44 850.321H1487.93C1495.67 850.17 1512.22 849.516 1504.53 842.82Z" fill="#336A5D"/>
<path d="M1487.95 886.206C1493.19 878.584 1500.49 862.294 1485.52 864.499C1449.17 875.665 1418.28 902.386 1388.43 927.154C1366.25 946.173 1341.19 961.175 1313.03 965.182C1307.71 966.381 1297.88 966.189 1294.73 969.683L1294.67 969.824C1294.67 975.341 1311.88 977.546 1316.68 978.302C1383.7 987.373 1450.73 949.667 1487.95 886.206Z" fill="#336A5D"/>
<path d="M1248.51 962.291C1240.79 956.955 1241.05 981.874 1240.92 986.727V987.321C1241.39 1000.51 1240.76 1019.7 1252.56 1026.7C1253.85 1027.35 1255.27 1027.61 1256.68 1027.47C1258.09 1027.33 1259.45 1026.78 1260.62 1025.88C1269.44 1016.74 1261.51 1002.13 1258.83 990.845C1256.11 982.529 1253.38 967.124 1248.51 962.291Z" fill="#336A5D"/>
<path d="M1109.41 830.053C1106.97 822.351 1090.89 832.067 1085.08 832.067C1049.65 838.108 1010.67 832.862 979.039 855.053C973.317 859.211 965.455 863.933 962.464 870.659L962.365 870.941C961.112 879.167 975.798 870.83 979.738 869.229C984.309 867.208 988.994 865.526 993.761 864.195C1006.73 860.733 1020.18 860.267 1033.32 862.826C1045.32 864.839 1057.68 870.357 1069.59 868.978C1080.65 868.021 1090.37 860.923 1097.74 851.861C1102.11 846.213 1110.2 837.313 1109.41 830.053Z" fill="#336A5D"/>
<path d="M1164.5 1047.03H1164.97C1186.84 1046.45 1205.64 1032.05 1220.12 1013.49C1223.14 1009.41 1226.95 1004.28 1227.41 998.998C1226.52 989.342 1210.86 1006 1207.08 1007.7C1200.62 1012.05 1193.65 1015.38 1186.38 1017.58C1165.01 1024.22 1148.77 1021.49 1129.43 1010.73C1120.37 1007.22 1119.43 1015.61 1123.03 1022.5C1130.81 1037.78 1148.56 1047.23 1164.5 1047.03Z" fill="#336A5D"/>
<path d="M1159.56 1011.45C1169.09 1011.67 1179.33 1010.25 1187.15 1003.5C1194 997.98 1196.54 986.24 1188.05 981.72C1185.19 980.089 1180.89 980.048 1177.67 980.562C1160.23 983.139 1141.92 989.352 1125.96 980.3C1122.87 978.89 1112.95 971.118 1112.65 978.548C1112.92 981.82 1115 984.791 1116.78 987.308C1127.59 1001.4 1142.69 1010.56 1159.16 1011.42L1159.56 1011.45Z" fill="#336A5D"/>
<path d="M1806.72 735.669C1804.79 735.501 1802.86 735.899 1801.11 736.824C1799.36 737.749 1797.86 739.169 1796.75 740.944C1795.63 742.72 1794.95 744.791 1794.76 746.953C1794.57 749.115 1794.89 751.295 1795.68 753.279C1798.95 762.794 1806.76 769.791 1812.59 777.443C1826.24 794.338 1837.1 813.216 1843.47 834.641C1844.74 839.484 1850.94 855.362 1852.43 843.532C1850.76 812.421 1839.16 782.779 1826.36 755.252C1822.32 746.704 1816.44 736.475 1807.18 735.689L1806.72 735.669Z" fill="#336A5D"/>
<path d="M1863.55 924.585L1863.66 924.736C1864.56 925.814 1866.78 924.364 1869.25 921.716C1878.3 911.725 1884.82 899.219 1888.17 885.47C1901.76 830.225 1891.34 778.372 1858.96 734.686C1849.2 721.526 1838.55 709.424 1828.09 697.151C1825.51 693.959 1820.67 690.194 1817.26 692.952C1809.2 701.631 1822.53 720.258 1826.43 729.299C1832.09 740.374 1838.68 750.765 1844.34 761.78C1865.64 804.147 1879.89 855.416 1867.62 904.177C1866.57 910.067 1862.06 919.31 1863.55 924.585Z" fill="#336A5D"/>
<path d="M1831.07 58.608H1831.12C1834.47 60.0176 1837.74 56.3024 1836.76 52.4361C1836.68 52.1139 1836.59 51.8018 1836.49 51.4293C1835.98 50.0172 1835.28 48.7001 1834.42 47.5227C1825.41 33.578 1817.22 18.556 1817.58 0H1791.01C1790.74 20.7308 1812.1 50.2211 1831.07 58.608Z" fill="#336A5D"/>
<path d="M1789.22 981.536C1801.96 991.483 1811.06 976.441 1809.1 961.802C1808.41 954.573 1806.2 947.706 1803.24 940.96C1758.17 843.538 1636.79 831.799 1568.99 906.053C1560.26 915.497 1551.9 925.807 1545.47 937.376C1542.52 942.853 1541.12 947.001 1541.73 948.129V948.219C1542.42 949.367 1545.31 947.152 1549.52 942.803C1553.42 938.775 1558.03 933.238 1562.68 928.626C1607.14 885.141 1668.1 882.312 1719.83 911.742C1734.67 919.677 1748.2 930.387 1759.85 943.417C1770.65 954.391 1777.58 971.608 1789.22 981.536Z" fill="#336A5D"/>
<path d="M1341.47 1027.79H1341.97C1377.49 1026.02 1410.39 1011.19 1432.12 975.191C1439.28 963.672 1439.95 954.047 1426.3 965.485C1381.92 1001.65 1309.8 1012.66 1267.99 967.579C1263.65 963.713 1258.94 962.766 1259.29 970.016C1260.75 981.191 1267.6 991.773 1274.41 999.969C1291.42 1019.93 1316.49 1027.52 1341.47 1027.79Z" fill="#336A5D"/>
<path d="M1720.07 929.136C1697.03 915.04 1668.98 913.359 1643.89 919.541C1618.16 926.307 1593.2 941.6 1577.2 965.694C1569.83 977.685 1577.14 977.363 1585.44 972.178C1610.63 956.502 1641.01 949.091 1669.14 957.539C1681.07 960.891 1693.05 967.023 1705.37 967.708H1705.83C1729.85 968.725 1744.57 944.54 1720.07 929.136Z" fill="#336A5D"/>
<path d="M1583.31 1008.08C1571.61 1023.03 1574.72 1048.97 1594.72 1050.57C1611.58 1050 1623.2 1033.46 1637.02 1024.74C1660.86 1007.85 1687.98 1004.26 1715.42 1009.81C1718.82 1010.26 1726.57 1012.47 1728.77 1009.94L1728.87 1009.73C1729.09 1005.14 1722.42 1001.19 1719.3 998.853C1679.6 973.471 1616.9 967.39 1583.31 1008.08Z" fill="#336A5D"/>
<path d="M1082.68 882.181C1069.45 889.722 1054.27 890.568 1039.98 886.752C1032.91 885.584 1024.09 879.945 1017.36 883.439C1012.98 887.869 1018.79 895.34 1024.01 900.384C1034.06 909.551 1046.55 914.672 1059.49 914.933H1059.98C1075.69 915.285 1093.11 908.197 1099.59 890.769C1100.99 886.53 1102.32 880.016 1098.75 876.945C1094.36 873.955 1087.16 879.895 1082.68 882.181Z" fill="#336A5D"/>
<path d="M1792.99 519.156C1803.36 516.246 1809.95 473.174 1810.75 461.675C1812.79 405.474 1820.6 364.506 1853.28 319.953C1859.99 312.19 1862.37 302.182 1850.18 309.885C1806.87 337.311 1775.65 385.518 1775.34 441.599V442.133C1775.47 466.871 1779.19 490.612 1786.19 510.99C1787.43 514.323 1789.22 519.548 1792.99 519.156Z" fill="#336A5D"/>
<path d="M1713.63 767.038C1695.66 781.496 1674.82 790.89 1655.46 802.992C1638.8 813.978 1623.5 827.394 1609.96 842.893C1606.44 847.393 1599.89 853.424 1598.89 858.932V859.113C1599.03 859.959 1599.89 860.12 1601.28 859.465C1604.49 857.985 1607.67 854.774 1610.51 852.226C1621.05 842.437 1632.99 834.726 1645.83 829.421C1660.95 822.796 1677.69 821.085 1693.29 816.332C1721.52 807.905 1746.42 793.246 1767.41 768.488C1788.23 744.021 1804.69 715.004 1802.26 679.191C1801.59 668.478 1799.58 658.048 1797.7 647.566C1794.78 630.752 1789.82 634.538 1787.93 648.382C1778.68 697.516 1749.61 739.189 1713.63 767.038Z" fill="#336A5D"/>
<path d="M1358.08 825.622C1355.4 831.391 1356.23 835.237 1361.59 830.888C1391.54 794.329 1401.49 743.293 1402.25 694.26V693.726C1402.66 610.34 1357.06 499.175 1271 507.461C1234.13 510.965 1198.3 545.409 1193.38 587.696C1191.59 603.806 1194.16 620.237 1201.48 634.071C1203.85 638.823 1209.65 645.831 1213.26 641.341C1216.24 637.635 1216.68 632.138 1217.73 627.416C1220.65 611.639 1225.3 595.972 1234.11 582.692C1263.76 537.727 1312.02 566.029 1335.62 602.748C1364.71 644.895 1378.81 697.391 1378.28 750.592C1378.55 777.646 1371.92 803.331 1358.08 825.622Z" fill="#336A5D"/>
<path d="M1705.48 208.875C1720.01 194.548 1738.72 186.081 1757.08 179.878C1760.14 178.791 1768.89 176.616 1766.5 171.632C1763.21 167.686 1752.84 168.35 1747.26 168.098H1746.81C1681.44 167.847 1639.35 232.153 1641.62 300.075C1642.26 357.626 1707.71 408.813 1684.33 465.025C1681.48 470.885 1678.96 482.212 1688.53 478.376C1694.72 475.013 1698.91 468.136 1703.09 462.216C1726.51 429.192 1715.73 387.015 1698.36 353.93C1685.13 329.494 1671.23 302.34 1676.74 272.91C1681.44 249.501 1690.51 226.213 1705.48 208.875Z" fill="#336A5D"/>
<path d="M980.957 209.671C981.252 208.696 981.283 207.645 981.047 206.65C980.975 206.178 980.813 205.729 980.572 205.335C980.33 204.94 980.016 204.609 979.649 204.365C979.283 204.121 978.874 203.969 978.45 203.92C978.027 203.872 977.599 203.927 977.196 204.083C976.447 204.326 975.766 204.78 975.217 205.402C973.22 207.979 963.575 218.118 959.608 227.482C959.555 228.348 959.51 229.224 959.465 230.12C958.424 231.647 957.524 233.29 956.779 235.023C942.934 270.766 939.621 308.431 941.036 346.873C941.833 368.509 945.513 382.605 953.376 402.178C955.245 406.436 957.308 410.582 959.555 414.603C959.555 415.478 959.555 416.324 959.555 417.059C969.065 433.169 984.629 465.649 1006.18 483.611C1013.07 489.323 1021.18 492.889 1029.68 493.951C1041.14 495.562 1053.17 489.421 1057.76 479.745C1061.4 472.063 1059.63 462.89 1053.91 458.954C1011.76 429.896 982.381 389.401 968.089 335.928C959.787 304.898 957.916 273.353 967.704 242.192C971.286 231.026 976.73 220.605 980.957 209.671Z" fill="#336A5D"/>
<path d="M1003.48 579.457C990.198 584.371 977.975 580.122 965.868 574.423C964.39 573.728 962.832 572.812 961.112 572.047V571.383C949.095 566.016 941.411 557.216 937.14 545.366C935.192 540.352 932.551 535.717 929.313 531.633C921.46 521.373 908.502 522.37 902.162 533.646C899.768 537.751 898.15 542.366 897.409 547.203C896.668 552.041 896.819 556.998 897.854 561.767C903.326 588.428 930.728 608.515 959.769 612.905V613.136C974.993 613.569 987.171 607.286 997.962 597.087C1001.42 593.632 1004.56 589.797 1007.34 585.639C1009.56 582.407 1008.73 576.638 1003.48 579.457Z" fill="#336A5D"/>
<path d="M1008.65 829.373C1017.85 826.584 1027.46 827.017 1036.91 827.419C1056.61 828.839 1075.77 824.852 1092.25 812.458C1120.53 790.962 1087.77 784.266 1069.54 783.048H1069.05C1042.29 781.759 999.266 802.178 989.46 831.376C989.003 839.582 1004.7 829.785 1008.65 829.373Z" fill="#336A5D"/>
<path d="M1051.42 156.176L1051.33 156.065C1046.79 155.914 1041.62 180.39 1039.69 185.757C1033.23 209.78 1025.15 234.004 1025.43 259.397C1025.64 270.875 1028.18 283.994 1036.45 291.394C1047.93 301.553 1057.26 289.642 1057.51 275.98C1058.08 266.415 1056.31 256.85 1054.83 247.426C1050.57 223.262 1048.49 199.097 1051.08 174.672C1051.42 169.698 1053.18 159.649 1051.42 156.176Z" fill="#336A5D"/>
<path d="M991.835 220.804C992.731 217.26 994.522 206.416 991.307 206.859C988.835 207.171 985.199 213.907 983.964 217.632C969.51 256.033 967.048 296.8 977.113 338.161C988.62 388.412 1018.06 430.618 1062.12 451.682C1068.66 454.45 1077.18 459.434 1083.72 457.864L1083.99 457.753C1095.48 451.067 1067.45 414.861 1062.2 407.149C1046.82 385.794 1031.64 363.744 1017.89 340.829C997.925 305.096 982.128 263.504 991.835 220.804Z" fill="#336A5D"/>
<path d="M1086.5 123.866C1084.07 116.033 1077.1 123.705 1075.07 127.974C1037.18 188.223 1100.26 273.472 1157.14 239.964C1162.27 237.266 1181.94 219.958 1168.71 216.958C1125.33 212.256 1088.59 183.944 1086.95 133.642V133.179C1086.87 130.088 1087.23 126.886 1086.5 123.866Z" fill="#336A5D"/>
<path d="M1660.27 87.0712L1660.69 87.0108C1664.23 86.7289 1669.17 83.9903 1667.65 81.3524C1664.23 76.4793 1655.11 75.3114 1649.97 72.1902C1631.54 63.1286 1621.58 41.8139 1606.9 27.396C1599.64 19.3413 1585.84 17.4887 1582.86 30.8796C1581.07 40.354 1585.81 50.1404 1590.7 57.6414C1606.22 80.9094 1635.46 87.3431 1660.27 87.0712Z" fill="#336A5D"/>
<path d="M1484.17 202.957C1473.79 209.669 1462.49 214.363 1450.73 216.841C1447.67 217.677 1443.56 218.351 1441.54 220.868C1439.36 226.255 1452.93 225.218 1456.76 225.299H1457.22C1498.35 224.402 1540.92 211.948 1571.64 180.535C1606.81 139.254 1644.95 118.111 1695.48 110.298C1708.01 106.683 1704.02 101.488 1694.33 101.458C1625.26 102.031 1556.03 130.716 1505.83 184.099C1499.24 191.237 1492.03 197.933 1484.17 202.957Z" fill="#336A5D"/>
<path d="M1447.24 306.381C1403.93 316.963 1363.69 282.498 1321.23 281.834H1320.75C1303.73 281.834 1286.56 287.986 1272.01 298.004C1264.36 303.33 1256.64 309.421 1250.58 316.771C1242.62 326.538 1245.77 330.011 1257.59 325.833C1305.41 304.125 1336.34 319.147 1383.52 331.874C1396.14 335.297 1409.42 337.995 1422.36 336.092C1434.21 334.512 1446.8 328.31 1454.52 318.463C1462.88 307.609 1456.29 305.011 1447.24 306.381Z" fill="#336A5D"/>
<path d="M1090.64 993.194C1090.87 984.132 1084.91 978.977 1076.84 979.843C1071.19 980.467 1067.21 983.871 1064.07 988.975C1052.13 1008.3 1051.21 1029.67 1055.77 1051.53C1057.8 1061.31 1062.04 1070.5 1065.29 1079.97H1089.72C1087.23 1063.57 1084.19 1035.86 1087.71 1015.7C1089.02 1008.26 1090.45 1000.73 1090.64 993.194Z" fill="#336A5D"/>
<path d="M1058.77 976.775C1059.04 976.475 1059.25 976.101 1059.37 975.688C1059.57 974.992 1059.61 974.25 1059.49 973.532C1059.36 972.815 1059.07 972.146 1058.65 971.589C1058.23 971.032 1057.69 970.606 1057.08 970.35C1056.47 970.095 1055.81 970.019 1055.17 970.13C1054.16 970.221 1053.19 970.595 1052.34 971.218C1022.66 995.895 1013.69 1043.33 1031.57 1079.96H1060.64C1057.46 1075.03 1054.12 1070.23 1051.14 1065.18C1033.93 1035.99 1036.01 999.49 1058.77 976.775Z" fill="#336A5D"/>
<path d="M1094.16 963.764C1090.63 958.348 1086.68 953.294 1082.36 948.661C1060.87 926.662 1034.85 915.859 1006.47 911.64C992.381 909.546 977.552 905.478 959.642 910.009C959.642 910.16 959.642 910.331 959.642 910.492C905.912 928.253 861.8 1014.77 876.217 1079.98H901.426C903.897 1016.96 921.18 978.544 955.156 960.864C957.072 959.857 959.123 959.203 961.102 958.387V957.934C1009.63 941.432 1053.79 946.124 1088.21 970.077C1088.83 970.452 1089.53 970.63 1090.24 970.59C1090.86 970.599 1091.48 970.457 1092.05 970.174C1092.62 969.892 1093.13 969.475 1093.55 968.952C1093.96 968.429 1094.27 967.812 1094.46 967.143C1094.64 966.474 1094.7 965.768 1094.62 965.073C1094.57 964.599 1094.42 964.148 1094.16 963.764Z" fill="#336A5D"/>
<path d="M1014.55 995.628C1001.45 977.878 976.326 976.438 959.634 981.915C959.634 982.066 959.634 982.227 959.634 982.379C940.828 988.581 928.945 1004.63 920.232 1025.14C920.168 1025.3 920.111 1025.46 920.062 1025.63C918.987 1029.44 922.99 1032.68 925.963 1030.51L926.124 1030.37C936.333 1022.17 947.348 1017.63 959.491 1017.63V1017.71C973.819 1018.72 984.699 1026.06 996.305 1030.63C999.582 1031.92 1002.81 1034.28 1006.27 1034.06C1017.91 1033.33 1022 1023.28 1020.89 1012.49C1020.2 1006.32 1018 1000.49 1014.55 995.628Z" fill="#336A5D"/>
<path d="M961.097 1048.73V1048.66C952.912 1048.4 946.16 1051.68 939.426 1055.56C930.767 1060.51 922.985 1064.96 922.859 1079.83C935.101 1079.83 947.235 1079.95 959.476 1079.96H1008.84C998.251 1061.9 981.792 1049.85 961.097 1048.73Z" fill="#336A5D"/>
<path d="M1007.78 228.234C1007.43 237.749 1008.16 247.364 1008.77 256.848C1008.79 257.055 1008.83 257.257 1008.89 257.452C1009.79 260.07 1013.14 259.939 1014.37 257.513C1014.53 257.181 1014.68 256.858 1014.81 256.506C1015.18 255.62 1014.81 254.361 1014.81 253.274C1014.81 235.967 1016.1 218.679 1021.54 202.499C1027.88 183.611 1033.18 163.756 1043.03 146.892C1068.47 103.416 1070.79 21.8826 1060.65 0.0644531H1031.58C1035.93 10.0422 1039.64 18.258 1040.92 27.0376C1045.86 61.3205 1042.48 94.6065 1031.34 127.067C1020.1 159.779 1009.04 192.632 1007.78 228.234Z" fill="#336A5D"/>
<path d="M1049.71 579.224C1050.39 580.331 1053.29 580.794 1053.94 580.583C1061.37 578.146 1050.13 558.261 1045.78 551.032C1035.18 533.476 1020.48 519.542 1003.3 510.759C988.137 502.845 974.642 492.022 961.093 479.114V477.765C953.634 470.354 948.879 461.142 946.058 450.439C945.952 450.081 945.801 449.742 945.61 449.432C945.202 448.747 944.638 448.197 943.977 447.839C943.317 447.481 942.583 447.329 941.852 447.398C941.121 447.467 940.419 447.754 939.821 448.231C939.222 448.707 938.747 449.355 938.446 450.107C938.327 450.428 938.252 450.767 938.222 451.114C937.407 462.189 936.593 473.264 936.682 484.279C936.843 503.5 944.186 519.518 955.774 533.231C956.885 534.345 958.17 535.218 959.562 535.809C959.562 536.081 959.562 536.373 959.562 536.645C968.92 544.538 976.451 549.23 983.92 551.385C991.388 553.539 999.268 553.157 1006.95 554.174C1024.06 556.338 1039.4 562.299 1049.71 579.224Z" fill="#336A5D"/>
<path d="M1451.49 1014.58C1451.64 1012.4 1451.41 1010.21 1450.83 1008.13C1448.74 998.782 1440.74 995.883 1432.72 1001.48C1426.22 1005.91 1421.32 1012.78 1418.88 1020.87C1412.47 1041.49 1414.74 1061.15 1425.15 1079.97H1474.9C1474.54 1079.21 1448.61 1038.46 1451.49 1014.58Z" fill="#336A5D"/>
<path d="M1114.02 1033.18C1110.33 1028.6 1108.21 1023.98 1105.06 1019.6C1104.81 1019.25 1104.51 1018.93 1104.17 1018.68C1103.72 1018.35 1103.21 1018.14 1102.68 1018.06C1102.15 1017.98 1101.62 1018.03 1101.11 1018.22C1100.6 1018.4 1100.13 1018.71 1099.75 1019.12C1099.36 1019.54 1099.06 1020.04 1098.87 1020.6C1098.78 1020.9 1098.73 1021.22 1098.74 1021.54C1098.92 1028.03 1101.53 1057.88 1111.21 1079.93H1194.21C1185.79 1077.4 1127.45 1051.36 1114.02 1033.18Z" fill="#336A5D"/>
<path d="M1182.97 965.26C1193.72 959.048 1201.95 936.202 1186.4 931.108C1175.32 928.822 1165.07 937.058 1154.49 939.545C1142.1 943.504 1128.95 943.213 1116.71 938.709C1111.46 937.38 1102.57 930.917 1097.98 934.763L1097.83 935.004C1096.48 937.622 1098.9 941.74 1100.6 944.177C1119.84 970.103 1156.68 982.9 1182.97 965.26Z" fill="#336A5D"/>
<path d="M1561.01 62.6293C1566.48 64.4517 1572.41 64.8142 1578.16 65.2572C1579.61 65.378 1581.82 63.5456 1582.51 61.9648C1582.97 60.958 1581.62 58.4409 1580.58 57.132C1579.31 55.5613 1577.46 54.5746 1575.91 53.2859C1559.62 39.6634 1557.68 31.9007 1539.66 0.0644531H1493.39C1494.21 1.86669 1532.74 53.155 1561.01 62.6293Z" fill="#336A5D"/>
<path d="M1503.51 925.857C1504.05 922.243 1503.63 918.437 1503.67 914.722C1500.41 916.604 1496.56 917.742 1493.99 920.491C1480.65 934.496 1473.59 952.508 1469.12 971.981C1463.9 994.705 1480.96 1062.6 1493.4 1079.97H1539.67C1536.19 1075.1 1533.13 1070.28 1529.73 1065.35C1501.04 1023.78 1495.9 976.713 1503.51 925.857Z" fill="#336A5D"/>
<path d="M1583.93 90.5599C1584.07 90.5536 1584.21 90.5265 1584.35 90.4793C1586.91 89.7947 1587.65 85.5358 1585.34 84.1161C1583.9 83.4212 1582.39 82.8981 1580.86 82.5555C1535.19 74.5914 1489.15 24.5315 1474.88 0.0854492H1425.18C1426.45 2.97507 1427.67 4.89813 1428.59 6.67017C1463.75 74.0075 1529.72 95.6645 1583.93 90.5599Z" fill="#336A5D"/>
<path d="M1646.74 19.4133C1647.03 19.3431 1647.32 19.2208 1647.58 19.0508C1648.18 18.6259 1648.67 18.0221 1648.99 17.3059C1649.31 16.5897 1649.44 15.7889 1649.38 14.9916C1649.32 14.1942 1649.06 13.4313 1648.64 12.7868C1648.22 12.1422 1647.65 11.6411 1646.99 11.3384C1646.7 11.2105 1646.4 11.1357 1646.09 11.1169C1635.72 11.0364 1617.22 2.12586 1611.89 0.162526C1597.92 -0.0489096 1578.16 0.0920476 1564.18 0.0618425C1585.6 19.4233 1628.11 23.642 1646.74 19.4133Z" fill="#336A5D"/>
<path d="M1653.89 59.0744C1663.72 65.9449 1675.04 69.6152 1686.61 69.6764H1687.12C1705.03 69.8879 1723.38 60.5343 1733.87 43.9719C1737.01 39.431 1739.8 31.1448 1737.7 28.2853C1730.42 18.2975 1704.9 55.6109 1662.13 46.8514C1648.52 43.8813 1639.18 47.224 1653.89 59.0744Z" fill="#336A5D"/>
<path d="M1162.27 54.8435C1157.89 52.3667 1153.58 49.5878 1149.22 47.111C1146.35 45.5202 1142.89 44.171 1140.97 45.2282C1137.68 47.1714 1140.66 52.7493 1142.52 55.4778C1162.6 84.4143 1188.3 101.42 1216.73 102.88H1217.21C1298.19 105.336 1310.69 -2.99933 1288.51 23.1784C1259.53 71.5067 1207.44 81.575 1162.27 54.8435Z" fill="#336A5D"/>
<path d="M1133.72 21.8325C1156.6 35.5557 1181.18 39.6234 1206.76 37.1767C1225.07 35.4148 1242.52 30.1289 1258.09 18.6409L1258.18 18.5805C1261.58 15.9727 1259.46 9.68001 1255.39 10.274H1255.32C1234.72 13.6772 1195.71 0.809772 1194.11 0.0747809C1167.81 0.00430224 1138.86 0.0747809 1110.83 0.0747809C1116.9 9.17576 1124.73 16.6141 1133.72 21.8325Z" fill="#336A5D"/>
<path d="M1374.84 159.794C1372.16 162.814 1368.72 165.069 1367.39 168.805C1366.3 172.288 1369.18 174.03 1372.42 173.084C1383.59 169.902 1392.89 161.586 1402.98 155.595C1417.1 147.029 1429.75 135.688 1440.32 122.108C1450.24 110.368 1456.79 95.5473 1456.53 78.8136V78.3102C1457.68 41.8426 1411.9 28.1093 1408.82 70.4267C1410.9 104.488 1396.48 136.777 1374.84 159.794Z" fill="#336A5D"/>
<path d="M1087.51 61.0897C1089.44 65.5574 1092.48 69.2994 1096.27 71.8621C1100.05 74.4248 1104.42 75.6981 1108.83 75.5278C1115.68 75.4473 1118.68 70.3728 1116.22 63.2645C1115.21 60.444 1113.89 57.773 1112.3 55.3105C1102.21 39.4427 1089.84 5.19012 1089.71 0.0854492H1065.28C1067.39 8.52275 1068.28 12.1675 1070.15 17.2017C1075.51 32.0525 1081.01 46.8833 1087.51 61.0897Z" fill="#336A5D"/>
<path d="M1370.2 112.215C1370.24 112.476 1370.28 112.735 1370.34 112.991C1370.55 113.966 1371 114.852 1371.65 115.537C1372.31 116.222 1373.12 116.675 1374 116.839C1374.88 117.004 1375.78 116.873 1376.6 116.462C1377.41 116.051 1378.1 115.379 1378.57 114.531C1378.83 114.078 1379.04 113.587 1379.18 113.071C1382.11 101.855 1385.36 90.5582 1386.69 79.0198C1389.71 52.6709 1394.57 35.7258 1373.25 4.51382C1372.32 2.85461 1371.18 1.35002 1369.88 0.043457H1306C1314.55 6.60804 1322.32 11.9845 1329.62 18.9519C1355.09 43.3073 1365.65 76.1402 1370.2 112.215Z" fill="#336A5D"/>
<path d="M1907.21 862.29L1919.97 847.54V802.232C1912.13 813.308 1902.5 844.389 1901.77 859.622C1901.73 860.348 1901.9 861.069 1902.23 861.688C1902.57 862.307 1903.07 862.795 1903.66 863.086C1904.26 863.376 1904.91 863.456 1905.55 863.314C1906.18 863.172 1906.76 862.814 1907.21 862.29Z" fill="#336A5D"/>
<path d="M1904.94 450.396C1904.83 450.037 1904.68 449.697 1904.49 449.389C1904.08 448.716 1903.52 448.177 1902.86 447.828C1902.21 447.478 1901.48 447.33 1900.76 447.398C1900.04 447.467 1899.34 447.75 1898.75 448.218C1898.15 448.686 1897.68 449.323 1897.38 450.064C1897.26 450.385 1897.18 450.724 1897.15 451.071C1896.33 462.146 1895.52 473.221 1895.61 484.236C1895.77 503.457 1903.11 519.475 1914.7 533.189C1916.04 534.779 1918.2 535.484 1919.98 536.602V477.722C1912.51 470.312 1907.77 461.139 1904.94 450.396Z" fill="#336A5D"/>
<path d="M1899.96 346.896C1900.76 368.533 1904.44 382.628 1912.31 402.201C1914.54 407.363 1917.11 412.337 1919.98 417.082V227.555C1918.54 230.062 1916.75 232.398 1915.7 235.096C1901.86 270.789 1898.55 308.455 1899.96 346.896Z" fill="#336A5D"/>
<path d="M1831.1 225.948C1820.73 223.692 1809.89 221.749 1799.47 222.676C1775.29 224.86 1757.67 240.487 1743.72 261.821C1743.59 262.01 1743.49 262.216 1743.41 262.436C1742.38 265.376 1745.29 268.305 1747.89 267.168C1748.2 267.033 1748.5 266.861 1748.79 266.654C1757.52 260.241 1766.79 255.156 1777.28 254.653C1790.79 253.988 1804.34 254.421 1817.86 254.139C1829.51 253.888 1841.21 254.542 1852.6 252.599C1880.17 247.887 1900.31 228.153 1919.97 207.895V202.66C1916.71 204.512 1913.19 205.962 1910.23 208.278C1886.11 227.096 1859.77 232.18 1831.1 225.948Z" fill="#336A5D"/>
<path d="M1896 545.363C1894.06 540.336 1891.42 535.687 1888.19 531.589C1880.34 521.329 1867.38 522.326 1861.05 533.603C1858.65 537.706 1857.03 542.321 1856.29 547.158C1855.55 551.996 1855.7 556.954 1856.73 561.724C1862.28 588.788 1890.45 609.045 1919.98 613.073V571.379C1907.95 566.013 1900.31 557.213 1896 545.363Z" fill="#336A5D"/>
<path d="M1837.39 158.903C1831.66 155.339 1826.77 150.093 1821.05 146.539C1811.02 140.286 1798.84 141.585 1791.09 149.217C1782.31 157.856 1782.32 168.347 1785.14 180.238C1788.01 192.32 1795.72 197.978 1804.71 202.438C1820.1 210.05 1836.45 211.681 1853.07 211.117C1876.34 210.506 1899.2 204.045 1919.97 192.209V172.596C1918.45 172.787 1916.91 172.908 1915.39 173.17C1888.01 178.013 1861.82 174.197 1837.39 158.903Z" fill="#336A5D"/>
<path d="M1558.31 1003.08C1556.93 982.693 1561 963.734 1573.81 948.038C1573.94 947.873 1574.05 947.69 1574.14 947.494C1575.27 944.876 1572.92 942.007 1570.37 942.46C1570.09 942.46 1569.8 942.57 1569.52 942.641C1568.84 942.812 1568.3 943.648 1567.68 944.191C1532.75 973.772 1522.22 1042.02 1564.15 1079.93H1611.85C1579 1058.2 1560.8 1039.75 1558.31 1003.08Z" fill="#336A5D"/>
<path d="M1888.25 635.322C1870.87 633.387 1854.47 625.344 1841.38 612.336C1841.05 612.029 1840.69 611.772 1840.31 611.571C1837.42 610.01 1833.92 612.577 1834.38 616.172C1834.42 616.551 1834.52 616.922 1834.66 617.269C1836.46 621.708 1838.8 625.843 1841.62 629.553C1853.17 644.585 1868.64 653.717 1886.22 659.204C1897.25 662.668 1908.49 664.329 1919.98 661.741V634.315C1909.4 634.708 1898.67 636.45 1888.25 635.322Z" fill="#336A5D"/>
<path d="M1860.28 0.0644531H1835.1C1835.3 1.79621 1839.68 45.1808 1887.64 94.6266C1897.41 102.379 1907.8 113.757 1919.98 115.77V73.0803C1900.21 72.2144 1868.09 31.0348 1860.28 0.0644531Z" fill="#336A5D"/>
<path d="M1863.83 114.008C1859.87 107.353 1856.94 99.9124 1853.17 93.1061C1848.55 84.7293 1841.89 79.7958 1832.82 81.2456C1824.1 82.635 1818.32 88.8271 1816.25 98.1504C1815.23 103.415 1815.31 108.874 1816.48 114.099C1819.03 126.09 1826.33 134.678 1834.9 141.696C1860.62 162.669 1889.42 167.874 1919.97 161.833V138.947C1913.86 138.072 1880.26 138.947 1863.83 114.008Z" fill="#336A5D"/>
<path d="M1881.74 0.0214844C1881.74 6.12292 1881.27 11.3383 1881.83 16.4329C1883.1 28.3036 1885.86 39.6707 1895.51 47.4133C1897.13 48.6219 1899.07 49.1595 1901 48.9337C1901.75 48.8028 1902.68 45.6514 1902.5 44.0102C1900.76 29.0889 1907.97 18.5674 1919.98 16.9162V0.0214844H1881.74Z" fill="#336A5D"/>
<path d="M1854.59 903.194V902.661C1854.46 891.686 1852.31 879.322 1848.02 869.596C1844.48 862.226 1840.26 863.555 1840.56 872.858C1845.93 938.766 1815.35 950.103 1818.34 984.617C1818.54 994.051 1827.25 1012.15 1830.75 993.588C1832.27 975.405 1842.76 960.161 1847.85 943.246C1851.95 930.374 1854.22 916.859 1854.59 903.194Z" fill="#336A5D"/>
<path d="M1898.3 1055.56C1889.64 1060.51 1881.86 1064.96 1881.74 1079.83C1894.52 1079.83 1907.19 1079.97 1919.98 1079.97V1048.66C1911.79 1048.4 1905.04 1051.71 1898.3 1055.56Z" fill="#336A5D"/>
<path d="M1787.43 1004.25C1778.48 992.417 1767.63 982.358 1757.1 972.209C1750.62 965.967 1742.39 965.161 1734.6 968.756C1731.5 970.206 1728.14 974.102 1727.33 977.596C1726.71 980.274 1729.25 984.906 1731.56 987.171C1736.18 991.732 1741.81 995.004 1746.67 999.253C1770.14 1020.04 1783.92 1047.58 1790.87 1079.92H1817.62C1817.35 1077.11 1817.31 1074.26 1816.81 1071.51C1812.25 1046.65 1802.14 1023.5 1787.43 1004.25Z" fill="#336A5D"/>
<path d="M1673.19 1035.05C1656.05 1035.69 1639.94 1040.69 1625.56 1051.52C1623.94 1052.74 1623.2 1055.41 1622.04 1057.42C1623.96 1057.82 1626.02 1058.95 1627.76 1058.49C1646.77 1053.64 1665.24 1056.04 1682.87 1064.67C1691.02 1068.69 1698.33 1074.82 1706.02 1080H1771.31C1735.58 1050.69 1705.18 1033.82 1673.19 1035.05Z" fill="#336A5D"/>
<path d="M1850.52 672.702C1832.39 658.476 1819.3 639.225 1808.25 617.981C1808.14 617.779 1808.02 617.587 1807.89 617.407C1807.33 616.674 1806.59 616.141 1805.77 615.874C1804.94 615.606 1804.07 615.616 1803.25 615.902C1802.43 616.188 1801.7 616.737 1801.16 617.482C1800.61 618.227 1800.27 619.136 1800.18 620.095C1800.15 620.432 1800.17 620.771 1800.23 621.102C1808.7 668.997 1832.03 703.864 1872.59 722.792C1885.04 728.602 1898.27 730.746 1911.78 727.313L1911.78 686.829C1888.76 693.467 1869.08 687.241 1850.52 672.702Z" fill="#336A5D"/>
<path d="M1786.01 38.382C1786.56 38.5911 1787.16 38.6588 1787.74 38.5801C1788.32 38.5014 1788.88 38.2784 1789.38 37.9269C1789.88 37.5755 1790.3 37.1045 1790.62 36.5477C1790.93 35.991 1791.13 35.3623 1791.21 34.707C1791.33 34.0029 1791.27 33.2765 1791.06 32.6028C1786.36 20.2186 1772.58 0.1121 1771.14 0.102031C1747.73 0.0214844 1729.43 0.0214844 1706.02 0.0214844C1747.6 26.3201 1758.65 14.53 1785.16 37.8484C1785.42 38.0754 1785.7 38.2555 1786.01 38.382Z" fill="#336A5D"/>
<path d="M1897.34 907.809C1897.82 907.698 1898.3 907.567 1898.78 907.406C1907.96 904.386 1910.77 903.037 1919.9 899.916V887.119C1908.64 890.139 1902.64 894.922 1894.96 902.755H1894.91C1892.99 904.799 1894.78 908.393 1897.34 907.809Z" fill="#336A5D"/>
<path d="M1879.13 1025.12C1879.07 1025.28 1879.01 1025.45 1878.96 1025.62C1877.88 1029.42 1881.88 1032.67 1884.87 1030.49L1885.03 1030.36C1895.67 1021.79 1907.21 1017.2 1919.95 1017.62V981.901C1900.37 987.711 1888.05 1004.08 1879.13 1025.12Z" fill="#336A5D"/>
<path d="M1835.1 1079.98H1860.32C1862.78 1016.95 1880.02 978.538 1914.05 960.858C1915.96 959.851 1918.01 959.197 1920 958.381V910.003C1865.64 926.656 1820.56 1014.17 1835.1 1079.98Z" fill="#336A5D"/>
<path d="M1258.19 1040.52C1230.09 1044.46 1202.82 1055.49 1173.91 1052.9C1173.49 1052.89 1173.08 1053 1172.72 1053.24C1172.23 1053.54 1171.82 1053.96 1171.52 1054.48C1171.22 1055 1171.05 1055.59 1171 1056.21C1170.96 1056.83 1171.06 1057.44 1171.28 1058.01C1171.51 1058.57 1171.86 1059.06 1172.29 1059.43C1172.6 1059.71 1172.96 1059.9 1173.35 1059.96C1182.37 1060.96 1191.43 1062.05 1200.46 1061.84C1227.39 1061.25 1254.36 1060.44 1280.65 1068.29C1289.53 1070.84 1298.06 1074.77 1305.97 1079.96H1369.85C1337.81 1051.15 1291.66 1035.82 1258.19 1040.52Z" fill="#336A5D"/>
<path d="M1143.41 856.513C1171.93 841.028 1193.81 804.812 1191.44 769.029C1190 750.453 1180.36 734.162 1166.53 723.903C1157.35 716.764 1141.38 709.455 1132.03 718.597C1122.84 728.202 1130.93 739.952 1140.2 745.006C1152.44 751.822 1162.78 763.814 1164.38 779.53C1167.07 809.635 1145.58 834.051 1125.87 851.187C1122.18 854.902 1113.71 859.836 1113.04 864.951V865.092C1117.8 869.763 1137.78 859.584 1143.41 856.513Z" fill="#336A5D"/>
<path d="M1437.29 748.345C1467.89 770.153 1507.03 768.26 1540.87 759.168C1544.45 758.071 1550.62 756.279 1552.36 752.725L1552.44 752.463C1552.32 746.905 1535.19 749.11 1530.76 748.597C1501.3 747.338 1475.53 730.192 1449.21 716.992C1417.77 701.96 1412 730.302 1437.29 748.345Z" fill="#336A5D"/>
<path d="M1499.62 725.606C1511 720.441 1516.7 706.879 1525.42 697.807C1542.34 680.187 1567.22 679.553 1587.42 668.951C1628.03 649.761 1664.12 606.779 1668.8 556.256V555.783C1668.49 545.644 1664.75 547.516 1663.29 555.722C1659.71 578.165 1645.88 596.821 1630.61 610.957C1611.04 629.332 1585.79 636.128 1561.66 642.955C1530.74 651.956 1492.46 659.96 1476.8 695.36C1468.37 715.87 1479.8 734.093 1499.62 725.606Z" fill="#336A5D"/>
<path d="M1217.32 306.952C1164.57 295.877 1116.95 355.049 1115 414.019V414.533C1116.9 434.347 1125.84 405.471 1128.88 401.041C1132.8 393.712 1137.5 386.95 1142.88 380.904C1185.14 334.952 1197.03 366.325 1222.35 352.179C1240.51 340.238 1238.01 312.862 1217.32 306.952Z" fill="#336A5D"/>
<path d="M1138.61 543.707V544.221C1139.06 575.191 1149.25 605.638 1168.49 628C1174.8 636.054 1184.13 640.716 1178.74 623.882C1176.19 616.435 1174.06 608.815 1172.36 601.067C1145.81 483.569 1235.3 380.157 1330.15 349.076C1338.41 345.441 1342.23 338.202 1331.38 336.631C1324.04 335.977 1316.06 337.356 1308.62 338.645C1220.7 354.935 1139.99 440.144 1138.61 543.707Z" fill="#336A5D"/>
<path d="M1076.13 502.469C1080.46 523.683 1094.94 539.964 1104.55 558.339C1113.82 574.166 1121.89 591.011 1129.7 607.905C1131.64 611.742 1134.02 619.494 1136.99 621.367L1137.15 621.417C1141.33 620.551 1138.04 605.469 1137.4 601.21C1132.03 572.186 1126.5 543.179 1120.83 514.189C1118.85 504.292 1116.43 494.183 1111.3 485.756C1094.96 458.33 1070.96 470.955 1076.13 502.469Z" fill="#336A5D"/>
<path d="M1419.02 671.701C1419.13 680.632 1418.51 691.838 1424.13 698.493C1428.93 704.323 1436.45 704.172 1441.76 698.111C1451.38 687.035 1454.69 671.238 1454.72 656.266C1453.9 598.746 1424.64 550.327 1381.72 520.343C1374.66 515.333 1366.92 511.659 1358.8 509.47C1345.11 505.946 1348.22 515.027 1356.46 521.199C1399.01 556.197 1419.08 613.556 1419.02 671.218L1419.02 671.701Z" fill="#336A5D"/>
<path d="M1232.76 811.223C1233.57 816.65 1234.59 820.778 1235.88 821.513L1236.01 821.583C1237.05 822.097 1238.23 820.456 1239.33 817.234C1240.42 813.743 1241.21 810.142 1241.69 806.481C1250.13 749.745 1229.01 688.439 1187.06 654.64C1176.09 645.125 1157.82 635.852 1146.52 649.072C1138.22 659.221 1139.72 677.082 1146.61 688.016C1160.82 709.371 1183.53 721.121 1200.07 739.989C1218.31 759.089 1230 783.344 1232.76 811.223Z" fill="#336A5D"/>
<path d="M1248.1 901.77C1276.5 893.554 1299.57 870.357 1317.05 844.844C1356.7 787.081 1367.46 692.116 1329 630.558C1314.98 608.136 1295.09 591.433 1270.39 586.63C1265.06 585.895 1260.02 585.543 1259.2 589.117C1259.12 593.819 1265.85 597.816 1269.19 600.837C1305.3 627.226 1321.06 674.255 1320.72 722.976V723.469C1318.15 787.253 1291.68 846.002 1246.22 885.268C1243.03 888.128 1239.06 891.309 1236.5 894.581C1230.32 903.432 1241.7 903.673 1248.1 901.77Z" fill="#336A5D"/>
<path d="M1229.53 887.231C1278.55 842.387 1323.38 748.852 1282.94 682.843C1272.7 664.72 1258.01 648.722 1253.8 627.256C1252.78 618.929 1250.73 603.716 1245.5 618.043C1234.42 666.664 1258.54 713.24 1266.7 760.189C1275.6 803.573 1253.05 844.481 1228.19 875.602C1224.45 880.989 1215.25 889.608 1215.49 894.853L1215.55 895.004C1218.72 897.37 1226.3 890.061 1229.53 887.231Z" fill="#336A5D"/>
<path d="M1250.63 219.36C1248.22 219.091 1245.8 219.139 1243.41 219.501C1169.32 228.039 1083.24 287.392 1079.35 376.91V377.463C1079.13 396.311 1082.43 416.629 1089.45 431.39C1090.95 434.35 1093.28 438.931 1096.62 438.518C1099.02 438.307 1100.2 432.91 1100.2 429.094C1097.81 386.978 1110.29 347.44 1134.29 314.969C1163.71 273.528 1205.52 247.269 1249.63 231.059C1255.97 228.28 1259.02 220.729 1250.63 219.36Z" fill="#336A5D"/>
<path d="M1644.47 182.708C1651.51 171.357 1659.38 160.687 1668 150.811C1669.39 149.291 1671.46 146.482 1671.36 145.243V144.992C1670.72 142.243 1665.98 143.411 1661.71 145.122C1650.64 150.157 1640.68 158.362 1632.11 167.585C1597.92 205.513 1576.84 256.72 1577.03 310.888C1576.73 337.61 1586.73 362.327 1592.57 387.74C1596.87 403.719 1595.6 420.875 1600.46 436.622C1614.02 476.845 1647.24 444.727 1649.23 416.052C1653.88 366.717 1609.48 346.873 1614.3 278.216C1616.81 244.135 1627.9 211.493 1644.47 182.708Z" fill="#336A5D"/>
<path d="M1572.03 263.054C1573.1 259.832 1573.5 256.932 1572.8 255.322C1567.96 248.767 1555.94 267.011 1552.51 271.431C1531.02 301.314 1516.8 337.238 1516.2 376.625V377.149C1516.3 431.518 1552.92 474.017 1602.62 476.061C1611.94 476.695 1619.56 472.376 1609.15 463.425C1552.74 425.235 1541.99 346.098 1565.07 281.368C1567.14 275.166 1569.97 269.105 1572.03 263.054Z" fill="#336A5D"/>
<path d="M1130.01 674.804V674.271C1129.36 654.369 1125.62 634.749 1118.96 616.297C1112.13 598.345 1101.18 582.8 1088.34 568.905C1071.67 551.306 1064.08 554.94 1076 578.974C1097.59 623.869 1107.77 681.671 1088.24 729.214C1082.93 742.554 1073.36 753.227 1064.66 763.96C1054.15 777.884 1066.85 778.257 1076.3 774.773C1084.35 771.801 1091.88 767.281 1098.55 761.413C1122.08 741.376 1130.57 707.094 1130.01 674.804Z" fill="#336A5D"/>
<path d="M1023.45 738.967C1021.27 761.772 1040.46 769.806 1055.23 755.539C1083.08 726.764 1082.32 673.985 1078.21 634.86L1078.2 634.316C1077.07 624.419 1074.92 606.034 1071.51 599.892C1071.11 599.157 1070.61 598.442 1069.99 598.312C1068.96 598.191 1068.2 600.859 1067.8 605.43C1067.25 611.048 1067.33 618.358 1066.83 624.379C1063.95 658.379 1043.55 685.272 1030.45 715.095C1027.1 722.525 1024.1 730.711 1023.45 738.967Z" fill="#336A5D"/>
<path d="M1267.62 478.985C1267.96 480.424 1270.9 481.582 1275.62 482.267C1288.61 483.676 1305.93 483.697 1319.86 483.576C1365.53 484.391 1409.03 456.512 1433.11 413.419C1441.01 399.253 1454.6 371.132 1439.85 358.315C1419.61 348.911 1402.98 397.239 1392.48 411.879C1369.91 450.763 1338.05 465.654 1298.08 469.057C1291.85 469.785 1285.67 470.914 1279.56 472.44C1271.97 474.454 1267.19 476.87 1267.6 478.864L1267.62 478.985Z" fill="#336A5D"/>
<path d="M1811.11 71.8849C1807.39 55.9064 1791.3 45.1031 1777.21 44.5292H1776.74C1755.34 44.2271 1738.03 58.3933 1729.22 79.1543C1728.06 82.2453 1725.24 88.2158 1727.93 90.6021C1730.01 91.9915 1735.69 86.7559 1738.47 84.4906C1750.64 74.4222 1761.16 70.2841 1775.59 75.429C1783.86 78.0468 1791.33 84.0375 1799.64 86.0411C1807.03 87.8333 1812.83 80.1309 1811.11 71.8849Z" fill="#336A5D"/>
<path d="M1361.52 419.686C1377.9 406.366 1391.97 388.585 1399.37 367.189C1400.91 363.021 1402.45 354.654 1400.93 353.547L1400.83 353.436C1397.4 351.584 1391.75 360.132 1388.29 363.444C1362.73 393.277 1324.54 396.67 1290.55 405.359C1242.09 417.944 1191.15 455.348 1181.44 513.664C1179.7 527.921 1188.08 542.681 1201.08 535.623C1209.28 530.982 1214.91 522.434 1220.78 514.268C1233.69 494.907 1247.98 475.787 1267.55 464.742C1282.61 455.68 1299.61 451.2 1315.61 445.169C1331.85 439.168 1347.63 431.053 1361.52 419.686Z" fill="#336A5D"/>
<path d="M1582.52 189.985C1519.04 224.57 1456.93 312.608 1456.31 394.273V394.796C1455.74 457.653 1488.19 523.672 1542.93 544.553C1581.25 559.656 1626.04 545.167 1651.23 509.092C1661.33 495.792 1669.65 473.853 1646.42 491.473C1635.02 499.944 1621.7 504.545 1608.04 504.723C1578.49 505.015 1551.33 489.077 1531.67 464.963C1507.61 436.067 1494.91 391.685 1504.23 349.317C1513.65 306.174 1532.2 265.891 1556.23 230.591C1563.64 219.991 1571.92 210.195 1580.96 201.332C1584.66 197.839 1593.78 186.562 1582.52 189.985Z" fill="#336A5D"/>
<path d="M1470.23 626.461L1470.68 626.662C1521.59 645.017 1619.62 624.648 1639.04 567.883C1639.59 565.072 1639.36 562.138 1638.36 559.484C1637.37 556.83 1635.68 554.586 1633.5 553.062C1625.44 548.481 1615.41 554.874 1608.26 559.476C1574.88 587.476 1542.98 619.302 1498.86 619.775C1491.69 620.057 1484.64 618.99 1477.59 617.631C1474.07 617.006 1470.18 616.08 1467.42 617.168C1462.12 619.362 1466.11 625.172 1470.23 626.461Z" fill="#336A5D"/>
<path d="M1515.74 595.052C1533.15 595.133 1549.57 590.854 1564.43 580.413C1566.92 578.671 1570.47 575.036 1570.18 572.801C1569.53 567.767 1564.9 569.257 1561.52 569.227C1555.14 569.227 1548.71 569.68 1542.39 568.955C1520.32 566.398 1500.81 558.091 1486.14 537.955C1473.48 520.587 1463.08 502.192 1458.23 480.031C1454.93 465.019 1443.49 454.387 1432.16 454.176C1419.8 453.964 1408.41 463.962 1403.63 478.622C1400.15 489.274 1402.43 498.98 1406.02 508.887C1424.47 559.813 1469.06 594.861 1515.74 595.052Z" fill="#336A5D"/>
<path d="M1830.86 513.657C1863.15 481.096 1886.29 438.033 1890.22 388.92C1890.49 375.096 1890.74 358.946 1883.6 346.975C1881.63 344.13 1879.11 341.821 1876.24 340.217C1873.37 338.614 1870.21 337.758 1867 337.712C1854.56 337.35 1846.41 351.023 1842.48 362.631C1833.84 397.166 1842.3 433.905 1834.23 468.601C1829.75 488.919 1821.34 507.747 1810.31 524.591C1808.14 527.843 1803.5 534.72 1804.59 537.036L1804.67 537.227C1805.44 538.898 1809.15 536.341 1810.61 534.871C1817.44 527.994 1823.92 520.544 1830.86 513.657Z" fill="#336A5D"/>
<path d="M1829.27 878.981C1828.97 876.512 1828.56 874.062 1828.03 871.641C1820.08 833.23 1791.12 812.872 1758.48 811.945H1758C1744.61 811.88 1731.62 817.028 1721.22 826.514C1716.6 830.441 1708.68 841.788 1719.1 843.238C1749.44 843.459 1777.62 865.086 1793.36 893.58C1798.55 901.735 1802.13 917.573 1812.78 917.673C1827.31 915.277 1831.07 892.865 1829.27 878.981Z" fill="#336A5D"/>
<path d="M1518.88 979.816H1519.01C1519.6 979.907 1520.1 979.172 1520.46 977.802C1521.73 971.57 1521.25 964.713 1521.93 958.189C1523.09 942.991 1527.51 928.336 1534.81 915.479C1547.91 893.067 1563.84 872.698 1580.13 853.337C1585.45 846.883 1590.74 840.248 1594.53 832.526C1608.66 802.945 1591.33 783.392 1566.08 802.633C1523.26 840.288 1504.54 908.189 1514.54 967.945C1515.2 971.54 1516.7 978.557 1518.88 979.816Z" fill="#336A5D"/>
<path d="M1128.59 914.645H1129.03C1177.13 915.501 1216.03 857.588 1215.44 785.669C1215.36 780.243 1214.69 768.936 1210.96 767.355C1205.24 768.362 1205.59 792.073 1203.5 798.889C1194.91 846.412 1164.44 870.435 1124.54 879.054C1100.86 887.038 1103.16 914.726 1128.59 914.645Z" fill="#336A5D"/>
<path d="M1605.48 740.806C1606.95 737.293 1610.85 728.553 1606.67 727.305C1602.39 727.536 1597.97 734.896 1594.4 738.873C1583.31 752.271 1569.79 762.845 1554.77 769.884C1535.62 778.948 1514.53 781.513 1494.1 777.264C1480.54 774.948 1467.18 769.028 1453.57 768.998C1428.78 767.991 1408.52 787.534 1396.17 810.167C1392.69 816.027 1390.6 824.616 1398.55 821.716C1402.41 820.105 1406.42 816.933 1410.2 814.809C1418.44 809.966 1428.11 809.644 1437.6 809.775C1454.61 810.137 1472.26 814.668 1488.84 816.168H1489.29C1542.07 817.568 1585.31 790.786 1605.48 740.806Z" fill="#336A5D"/>
<path d="M1879.34 252.729C1855.6 268.506 1827.13 258.891 1801.67 266.916C1790.58 269.835 1776.45 277.91 1775.31 292.308C1774.02 306.796 1788.64 316.533 1800.18 316.472H1800.62C1831.21 313.13 1859.9 289.288 1881.49 265.577C1885.87 260.422 1891.24 255.579 1894.51 249.578C1898.67 238.533 1882.51 251.078 1879.34 252.729Z" fill="#336A5D"/>
<path d="M1745.88 292.522C1743.61 290.508 1739.83 286.853 1737.05 288.847C1735.8 289.964 1736.05 292.733 1736.87 295.723C1740.27 306.295 1742.09 317.612 1739.11 328.516C1735.74 342.149 1725.97 352.197 1721.06 364.944C1717.04 374.267 1717.95 386.651 1723.94 394.675C1729.99 401.915 1738.27 395.431 1743.87 389.833C1756.55 377.187 1763.39 359.164 1763.97 340.165V339.642C1763.78 321.458 1757.78 304.483 1745.88 292.522Z" fill="#336A5D"/>
<path d="M1770.95 208.601C1775.06 205.52 1782.94 197.385 1773.88 195.412C1730.34 195.412 1692.34 233.933 1693.49 284.084V284.597C1693.72 298.532 1696.92 312.426 1703.34 326.884C1709.25 339.893 1715.88 335.855 1715.16 322.404C1714.27 276.885 1738.83 234.809 1770.95 208.601Z" fill="#336A5D"/>
<path d="M1750.39 434.74C1750.58 423.839 1753.11 413.15 1757.76 403.589C1758.85 401.192 1760.58 396.48 1758.32 395.161C1749.76 393.258 1738.62 409.68 1735.51 417.946C1723.87 449.732 1726.84 485.404 1738.96 516.365C1747.51 539.089 1759.29 561.058 1759.73 586.481V587.004C1759.87 598.079 1755.49 610.504 1748.08 619.857C1743.94 625.586 1737.63 630.58 1737.16 638.484C1738.26 653.023 1757.02 642.27 1763.38 638.484C1769.47 634.663 1774.62 629.195 1778.36 622.576C1789.25 600.848 1788.06 572.828 1782.84 549.278C1774.56 517.059 1760.56 487.146 1752.68 454.907C1751.1 448.334 1750.33 441.548 1750.39 434.74Z" fill="#336A5D"/>
<path d="M1351.76 159.103C1350.69 158.348 1348.72 160.029 1346.39 163.292C1344.06 166.554 1341.91 170.561 1339.85 174.065C1323.2 202.88 1299.39 223.4 1271.94 236.72C1251.74 248.178 1225 247.242 1207.46 263.905C1192.66 281.535 1210.69 299.054 1227.95 298.832C1287.39 298.137 1333.56 232.22 1351.04 172.706C1352.05 168.91 1353.72 161.52 1351.85 159.214L1351.76 159.103Z" fill="#336A5D"/>
<path d="M1564.71 106.01C1556.1 104.097 1546.8 106.01 1538.06 106.101C1495.3 108.115 1466.89 111.8 1437.54 150.14C1425.06 163.531 1411.33 175.311 1394.9 181.785C1384.73 185.571 1374.54 189.971 1366.88 198.67C1363.1 203.009 1358.82 208.406 1359.71 211.708L1359.79 211.869C1361.91 213.682 1365.45 211.285 1367.94 210.591C1386.98 203.311 1407.53 202.335 1427.46 199.938C1462.87 195.005 1482.75 177.959 1508.21 151.489C1524.33 138.551 1541.71 126.761 1560.15 118.646C1566.58 116.542 1575.57 109.917 1564.71 106.01Z" fill="#336A5D"/>
<path d="M1772.31 134.706C1759.43 116.21 1734.34 113.361 1716.4 122.281C1703.38 128.544 1693.3 138.27 1685.32 150.865C1682.4 156.071 1677.26 161.336 1677.52 167.498C1680.04 175.07 1691.95 160.45 1695.77 158.386C1712.16 145.589 1729.93 140.837 1749.32 147.492C1753.56 148.832 1758.1 150.644 1762.34 150.765H1762.76C1771.43 151.047 1777.73 143.918 1772.31 134.706Z" fill="#336A5D"/>
<path d="M1745.01 568.95C1744.58 558.439 1740.81 548.763 1737.11 539.278C1730.97 523.904 1726.2 507.734 1720.45 492.138C1718.84 487.275 1713.29 477.227 1712.25 488.715C1716.82 553.565 1733.26 587.325 1694.43 644.996C1692.31 648.752 1691.16 651.732 1691.96 652.92L1692.06 653.071C1692.96 654.259 1695.86 653.454 1699.42 651.631C1727.6 636.962 1746.11 603.706 1745.01 568.95Z" fill="#336A5D"/>
<path d="M1757.88 656.088C1747.67 658.182 1737.81 660.387 1727.77 662.602C1673.05 671.261 1634.91 698.114 1620.67 760.487C1617.2 774.643 1616.2 789.242 1614.77 803.781C1614.52 806.268 1614.56 809.651 1616.27 811.151C1619.08 813.417 1621.86 810.366 1623.8 807.124C1642.76 775.237 1666.02 749.452 1695.94 733.071C1706.06 727.08 1717.87 723.788 1728.52 718.583C1747.26 708.826 1763.87 689.052 1766.48 665.271V664.787C1766.88 657.246 1764.46 654.548 1757.88 656.088Z" fill="#336A5D"/>
<path d="M1309.52 262.171C1300.06 271.595 1312.64 272.632 1318.74 271.565C1355.04 265.695 1389.08 286.053 1424.62 289.356H1425.06C1435.03 289.171 1444.93 287.433 1454.47 284.191C1466.5 280.072 1477.46 272.746 1486.43 262.835C1500.27 246.797 1487.91 247.24 1475.46 251.76C1419.57 269.974 1387.46 221.555 1326.71 251.408C1320.65 254.519 1314.47 257.6 1309.52 262.171Z" fill="#336A5D"/>
<path d="M1322.61 52.528C1309.36 146.516 1209.67 196.093 1135.46 160.924C1131.29 158.91 1119.95 153.997 1122.35 163.049C1125.36 170.016 1131.89 175.433 1137.17 180.618C1152.96 194.422 1174.53 203.433 1194.82 203.775H1195.26C1260.78 205.406 1332.54 162.787 1340.43 87.2337C1341.23 75.9734 1339.59 64.6618 1335.65 54.2698C1332 44.2115 1325.25 39.8317 1322.61 52.528Z" fill="#336A5D"/>
<path d="M1058.27 339.754C1058.53 345.996 1060.06 361.26 1065.2 361.632C1066.16 361.451 1066.99 360.203 1067.76 358.209C1069.56 353.034 1069.92 346.993 1071.08 341.365C1074.97 321.037 1081.65 300.991 1098.84 291.023C1102.42 288.606 1106 286.16 1108.58 283.149C1115.25 276.253 1113.76 264.412 1106.53 258.985C1098.47 252.793 1087.53 256.901 1080.45 263.335C1061.9 281.307 1058.23 312.499 1058.22 339.17L1058.27 339.754Z" fill="#336A5D"/>
<path d="M1246.16 126.293C1208.79 132.012 1174.77 118.832 1144.47 94.3862C1139.52 90.4394 1134.13 86.11 1128.35 83.8244C1113.67 77.0081 1096.57 90.1172 1098.92 107.918C1100.13 118.087 1108.44 126.937 1116.41 132.767C1135.38 146.802 1158.49 152.219 1180.79 152.299H1181.25C1206.54 151.172 1234.53 147.134 1256.08 130.975C1257.46 129.444 1257.87 128.065 1257.08 127.159C1255.22 125.125 1249.38 125.92 1246.16 126.293Z" fill="#336A5D"/>
<path d="M1668.67 662.516C1695.31 628.454 1711.13 582.975 1702.81 537.185C1701.17 529.187 1698.95 521.357 1696.15 513.775C1694.96 510.05 1691.78 503.989 1689.72 504.251C1686.85 503.727 1686.32 512.557 1686.64 516.333C1691.28 597.695 1641.1 669.674 1578.16 704.038C1565.52 711.307 1552.05 716.029 1538.63 720.952C1535.17 722.282 1531.91 724.033 1530.51 725.795C1526.38 730.749 1537.5 731.786 1541.64 731.403H1542.11C1591.38 729.47 1636.09 705.699 1668.67 662.516Z" fill="#336A5D"/>
</g>
<defs>
<clipPath id="clip0_104_2">
<rect width="1920" height="1080" fill="white"/>
</clipPath>
</defs>
</svg>
