<svg width="1920" height="1080" viewBox="0 0 1920 1080" fill="none" xmlns="http://www.w3.org/2000/svg">
<path d="M179.506 543.686V544.197C179.96 575.178 190.134 605.616 209.359 627.992C215.667 636.015 224.986 640.709 219.605 623.86C217.057 616.415 214.927 608.798 213.226 601.053C186.704 483.54 276.087 380.129 370.816 349.048C379.084 345.417 382.888 338.176 372.055 336.612C364.723 335.95 356.749 337.324 349.319 338.618C261.486 354.955 180.851 440.134 179.506 543.686ZM487.755 306.384C444.493 316.975 404.314 282.514 361.898 281.842H361.408C344.41 281.842 327.278 288 312.739 298.009C305.086 303.345 297.389 309.433 291.357 316.774C283.411 326.552 286.547 330.023 298.36 325.8C346.13 304.097 376.999 319.111 424.127 331.818C436.733 335.258 449.963 337.946 462.917 336.05C474.766 334.466 487.336 328.257 495.06 318.419C503.355 307.617 496.789 305.02 487.755 306.384ZM258.109 306.965C205.431 295.933 157.875 355.106 155.924 414.028V414.539C157.821 434.357 166.748 405.513 169.786 401.06C173.71 393.746 178.41 386.997 183.782 380.961C225.992 335.007 237.868 366.379 263.161 352.247C281.281 340.252 278.778 312.873 258.109 306.965ZM291.384 219.36C288.991 219.091 286.579 219.135 284.195 219.49C210.188 228.025 124.217 287.388 120.332 376.949V377.491C120.119 396.346 123.415 416.665 130.426 431.418C131.914 434.427 134.248 438.96 137.553 438.549C139.95 438.338 141.162 432.943 141.117 429.132C138.721 387.009 151.193 347.473 175.158 314.999C204.558 273.558 246.296 247.291 290.36 231.084C296.721 228.286 299.759 220.734 291.384 219.36ZM117.099 502.486C121.419 523.707 135.87 539.995 145.482 558.369C154.748 574.195 162.801 591.034 170.597 607.933C172.539 611.774 174.918 619.527 177.884 621.392L178.045 621.453C182.214 620.58 178.935 605.496 178.294 601.234C172.895 572.209 167.378 543.204 161.741 514.22C159.763 504.321 157.34 494.211 152.218 485.777C135.914 458.347 111.94 470.974 117.099 502.486ZM64.4823 739.005C62.3086 761.812 81.4895 769.845 96.216 755.574C124.039 726.8 123.281 674.066 119.183 634.902L119.121 634.35C117.989 624.451 115.851 606.068 112.43 599.93C112.285 599.567 112.077 599.239 111.819 598.967C111.56 598.695 111.256 598.484 110.925 598.345C109.882 598.235 109.143 600.903 108.733 605.466C108.19 611.092 108.27 618.394 107.771 624.411C104.893 658.42 84.474 685.309 71.4313 715.136C68.1261 722.557 65.1238 730.741 64.4823 739.005ZM273.504 811.216C274.306 816.652 275.339 820.774 276.622 821.516L276.747 821.576C277.78 822.088 278.965 820.453 280.061 817.224C281.149 813.74 281.936 810.146 282.413 806.492C290.85 749.767 269.762 688.458 227.899 654.649C216.95 645.142 198.704 635.865 187.417 649.083C179.123 659.233 180.619 677.095 187.506 688.027C201.689 709.379 224.38 721.123 240.897 740.008C259.107 759.064 270.778 783.355 273.504 811.216ZM622.823 189.974C559.481 224.565 497.43 312.612 496.806 394.28V394.801C496.245 457.665 528.647 523.728 583.312 544.568C621.621 559.612 666.326 545.18 691.485 509.105C701.578 495.796 709.882 473.892 686.683 491.484C675.308 499.948 662.009 504.547 648.374 504.732C618.886 505.033 591.731 489.087 572.105 464.966C548.051 436.072 535.391 391.682 544.692 349.329C554.1 306.203 572.63 265.896 596.622 230.593C604.029 219.989 612.303 210.191 621.336 201.327C624.997 197.847 634.111 186.564 622.859 189.994L622.823 189.974ZM612.355 263.047C613.424 259.828 613.825 256.929 613.122 255.315C608.284 248.756 596.284 267.009 592.863 271.361C571.41 301.239 557.227 337.173 556.594 376.558V377.08C556.692 431.478 593.264 473.952 642.913 475.998C652.223 476.64 659.84 472.308 649.434 463.361C593.059 425.17 582.368 346.019 605.406 281.3C607.527 275.183 610.333 269.115 612.391 263.067L612.355 263.047ZM308.356 478.997C308.694 480.431 311.625 481.595 316.374 482.277C329.354 483.681 346.664 483.701 360.553 483.58C406.158 484.403 449.643 456.501 473.697 413.426C481.59 399.254 495.194 371.132 480.441 358.325C460.217 348.928 443.602 397.249 433.116 411.891C410.577 450.775 378.772 465.668 338.833 469.058C332.616 469.787 326.441 470.915 320.338 472.438C312.766 474.444 307.981 476.871 308.391 478.867L308.356 478.997ZM556.158 595.106C573.548 595.186 589.958 590.913 604.792 580.473C607.286 578.718 610.832 575.077 610.547 572.861C609.888 567.846 605.264 569.31 601.887 569.29C595.518 569.29 589.094 569.742 582.778 569.01C560.746 566.452 541.253 558.148 526.651 538.019C514.001 520.638 503.622 502.235 498.766 480.09C495.479 465.046 484.049 454.435 472.735 454.235C460.387 454.014 449.019 464.013 444.226 478.666C440.751 489.327 443.032 499.036 446.622 508.944C465.046 559.783 509.537 594.885 556.158 595.106ZM510.722 626.487L511.185 626.688C562.029 645.041 659.965 624.682 679.324 567.896C679.874 565.086 679.637 562.154 678.646 559.501C677.656 556.849 675.96 554.607 673.791 553.083C665.773 548.51 655.733 554.888 648.579 559.492C615.242 587.493 583.384 619.326 539.311 619.788C532.184 620.079 525.119 619.015 518.072 617.651C514.509 617.02 510.669 616.097 507.925 617.19C502.615 619.376 506.597 625.193 510.704 626.487H510.722ZM684.749 182.723C691.782 171.369 699.647 160.698 708.26 150.82C709.65 149.305 711.717 146.507 711.61 145.264V145.053C710.977 142.295 706.265 143.478 701.979 145.183C690.923 150.198 680.963 158.422 672.411 167.649C638.263 205.57 617.175 256.779 617.407 310.947C617.095 337.675 627.091 362.397 632.917 387.801C637.22 403.788 635.937 420.898 640.802 436.694C654.343 476.911 687.529 444.787 689.516 416.114C694.157 366.82 649.809 346.912 654.593 278.282C657.114 244.162 668.17 211.467 684.749 182.723ZM540.059 725.636C551.463 720.471 557.111 706.912 565.833 697.885C582.76 680.254 607.589 679.622 627.75 669.031C668.312 649.825 704.367 606.85 709.026 556.323V555.831C708.715 545.692 704.982 547.567 703.521 555.771C699.904 578.216 686.139 596.891 670.887 611.002C651.332 629.386 626.111 636.186 602.003 643.005C571.116 652.032 532.879 660.055 517.244 695.408C508.851 715.858 520.282 734.131 540.059 725.636ZM402.14 419.744C418.497 406.425 432.6 388.654 439.941 367.241C441.473 363.069 443.014 354.715 441.5 353.601L441.402 353.481C437.972 351.636 432.332 360.191 428.867 363.51C403.343 393.357 365.186 396.747 331.252 405.422C282.84 418.019 231.953 455.428 222.269 513.738C220.54 527.99 228.906 542.763 241.868 535.692C250.064 531.049 255.677 522.504 261.521 514.34C274.43 494.974 288.703 475.858 308.24 464.816C323.305 455.699 340.321 451.166 356.259 445.148C372.5 439.181 388.269 431.107 402.14 419.694V419.744ZM350.192 262.175C340.757 271.602 353.31 272.635 359.413 271.572C395.663 265.705 429.669 286.064 465.162 289.364H465.598C475.562 289.184 485.456 287.452 494.998 284.219C507.011 280.095 517.961 272.766 526.919 262.857C540.745 246.81 528.406 247.251 515.961 251.825C460.137 270.028 428.074 221.667 367.404 251.463C361.319 254.522 355.154 257.601 350.192 262.175ZM392.394 159.074C391.316 158.322 389.347 159.987 387.048 163.256C384.75 166.526 382.594 170.527 380.518 174.028C363.894 202.842 340.116 223.341 312.685 236.68C292.524 248.144 265.807 247.201 248.292 263.86C233.503 281.491 251.499 298.962 268.782 298.791C328.151 298.089 374.273 232.177 391.725 172.654C392.723 168.863 394.398 161.481 392.527 159.164L392.394 159.074ZM605.077 106.019C596.48 104.114 587.259 106.019 578.466 106.12C535.756 108.125 507.372 111.816 478.071 150.158C465.598 163.537 451.879 175.301 435.468 181.8C425.321 185.581 415.138 189.984 407.485 198.69C403.717 203.022 399.414 208.428 400.287 211.728L400.367 211.888C402.479 213.703 406.015 211.306 408.492 210.604C427.522 203.323 448.03 202.35 467.941 199.953C503.31 195.019 523.177 177.969 548.603 151.512C564.701 138.564 582.065 126.77 600.471 118.656C606.948 116.56 615.919 109.931 605.077 106.019ZM99.2717 339.761C99.5301 346.009 101.054 361.284 106.185 361.655C107.138 361.464 107.967 360.221 108.742 358.215C110.524 353.04 110.898 347.012 112.056 341.386C115.94 321.056 122.622 301.008 139.816 291.039C143.38 288.622 146.943 286.175 149.554 283.156C156.209 276.266 154.712 264.421 147.505 259.026C139.415 252.837 128.52 256.939 121.455 263.378C102.924 281.341 99.2539 312.522 99.245 339.209L99.2717 339.761ZM363.279 52.5433C350.041 146.537 250.474 196.112 176.396 160.939C172.227 158.883 160.904 154.009 163.3 163.066C166.312 170.036 172.833 175.452 178.116 180.627C193.867 194.417 215.418 203.443 235.677 203.814H236.086C301.531 205.449 373.195 162.835 381.079 87.2745C381.884 76.0158 380.245 64.7058 376.304 54.3184C372.651 44.229 365.898 39.8462 363.279 52.5433ZM812.423 134.713C799.559 116.219 774.489 113.371 756.573 122.287C743.575 128.545 733.508 138.333 725.535 150.87C722.612 156.075 717.517 161.341 717.748 167.499C720.269 175.081 732.163 160.478 735.976 158.392C752.342 145.585 770.088 140.841 789.429 147.5C793.67 148.834 798.205 150.649 802.437 150.77H802.855C811.533 151.091 817.84 143.92 812.423 134.713ZM286.921 126.298C249.601 132.025 215.649 118.837 185.359 94.3853C180.405 90.4438 175.024 86.1011 169.269 83.8345C154.623 77.0146 137.527 90.1228 139.87 107.905C141.081 118.074 149.376 126.96 157.331 132.757C176.29 146.798 199.381 152.204 221.645 152.284H222.099C247.356 151.161 275.321 147.119 296.836 130.962C298.217 129.427 298.618 128.053 297.834 127.151C295.963 125.125 290.128 125.937 286.921 126.298ZM798.027 656.104C787.835 658.21 777.982 660.406 767.95 662.623C713.303 671.278 675.208 698.126 660.98 760.508C657.515 774.659 656.526 789.262 655.092 803.784C654.842 806.272 654.878 809.641 656.588 811.146C659.395 813.412 662.174 810.364 664.107 807.134C683.057 775.251 706.273 749.476 736.154 733.088C746.266 727.071 758.061 723.811 768.689 718.606C787.398 708.837 804.013 689.07 806.615 665.29V664.799C806.989 657.257 804.584 654.559 798.027 656.104ZM477.857 748.373C508.406 770.176 547.507 768.281 581.29 759.184C584.853 758.101 591.036 756.306 592.774 752.745L592.854 752.495C592.729 746.939 575.633 749.145 571.214 748.623C541.814 747.36 516.041 730.22 489.759 717.021C458.311 701.987 452.574 730.33 477.857 748.373ZM459.567 671.739C459.683 680.655 459.059 691.858 464.663 698.517C469.456 704.344 476.975 704.204 482.276 698.146C491.889 687.114 495.194 671.278 495.221 656.284C494.446 598.776 465.18 550.355 422.283 520.368C415.232 515.347 407.497 511.661 399.387 509.456C385.721 505.936 388.821 515.022 397.053 521.19C439.549 556.192 459.603 613.56 459.54 671.208L459.567 671.739ZM785.162 568.979C784.726 558.469 780.948 548.791 777.251 539.303C771.131 523.928 766.355 507.761 760.618 492.165C759.014 487.301 753.491 477.252 752.422 488.745C757.001 553.595 773.411 587.353 734.604 645.031C732.492 648.782 731.334 651.771 732.136 652.954L732.243 653.105C733.134 654.298 736.038 653.486 739.584 651.671C767.763 636.998 786.24 603.731 785.162 568.979ZM288.854 901.8C317.22 893.586 340.259 870.399 357.711 844.874C397.338 787.146 408.029 692.149 369.649 630.579C355.644 608.164 335.795 591.465 311.1 586.671C305.754 585.919 300.747 585.578 299.937 589.148C299.857 593.842 306.574 597.844 309.915 600.873C345.978 627.249 361.711 674.287 361.373 723.009V723.51C358.816 787.286 332.374 846.048 286.965 885.302C283.785 888.16 279.776 891.39 277.263 894.619C271.098 903.485 282.457 903.716 288.854 901.8ZM270.306 887.268C319.26 842.407 364.028 748.864 323.643 682.872C313.407 664.819 298.743 648.772 294.529 627.29C293.513 618.955 291.464 603.751 286.253 618.083C275.179 666.694 299.269 713.28 307.411 760.227C316.32 803.604 293.781 844.523 269.005 875.634C265.263 881.03 256.078 889.675 256.319 894.9L256.381 895.041C259.517 897.407 267.081 890.046 270.306 887.268ZM708.91 662.482C735.513 628.383 751.308 582.98 743.005 537.117C741.369 529.123 739.146 521.297 736.359 513.718C735.165 509.987 731.985 503.93 729.927 504.191C727.067 503.669 726.541 512.495 726.844 516.306C731.486 597.673 681.364 669.653 618.511 704.023C605.888 711.295 592.426 716.058 579.027 720.933C575.57 722.267 572.31 724.022 570.911 725.777C566.786 730.741 577.887 731.794 582.029 731.383H582.502C631.715 729.498 676.322 705.728 708.91 662.482ZM184.29 856.548C212.798 841.063 234.634 804.847 232.264 769.063C230.821 750.489 221.191 734.191 207.382 723.931C198.214 716.801 182.276 709.489 172.931 718.616C163.755 728.234 171.835 739.988 181.091 745.043C193.323 751.853 203.631 763.848 205.235 779.574C207.907 809.661 186.464 834.093 166.802 851.223C163.122 854.934 154.659 859.878 153.99 864.983L154.035 865.133C158.712 869.797 178.668 859.627 184.29 856.548ZM544.968 842.858C541.458 839.94 532.932 836.921 524.977 834.835C500.815 828.186 475.086 823.903 450.712 831.575C405.169 846.99 375.395 894.108 332.098 914.658C316.304 922.328 299.31 926.372 282.11 926.552C274.386 926.763 266.403 925.61 258.67 925.299C253.325 925.128 249.655 925.69 248.933 927.305C246.893 929.31 255.704 935.809 260.844 938.337C293.095 954.384 331.002 958.626 364.357 944.776C426.159 919.702 455.674 846.489 527.872 850.38H528.362C536.122 850.21 552.648 849.558 544.968 842.858ZM123.575 882.203C110.363 889.755 95.2004 890.598 80.9282 886.776C73.8723 885.603 65.0614 879.967 58.3441 883.457C53.9876 887.89 59.7784 895.361 65.0347 900.416C75.077 909.578 87.5506 914.7 100.474 914.969H100.956C116.644 915.32 134.088 908.229 140.52 890.758C141.919 886.526 143.246 880.017 139.683 876.938C135.317 873.999 128.092 879.916 123.593 882.203H123.575ZM289.282 962.317C281.575 956.981 281.843 981.894 281.7 986.758V987.35C282.172 1000.54 281.531 1019.73 293.282 1026.73C294.577 1027.39 295.998 1027.66 297.412 1027.51C298.825 1027.37 300.182 1026.82 301.353 1025.92C310.155 1016.77 302.244 1002.16 299.571 990.88C296.863 982.556 294.137 967.151 289.264 962.317H289.282ZM150.329 830.071C147.906 822.358 131.843 832.077 126.034 832.077C90.6479 838.094 51.7158 832.879 20.1247 855.074C14.4141 859.236 6.55641 863.95 3.56301 870.669L3.47392 870.96C2.21776 879.184 16.8373 870.84 20.8196 869.255C25.3821 867.214 30.0609 865.518 34.8245 864.18C47.773 860.711 61.2137 860.246 74.3267 862.817C86.3181 864.822 98.657 870.338 110.568 868.964C121.598 867.962 131.308 860.861 138.676 851.855C143.041 846.228 151.131 837.292 150.329 830.071ZM205.368 1047.08H205.796C227.632 1046.49 246.421 1032.04 260.88 1013.53C263.9 1009.45 267.695 1004.33 268.158 999.044C267.268 989.396 251.632 1006.06 247.846 1007.74C241.395 1012.09 234.439 1015.42 227.177 1017.63C205.796 1024.27 189.626 1021.54 170.294 1010.78C161.251 1007.26 160.316 1015.66 163.906 1022.54C171.71 1037.88 189.448 1047.27 205.368 1047.08ZM382.077 1027.85H382.567C418.043 1026.06 450.908 1011.23 472.592 975.234C479.719 963.721 480.432 954.103 466.801 965.526C422.479 1001.7 350.441 1012.66 308.676 967.622C304.338 963.761 299.634 962.808 299.99 970.069C301.451 981.242 308.293 991.823 315.091 1000.02C332.125 1019.93 357.168 1027.56 382.077 1027.85ZM200.451 1011.48C209.965 1011.71 220.184 1010.29 228.006 1003.53C234.839 998.021 237.378 986.277 228.897 981.753C226.046 980.119 221.77 980.089 218.527 980.59C201.101 983.178 182.829 989.396 166.855 980.329C163.764 978.925 153.857 971.153 153.554 978.584C153.83 981.854 155.897 984.832 157.679 987.35C168.485 1001.39 183.559 1010.59 200.014 1011.42L200.451 1011.48ZM528.406 886.255C533.645 878.623 540.879 862.325 525.983 864.541C489.67 875.704 458.81 902.422 429.018 927.184C406.862 946.24 381.801 961.213 353.702 965.215C348.357 966.419 338.557 966.218 335.43 969.728L335.368 969.869C335.368 975.385 352.553 977.581 357.355 978.344C424.279 987.41 491.203 949.71 528.406 886.255ZM903.517 924.627L903.633 924.777C904.524 925.86 906.751 924.406 909.219 921.768C918.245 911.772 924.764 899.268 928.115 885.523C941.674 830.272 931.278 778.39 898.911 734.693C889.165 721.534 878.537 709.439 868.069 697.153C865.494 693.964 860.665 690.213 857.253 692.971C849.235 701.646 862.518 720.261 866.421 729.317C872.078 740.349 878.661 750.78 884.283 761.792C905.558 804.165 919.794 855.455 907.544 904.207C906.564 910.114 902.056 919.351 903.517 924.627ZM846.794 735.686C844.869 735.516 842.938 735.912 841.19 736.836C839.442 737.76 837.938 739.18 836.825 740.956C835.711 742.732 835.028 744.804 834.84 746.968C834.653 749.131 834.968 751.312 835.756 753.297C839.026 762.805 846.839 769.805 852.638 777.478C866.287 794.367 877.138 813.242 883.49 834.644C884.773 839.488 890.947 855.365 892.399 843.53C890.733 812.44 879.151 782.773 866.349 755.273C862.322 746.728 856.443 736.498 847.195 735.716L846.794 735.686ZM871.098 58.6109H871.16C874.501 60.0251 877.77 56.3042 876.782 52.443C876.704 52.122 876.615 51.7877 876.514 51.44C876.011 50.0247 875.317 48.7054 874.456 47.5286C865.458 33.588 857.271 18.5541 857.636 0H831.061C830.82 20.7305 852.166 50.2265 871.098 58.6109ZM760.244 929.15C737.232 915.059 709.205 913.374 684.161 919.552C658.459 926.312 633.532 941.616 617.54 965.687C610.182 977.722 617.487 977.371 625.781 972.175C650.931 956.51 681.284 949.108 709.374 957.543C721.294 960.893 733.259 967.02 745.553 967.702H746.016C770.017 968.756 784.708 944.605 760.244 929.17V929.15ZM829.27 981.553C841.992 991.502 851.088 976.458 849.119 961.815C848.433 954.594 846.224 947.714 843.257 940.974C798.24 843.57 677.025 831.826 609.309 906.093C600.596 915.53 592.23 925.85 585.807 937.404C582.867 942.88 581.477 947.042 582.083 948.165V948.256C582.769 949.399 585.646 947.193 589.851 942.84C593.745 938.828 598.351 933.272 602.992 928.659C647.394 885.182 708.278 882.364 759.95 911.769C774.77 919.701 788.287 930.407 799.924 943.432C810.766 954.434 817.689 971.604 829.27 981.573V981.553ZM623.625 1008.12C611.937 1023.06 615.046 1049.01 635.02 1050.61C651.867 1050.04 663.466 1033.46 677.275 1024.78C701.079 1007.89 728.163 1004.3 755.567 1009.85C758.961 1010.3 766.712 1012.51 768.93 1009.98L769.028 1009.77C769.251 1005.18 762.587 1001.23 759.478 998.893C719.842 973.499 657.203 967.422 623.625 1008.12ZM26.0937 880.358C19.51 881.932 7.87493 885.112 0.756689 887.148V899.945C16.0622 895.933 25.7017 896.334 37.711 895.933C39.7868 895.863 43.0563 893.927 43.5463 892.002C44.1878 889.725 43.2256 885.984 41.7645 883.978C37.5684 878.582 31.6262 879.024 26.0937 880.358ZM745.678 208.879C760.199 194.557 778.872 186.083 797.216 179.895C800.272 178.802 809.011 176.625 806.633 171.641C803.336 167.699 792.975 168.361 787.407 168.11H786.971C721.659 167.86 679.627 232.167 681.899 300.095C682.54 357.633 747.905 408.812 724.555 465.036C721.704 470.903 719.209 482.226 728.76 478.395C734.933 475.035 739.121 468.155 743.299 462.238C766.694 429.202 755.914 387.019 738.568 353.922C725.356 329.471 711.476 302.322 716.982 272.896C721.624 249.518 730.72 226.23 745.678 208.879ZM700.474 87.1041L700.901 87.0439C704.465 86.7631 709.356 84.0351 707.85 81.3874C704.429 76.5132 695.307 75.3698 690.184 72.2206C671.778 63.1943 661.827 41.8521 647.172 27.42C639.929 19.3966 626.146 17.5211 623.162 30.9102C621.327 40.3878 626.111 50.1763 630.993 57.6682C646.53 80.916 675.751 87.3448 700.474 87.1041ZM105.633 763.998C95.138 777.929 107.833 778.29 117.214 774.81C125.271 771.846 132.808 767.326 139.487 761.451C163.024 741.392 171.497 707.112 170.926 674.818V674.287C170.286 654.383 166.553 634.76 159.897 616.307C153.064 598.355 142.142 582.82 129.313 568.919C112.662 551.318 105.071 554.959 116.992 579.009C138.551 623.91 148.716 681.698 129.215 729.247C123.887 742.596 114.328 753.267 105.633 763.998ZM753.812 767.087C735.869 781.539 715.04 790.927 695.716 803.032C679.071 814.015 663.793 827.434 650.281 842.939C646.771 847.432 640.214 853.479 639.225 858.985V859.156C639.367 859.998 640.231 860.159 641.612 859.507C644.82 858.033 648 854.813 650.833 852.266C661.363 842.48 673.288 834.773 686.104 829.469C701.249 822.84 717.926 821.125 733.499 816.371C761.696 807.946 786.57 793.304 807.532 768.531C828.326 744.06 844.772 715.046 842.34 679.271C841.672 668.56 839.667 658.109 837.778 647.649C834.865 630.83 829.921 634.611 828.023 648.461C818.793 697.554 789.75 739.216 753.812 767.087ZM398.701 825.658C396.029 831.425 396.857 835.266 402.211 830.924C432.128 794.367 442.061 743.288 442.818 694.285V693.773C443.237 610.38 397.677 499.206 311.723 507.52C274.903 511.02 239.124 545.471 234.215 587.754C232.434 603.801 234.999 620.299 242.323 634.14C244.683 638.883 250.474 645.894 254.065 641.401C257.049 637.7 257.486 632.194 258.564 627.48C261.486 611.694 266.118 596.028 274.929 582.76C304.543 537.789 352.749 566.091 376.304 602.818C405.356 644.941 419.432 697.454 418.916 750.679C419.138 777.668 412.483 803.353 398.701 825.658ZM833.066 519.174C843.418 516.256 849.992 473.18 850.812 461.697C852.852 405.483 860.612 364.523 893.281 319.963C899.981 312.191 902.359 302.181 890.181 309.864C846.928 337.294 815.755 385.504 815.453 441.578V442.14C815.568 466.872 819.283 490.621 826.277 510.99C827.488 514.35 829.288 519.545 833.066 519.174ZM524.62 202.962C514.26 209.682 502.964 214.378 491.212 216.852C488.165 217.685 484.085 218.357 482.035 220.864C479.853 226.25 493.412 225.217 497.27 225.297H497.715C538.794 224.405 581.326 211.948 611.999 180.537C647.127 139.236 685.23 118.145 735.691 110.332C748.217 106.721 744.226 101.516 734.542 101.486C665.56 102.068 596.453 130.751 546.269 184.147C539.676 191.248 532.478 197.947 524.62 202.962ZM36.8735 161.01C37.0116 160.852 37.1074 160.654 37.1497 160.438C37.2406 159.97 37.2308 159.484 37.1211 159.021C37.0115 158.558 36.8051 158.131 36.5192 157.775C36.2333 157.42 35.8762 157.147 35.4776 156.979C35.079 156.81 34.6504 156.752 34.2276 156.807C33.8198 156.827 33.4184 156.929 33.0427 157.108C25.7284 160.929 18.8597 165.954 11.2336 168.893C7.79797 170.363 4.28758 171.603 0.721054 172.603V192.221C15.1446 185.752 26.5035 172.704 36.8735 161.01ZM0.783416 138.945V161.822C14.7705 157.75 26.1828 149.737 36.6775 140.059C41.5774 135.535 45.8627 130.12 50.1479 124.824C50.3563 124.536 50.4917 124.189 50.5398 123.821C50.6061 123.274 50.56 122.717 50.4051 122.194C50.2503 121.67 49.9908 121.193 49.6467 120.8C49.3025 120.406 48.8828 120.107 48.4199 119.925C47.9569 119.743 47.4631 119.683 46.9763 119.749C46.7446 119.749 46.513 119.809 46.2903 119.86C45.6221 119.99 45.1232 120.953 44.5085 121.424C16.873 141.523 2.72557 138.594 0.783416 138.975V138.945ZM127.46 123.821C125.019 115.978 118.061 123.651 116.038 127.923C78.1932 188.169 141.188 273.427 198.001 239.92C203.132 237.212 222.785 219.861 209.582 216.913C166.258 212.209 129.553 183.896 127.923 133.6V133.128C127.816 130.079 128.172 126.88 127.46 123.851V123.821ZM0.614146 73.0631C0.614146 86.7129 0.507239 102.93 0.765598 115.718C10.9396 116.269 17.2115 113.882 22.8419 110.703C32.0716 105.417 33.0605 94.2348 26.1115 85.4593C19.5991 77.2052 11.0376 73.9056 0.614146 73.0631ZM92.4208 156.165L92.3406 156.075C87.8148 155.935 82.6298 180.406 80.7055 185.772C74.2643 209.842 66.175 234.033 66.4512 259.417C66.665 270.9 69.1952 284.018 77.4627 291.41C88.9195 301.58 98.2383 289.675 98.4967 275.995C99.0579 266.437 97.3029 256.839 95.824 247.452C91.5744 223.291 89.5075 199.071 92.0822 174.679C92.4208 169.715 94.1758 159.666 92.4208 156.196V156.165ZM18.2093 338.166C29.7018 388.423 59.1013 430.626 103.111 451.687C109.642 454.466 118.15 459.45 124.68 457.865L124.956 457.765C136.422 451.066 108.43 414.87 103.192 407.158C87.8148 385.805 72.6607 363.751 58.9321 340.844C38.985 305.08 23.2161 263.519 32.9091 220.814C33.7999 217.264 35.5817 206.422 32.3834 206.873C29.9067 207.184 26.2808 213.964 25.0514 217.655C10.61 256.037 8.15111 296.796 18.2093 338.166ZM937.291 907.828C937.772 907.717 938.262 907.587 938.725 907.427C947.893 904.418 950.699 903.064 959.831 899.935V887.148C948.579 890.227 942.592 894.95 934.886 902.783L934.832 902.833C932.952 904.829 934.734 908.43 937.291 907.838V907.828ZM543.953 925.881C544.487 922.26 544.077 918.469 544.104 914.748C540.852 916.633 536.977 917.817 534.438 920.515C521.172 934.516 514.045 952.538 509.591 972.005C504.379 994.741 521.422 1062.58 533.841 1080H580.06C576.595 1075.13 573.539 1070.3 570.145 1065.38C541.485 1023.84 536.318 976.699 543.953 925.881ZM298.957 1040.55C270.894 1044.5 243.65 1055.53 214.776 1052.94C214.355 1052.93 213.939 1053.05 213.573 1053.28C213.093 1053.58 212.687 1054.01 212.391 1054.52C212.094 1055.04 211.918 1055.64 211.877 1056.25C211.837 1056.87 211.933 1057.48 212.158 1058.04C212.382 1058.61 212.728 1059.1 213.164 1059.47C213.467 1059.75 213.834 1059.93 214.224 1059.99C223.222 1060.99 232.282 1062.09 241.298 1061.89C268.194 1061.29 295.126 1060.47 321.389 1068.34C330.259 1070.89 338.771 1074.81 346.682 1080H410.479C378.451 1051.21 332.356 1035.87 298.957 1040.55ZM492.005 1014.61C492.14 1012.43 491.914 1010.24 491.336 1008.16C489.252 998.813 481.251 995.905 473.242 1001.51C466.751 1005.94 461.857 1012.8 459.425 1020.9C453.028 1041.52 455.3 1061.19 465.732 1080H515.355C515.007 1079.24 489.1 1038.5 492.005 1014.61ZM938.253 1055.6C929.603 1060.55 921.834 1065 921.709 1079.86C934.485 1079.86 947.135 1080 959.911 1080V1048.7C951.724 1048.44 944.98 1051.75 938.253 1055.6ZM44.3481 510.74C28.6149 502.516 14.6457 491.142 0.596329 477.553C0.596329 497.932 0.49833 518.101 0.721054 536.575C10.0843 544.468 17.5946 549.162 25.0514 551.328C32.5081 553.494 40.3837 553.093 48.0542 554.106C65.0881 556.353 80.4115 562.32 90.7102 579.239C91.3962 580.353 94.2738 580.814 94.942 580.593C102.354 578.156 91.129 558.268 86.7814 551.047C76.1983 533.475 61.5158 519.528 44.3481 510.74ZM713.41 1035.05C696.295 1035.69 680.206 1040.7 665.845 1051.52C664.223 1052.74 663.475 1055.42 662.326 1057.42C664.241 1057.82 666.299 1058.95 668.036 1058.5C687.021 1053.65 705.454 1056.04 723.076 1064.67C731.218 1068.68 738.515 1074.82 746.239 1080H811.435C775.728 1050.72 745.375 1033.87 713.418 1035.05H713.41ZM827.551 1004.28C818.642 992.435 807.782 982.395 797.26 972.186C790.793 965.947 782.57 965.095 774.783 968.735C771.692 970.18 768.342 974.081 767.522 977.581C766.908 980.249 769.456 984.882 771.754 987.149C776.378 991.712 781.991 994.972 786.846 999.275C810.294 1020.08 824.05 1047.67 830.99 1079.95H857.717C857.458 1077.14 857.396 1074.29 856.897 1071.55C852.346 1046.68 842.246 1023.53 827.551 1004.28ZM598.68 1003.13C597.299 982.736 601.353 963.771 614.164 948.075C614.291 947.911 614.399 947.729 614.485 947.534C615.616 944.916 613.273 942.048 610.725 942.519C610.44 942.569 610.164 942.629 609.879 942.699C609.202 942.87 608.658 943.702 608.035 944.244C573.192 973.83 562.599 1042.08 604.471 1079.99H652.134C619.34 1058.28 601.166 1039.79 598.68 1003.13ZM99.7795 976.809C100.06 976.51 100.271 976.138 100.394 975.726C100.593 975.03 100.63 974.288 100.503 973.571C100.375 972.854 100.088 972.186 99.6664 971.629C99.2452 971.073 98.7047 970.647 98.0962 970.391C97.4877 970.136 96.8313 970.059 96.1893 970.17C95.1827 970.262 94.2122 970.634 93.3651 971.253C63.6894 995.935 54.7449 1043.35 72.5895 1080H101.624C98.4521 1075.08 95.1202 1070.28 92.1357 1065.22C74.9503 1036.02 77.0261 999.525 99.7795 976.809ZM55.5912 995.654C42.5129 977.902 17.4164 976.468 0.747781 981.934C0.49833 992.745 0.605238 1006.08 0.605238 1017.74C14.913 1018.74 25.7908 1026.08 37.3813 1030.66C40.6509 1031.95 43.876 1034.32 47.3326 1034.1C59.0033 1033.36 63.048 1023.3 61.9344 1012.52C61.2388 1006.35 59.0439 1000.51 55.5912 995.654ZM131.584 993.217C131.816 984.191 125.865 979.005 117.802 979.878C112.154 980.49 108.19 983.89 105.054 989.005C93.1246 1008.32 92.2159 1029.7 96.7594 1051.56C98.7907 1061.34 102.996 1070.53 106.265 1080H130.658C128.181 1063.6 125.143 1035.87 128.662 1015.73C129.963 1008.29 131.397 1000.77 131.584 993.217ZM155.015 1033.21C151.336 1028.64 149.215 1024.02 146.106 1019.64C145.853 1019.28 145.553 1018.97 145.215 1018.71C144.769 1018.38 144.263 1018.17 143.734 1018.09C143.205 1018.01 142.667 1018.06 142.159 1018.24C141.651 1018.43 141.186 1018.74 140.799 1019.15C140.412 1019.57 140.113 1020.07 139.923 1020.64C139.834 1020.94 139.792 1021.26 139.799 1021.58C139.977 1028.07 142.587 1057.92 152.271 1080H235.124C226.616 1077.44 168.378 1051.4 155.015 1033.21ZM135.157 963.801C131.633 958.374 127.685 953.313 123.362 948.677C101.873 926.683 75.9125 915.871 47.5643 911.649C33.4525 909.563 18.6458 905.491 0.756689 910.024C0.355787 922.822 0.658691 944.946 0.658691 958.465C49.7291 941.335 94.4342 945.889 129.179 970.089C129.798 970.469 130.498 970.646 131.201 970.601C131.823 970.609 132.439 970.467 133.008 970.185C133.576 969.904 134.085 969.488 134.499 968.966C134.914 968.445 135.224 967.829 135.41 967.162C135.595 966.494 135.652 965.789 135.576 965.095C135.52 964.627 135.361 964.182 135.112 963.801H135.157ZM0.631964 1048.7V1080H49.8895C39.0384 1061.47 22.0134 1049.25 0.578511 1048.7H0.631964ZM223.881 965.275C234.572 959.067 242.821 936.19 227.302 931.126C216.246 928.839 205.992 937.073 195.426 939.57C182.784 943.412 169.982 943.341 157.705 938.728C152.449 937.404 143.567 930.945 138.997 934.786L138.836 935.017C137.482 937.645 139.914 941.757 141.616 944.194C160.752 970.13 197.555 982.927 223.828 965.275H223.881ZM877.459 158.924C871.757 155.353 866.866 150.118 861.155 146.557C851.079 140.259 838.91 141.603 831.204 149.285C822.437 157.921 822.446 168.341 825.27 180.306C828.13 192.391 835.827 198.038 844.816 202.501C860.184 210.113 876.514 211.748 893.067 211.176C916.334 210.573 939.186 204.113 959.947 192.271V172.603C958.423 172.794 956.891 172.914 955.376 173.185C927.972 178.029 901.816 174.178 877.405 158.914L877.459 158.924ZM871.222 225.969C860.861 223.712 850.037 221.767 839.631 222.7C815.47 224.886 797.884 240.512 783.942 261.814C783.825 262.005 783.726 262.21 783.648 262.425C782.614 265.364 785.518 268.303 788.102 267.159C788.415 267.027 788.714 266.855 788.993 266.648C797.706 260.239 806.971 255.154 817.448 254.613C830.936 253.961 844.478 254.392 857.984 254.101C869.565 253.85 881.307 254.512 892.675 252.567C920.213 247.853 940.329 228.115 959.964 207.856V202.631C956.704 204.476 953.194 205.921 950.227 208.237C926.075 227.112 899.802 232.197 871.133 225.959L871.222 225.969ZM903.918 114.033C899.963 107.373 897.032 99.9916 893.272 93.1417C888.657 84.7572 882.011 79.8328 872.942 81.2771C864.167 82.6611 858.376 88.8491 856.3 98.1362C855.284 103.405 855.366 108.866 856.541 114.093C859.088 126.078 866.34 134.673 874.938 141.683C900.613 162.664 929.38 167.819 959.911 161.792V138.975C953.808 138.093 920.231 139.005 903.829 114.023L903.918 114.033ZM919.197 1025.18C919.127 1025.34 919.067 1025.51 919.019 1025.68C917.95 1029.48 921.95 1032.7 924.917 1030.54L925.077 1030.42C935.714 1021.85 947.233 1017.26 960 1017.68V981.934C940.311 987.731 928.008 1004.13 919.108 1025.17L919.197 1025.18ZM900.275 0.0702047H875.125C875.321 1.79524 879.695 45.2018 927.607 94.646C937.407 102.399 947.741 113.702 959.911 115.707V73.0631C940.16 72.2307 908.079 31.0405 900.275 0.0702047ZM921.709 0.0200585C921.709 6.11784 921.255 11.3331 921.798 16.4379C923.072 28.3025 925.825 39.6657 935.465 47.4183C937.081 48.6213 939.017 49.1565 940.944 48.9327C941.701 48.8023 942.628 45.6532 942.441 44.0184C940.703 29.0949 947.911 18.5742 959.911 16.9394V0.0200585H921.709ZM939.893 346.922C940.694 368.555 944.347 382.646 952.231 402.223C954.463 407.386 957.023 412.36 959.893 417.107V227.514C958.45 230.021 956.659 232.358 955.617 235.056C941.808 270.81 938.494 308.47 939.893 346.922ZM947.144 862.365L959.911 847.602V802.25C952.08 813.342 942.467 844.373 941.737 859.627C941.688 860.354 941.84 861.081 942.171 861.708C942.503 862.334 942.997 862.831 943.588 863.13C944.179 863.429 944.837 863.516 945.473 863.379C946.11 863.243 946.693 862.888 947.144 862.365ZM944.89 450.474C944.782 450.117 944.629 449.78 944.436 449.471C944.028 448.791 943.466 448.247 942.808 447.893C942.15 447.54 941.421 447.39 940.695 447.46C939.969 447.529 939.272 447.815 938.677 448.289C938.082 448.762 937.61 449.406 937.309 450.153C937.184 450.471 937.105 450.81 937.077 451.156C936.267 462.188 935.447 473.27 935.545 484.323C935.696 503.539 943.029 519.565 954.601 533.275C955.946 534.86 958.102 535.572 959.884 536.685V477.743C952.454 470.342 947.706 461.125 944.89 450.424V450.474ZM898.733 669.382C880.612 655.161 867.552 635.905 856.505 614.663C856.394 614.46 856.272 614.266 856.14 614.081C855.581 613.35 854.844 612.818 854.021 612.552C853.197 612.286 852.322 612.297 851.504 612.584C850.686 612.871 849.96 613.421 849.416 614.166C848.872 614.911 848.533 615.82 848.442 616.779C848.418 617.114 848.436 617.452 848.496 617.782C856.959 665.682 880.256 700.553 920.765 719.488C933.238 725.295 946.414 727.442 959.911 724.012V683.503C937.22 691.447 917.255 683.925 898.733 669.382ZM875.125 1080H900.31C902.778 1016.98 920.044 978.554 953.969 960.883C955.875 959.88 957.924 959.218 959.911 958.405V910.024C905.638 926.673 860.603 1014.2 875.125 1080ZM928.222 635.313C910.859 633.377 894.479 625.334 881.405 612.326C881.078 612.02 880.719 611.761 880.336 611.554C877.45 609.999 873.966 612.557 874.412 616.167C874.462 616.543 874.555 616.911 874.688 617.26C876.487 621.701 878.829 625.836 881.646 629.546C893.228 644.59 908.631 653.616 926.191 659.193C937.202 662.663 948.463 664.328 959.911 661.73V634.3C949.336 634.701 938.628 636.476 928.222 635.313ZM935.955 545.381C934.019 540.356 931.388 535.708 928.159 531.611C920.32 521.361 907.375 522.343 901.041 533.616C898.655 537.717 897.042 542.325 896.304 547.155C895.565 551.986 895.716 556.936 896.747 561.698C902.288 588.777 930.413 609.066 959.911 613.038V571.407C947.911 566.041 940.267 557.245 935.955 545.381ZM894.555 903.224V902.693C894.421 891.721 892.283 879.365 887.989 869.596C884.425 862.215 880.238 863.579 880.541 872.846C885.887 938.758 855.365 950.071 858.349 984.572C858.536 994.009 867.258 1012.12 870.741 993.598C872.256 975.415 882.733 960.16 887.829 943.201C891.912 930.353 894.182 916.864 894.555 903.224ZM559.303 979.838H559.427C560.015 979.928 560.514 979.196 560.88 977.832C562.145 971.604 561.664 964.794 562.341 958.215C563.509 943.022 567.926 928.374 575.214 915.52C588.301 893.115 604.213 872.745 620.48 853.339C625.826 846.88 631.073 840.301 634.868 832.528C648.962 802.942 631.661 783.385 606.449 802.641C563.686 840.301 544.977 908.239 554.964 967.973C555.641 971.564 557.12 978.584 559.303 979.838ZM870.902 513.678C903.152 481.113 926.253 438.048 930.173 388.934C930.458 375.114 930.698 358.967 923.58 347.002C921.609 344.156 919.095 341.846 916.224 340.242C913.352 338.638 910.197 337.781 906.992 337.735C894.519 337.374 886.501 351.044 882.501 362.648C873.877 397.188 882.323 433.926 874.26 468.627C869.806 488.946 861.396 507.741 850.367 524.61C848.211 527.87 843.578 534.75 844.656 537.066L844.745 537.247C845.511 538.922 849.2 536.374 850.678 534.9C857.494 528.02 863.971 520.528 870.902 513.678ZM869.316 878.984C869.022 876.557 868.594 874.089 868.078 871.642C860.131 833.23 831.212 812.871 798.588 811.938H798.116C784.742 811.874 771.76 817.023 761.375 826.511C756.751 830.432 748.814 841.775 759.255 843.229C789.545 843.45 817.706 865.083 833.431 893.616C838.607 901.77 842.188 917.606 852.834 917.687C867.347 915.31 871.107 892.904 869.316 878.984ZM919.322 252.687C895.615 268.473 867.178 258.855 841.752 266.878C830.669 269.797 816.557 277.911 815.417 292.272C814.125 306.765 828.727 316.503 840.255 316.433H840.7C871.249 313.093 899.909 289.214 921.469 265.534C925.843 260.379 931.197 255.505 934.467 249.488C938.628 238.546 922.476 251.092 919.322 252.687ZM811.06 208.618C815.167 205.539 823.043 197.426 813.991 195.42C770.507 195.42 732.546 233.942 733.695 284.089V284.6C733.918 298.531 737.134 312.431 743.495 326.893C749.393 339.931 755.967 335.86 755.299 322.4C754.444 276.888 778.988 234.835 811.06 208.618ZM851.151 71.8897C847.436 55.9131 831.364 45.1116 817.297 44.5399H816.824C795.443 44.229 778.169 58.4003 769.367 79.1609C768.208 82.2499 765.384 88.1872 768.075 90.6143C770.159 91.9883 775.826 86.7631 778.605 84.5065C790.757 74.387 801.269 70.295 815.675 75.4099C823.943 78.0276 831.408 84.005 839.729 86.0109C847.106 87.8362 852.888 80.1337 851.168 71.8897H851.151ZM786.009 292.533C783.746 290.467 779.968 286.857 777.189 288.863C775.932 289.976 776.182 292.744 777.001 295.743C780.414 306.303 782.222 317.626 779.247 328.528C775.897 342.158 766.168 352.217 761.224 364.914C757.224 374.242 758.123 386.628 764.11 394.651C770.159 401.892 778.365 395.413 784.013 389.807C796.681 377.16 803.515 359.147 804.085 340.152V339.621C803.898 321.468 797.911 304.498 786.026 292.533H786.009ZM790.507 434.758C790.689 423.858 793.214 413.169 797.866 403.607C798.944 401.21 800.682 396.496 798.428 395.183C789.884 393.267 778.712 409.695 775.647 417.959C763.986 449.742 766.988 485.396 779.086 516.386C787.63 539.102 799.39 561.076 799.826 586.501V587.012C799.96 598.044 795.594 610.511 788.191 619.878C784.057 625.595 777.768 630.589 777.287 638.492C778.382 653.035 797.127 642.283 803.47 638.492C809.551 634.693 814.699 629.255 818.455 622.666C829.333 600.933 828.139 572.911 822.909 549.372C814.633 517.188 800.637 487.191 792.788 454.997C791.214 448.399 790.452 441.589 790.525 434.758H790.507ZM43.4572 625.825C43.4925 625.564 43.4784 625.297 43.4157 625.042C43.353 624.788 43.2432 624.551 43.0935 624.347C42.9437 624.144 42.7575 623.978 42.5469 623.861C42.3363 623.744 42.1061 623.679 41.8714 623.669C41.7142 623.663 41.558 623.701 41.4171 623.779C29.5771 631.041 13.7994 632.806 0.712145 634.32C0.435968 641.682 0.578511 654.379 0.578511 661.75C20.1069 660.015 41.4794 641.25 43.4572 625.825ZM65.0881 680.304C78.3179 663.375 88.3583 644.49 92.002 622.014C92.1141 620.972 91.9724 619.914 91.5922 618.955C91.3532 618.256 90.9818 617.624 90.5038 617.103C90.0258 616.582 89.4527 616.185 88.8244 615.939C88.196 615.692 87.5276 615.603 86.8655 615.677C86.2034 615.751 85.5637 615.987 84.9907 616.368C84.3219 616.812 83.7203 617.374 83.2089 618.033C79.2088 623.308 76.0818 629.426 71.948 634.571C52.6513 658.691 29.5415 675.821 0.890324 683.062V724.042C30.7353 715.768 49.7024 700.002 65.0881 680.304ZM44.5441 579.47C31.2876 584.384 19.0735 580.142 6.96622 574.455C5.10425 573.583 3.13538 572.339 0.890324 571.517V613.098C16.1068 613.539 28.2586 607.251 39.0295 597.051C42.484 593.585 45.6181 589.734 48.3839 585.558C50.6111 582.419 49.7826 576.652 44.5441 579.47ZM169.492 914.678H169.929C217.974 915.55 256.826 857.631 256.238 785.712C256.149 780.286 255.49 768.973 251.784 767.398C246.082 768.401 246.438 792.11 244.345 798.93C235.757 846.459 205.324 870.469 165.474 879.094C141.803 887.057 144.093 914.758 169.492 914.678ZM645.782 740.831C647.261 737.321 651.127 728.575 646.976 727.331C642.708 727.562 638.289 734.924 634.726 738.895C623.644 752.301 610.137 762.875 595.117 769.905C575.997 778.972 554.937 781.542 534.536 777.297C520.985 774.97 507.64 769.053 494.054 769.023C469.296 768.02 449.055 787.557 436.725 810.193C433.25 816.06 431.165 824.645 439.103 821.747C442.952 820.132 446.952 816.953 450.783 814.837C459.015 809.982 468.601 809.671 478.142 809.822C495.132 810.183 512.771 814.716 529.324 816.221H529.778C582.412 817.554 625.656 790.817 645.782 740.831ZM30.5393 831.345C30.076 839.609 45.7647 829.81 49.7113 829.399C58.8875 826.621 68.4824 827.052 77.9348 827.393C97.5969 828.827 116.742 824.836 133.17 812.44C161.42 790.947 128.662 784.247 110.497 783.034H110.007C83.298 781.77 40.3302 802.19 30.5393 831.345ZM0.58742 847.321C19.1982 829.269 32.8645 808.618 43.4394 785.541C47.6205 776.276 50.4739 766.324 51.894 756.055C52.7849 749.496 51.0922 741.703 48.5531 735.505C43.974 724.323 31.84 723.29 25.3899 733.269C21.5116 739.492 18.2803 746.195 15.7593 753.247C11.9196 763.437 8.69455 783.957 0.409241 803.022C0.721054 815.95 0.58742 833.28 0.58742 847.321ZM48.8293 228.256C48.4908 237.763 49.2124 247.311 49.8271 256.859C49.838 257.065 49.8771 257.268 49.9429 257.461C50.8338 260.079 54.1836 259.958 55.413 257.521C55.5734 257.2 55.7248 256.869 55.8585 256.518C56.2327 255.636 55.8585 254.372 55.8585 253.289C55.8585 235.978 57.1503 218.688 62.5758 202.511C68.9101 183.626 74.1574 163.778 84.0196 146.908C109.446 103.442 111.807 21.9139 101.624 0.0902632H72.5895C76.9459 10.1195 80.6075 18.2833 81.9171 27.0589C86.8616 61.3489 83.4851 94.6461 72.3578 127.101C61.1415 159.796 50.0944 192.642 48.8293 228.256ZM128.466 61.0982C130.392 65.564 133.429 69.3041 137.207 71.8642C140.985 74.4244 145.343 75.6945 149.75 75.5203C156.592 75.4501 159.55 70.3753 157.135 63.2645C156.131 60.4395 154.82 57.7648 153.233 55.3013C143.157 39.4551 130.8 5.15504 130.667 0.140409H106.265C108.368 8.58504 109.259 12.1755 111.112 17.3005C116.502 32.0635 121.972 46.8968 128.466 61.0982ZM174.615 21.8337C197.466 35.5637 222.046 39.6256 247.561 37.1784C265.851 35.4233 283.286 30.0878 298.841 18.6444L298.921 18.5842C302.315 15.9766 300.204 9.68826 296.133 10.28H296.07C275.455 13.7 236.496 0.852486 234.91 0.0902632C208.638 0.0200584 179.675 0.0902632 151.763 0.0902632C157.828 9.18399 165.639 16.617 174.615 21.8337ZM32.2409 37.2186C37.3457 49.023 39.3057 61.4893 36.8646 74.5875C35.4748 82.0794 37.7555 87.6256 43.0563 90.3736C47.9563 92.8408 53.7471 91.216 57.0166 84.8675C60.0368 78.9603 67.4223 55.9331 55.5645 12.3861C54.4241 8.21396 49.8895 0.0902632 49.8895 0.0902632H0.578511C0.58742 2.74802 0.792325 11.0522 0.792325 16.8993C15.4475 16.2374 26.0313 22.8567 32.2409 37.2186ZM0.640873 405.954C0.640873 408.732 0.721054 413.827 0.721054 417.107C10.218 433.153 25.8175 465.688 47.297 483.661C54.1725 489.376 62.2681 492.943 70.7631 494.001C82.2111 495.605 94.2293 489.478 98.8085 479.789C102.443 472.107 100.67 462.94 94.9687 458.999C52.874 429.914 23.5279 389.446 9.24691 335.98C0.961596 304.939 -0.891464 273.387 8.90837 242.237C12.4185 231.044 17.8173 220.623 22.0847 209.692C22.3714 208.719 22.3993 207.673 22.1649 206.683C22.0924 206.212 21.9302 205.765 21.6892 205.372C21.4483 204.979 21.1344 204.65 20.7694 204.406C20.4043 204.163 19.9967 204.012 19.5747 203.964C19.1527 203.915 18.7263 203.97 18.3251 204.125C17.5661 204.363 16.8753 204.819 16.3206 205.449C14.3161 208.017 4.64099 218.166 0.721054 227.514C-0.820193 253.991 0.58742 300.948 0.596329 327.535C0.596329 353.672 0.569602 379.818 0.640873 405.954ZM826.108 38.3819C826.664 38.5901 827.254 38.6571 827.836 38.5782C828.418 38.4994 828.977 38.2765 829.474 37.9257C829.97 37.5748 830.391 37.1047 830.707 36.5489C831.023 35.9932 831.226 35.3656 831.301 34.7112C831.416 34.0057 831.361 33.2784 831.141 32.6051C826.446 20.219 812.691 0.110322 811.247 0.100292C787.87 0.0200584 769.589 0.040117 746.212 0.040117C787.746 26.3468 798.775 14.5424 825.252 37.8705C825.512 38.0896 825.801 38.2622 826.108 38.3819ZM203.123 54.85C198.749 52.3627 194.446 49.5846 190.089 47.1174C187.212 45.5127 183.764 44.1688 181.849 45.2319C178.561 47.1776 181.546 52.7438 183.399 55.4818C203.453 84.4262 229.12 101.416 257.512 102.89H257.984C338.878 105.327 351.35 -3.02884 329.203 23.1475C300.231 71.4584 248.256 81.588 203.123 54.85ZM601.353 62.6327C606.823 64.468 612.738 64.8191 618.494 65.2704C619.937 65.3807 622.137 63.5554 622.832 61.9808C623.287 60.9778 621.941 58.4505 620.899 57.1366C619.634 55.5621 617.79 54.5892 616.24 53.2954C599.981 39.6757 598.057 31.9432 580.06 0.0702047H533.841C534.661 1.85541 573.147 53.1651 601.353 62.6327ZM686.977 19.4166C687.272 19.345 687.555 19.2196 687.814 19.0455C688.419 18.6224 688.907 18.0193 689.226 17.3029C689.545 16.5865 689.681 15.7847 689.621 14.9864C689.56 14.188 689.304 13.4242 688.881 12.7794C688.459 12.1346 687.886 11.634 687.226 11.3331C686.942 11.2044 686.641 11.1332 686.335 11.1224C675.965 11.0322 657.479 2.1262 652.134 0.160468C638.182 -0.0501464 618.449 0.0902632 604.489 0.0601755C625.95 19.4267 668.393 23.649 687.003 19.4166H686.977ZM694.104 59.0723C703.916 65.942 715.227 69.615 726.782 69.6832H727.281C745.179 69.9039 763.504 60.5366 773.981 43.9883C777.126 39.445 779.906 31.1609 777.803 28.2925C770.534 18.2633 745.045 55.6122 702.327 46.8667C688.785 43.888 679.458 47.2177 694.148 59.0723H694.104ZM624.276 90.5742C624.416 90.5564 624.556 90.5296 624.694 90.4939C627.242 89.8019 627.982 85.5395 625.674 84.1254C624.243 83.4287 622.75 82.9075 621.22 82.5708C575.633 74.6076 529.636 24.5416 515.364 0.0902632H465.741C466.997 2.98872 468.218 4.9043 469.144 6.68951C504.245 74.066 570.172 95.6891 624.276 90.5742ZM415.441 159.776C412.768 162.785 409.321 165.041 407.993 168.802C406.906 172.293 409.775 174.038 413.018 173.085C424.172 169.906 433.464 161.591 443.54 155.584C457.653 147.023 470.287 135.681 480.842 122.096C490.748 110.362 497.288 95.5386 497.029 78.85V78.3485C498.178 41.8822 452.484 28.1421 449.375 70.4555C451.451 104.495 437.045 136.779 415.441 159.806V159.776ZM410.808 112.177C410.842 112.441 410.89 112.702 410.951 112.959C411.156 113.934 411.612 114.818 412.261 115.502C412.911 116.186 413.725 116.639 414.602 116.804C415.479 116.969 416.38 116.838 417.192 116.429C418.004 116.02 418.69 115.35 419.165 114.504C419.43 114.051 419.637 113.558 419.78 113.04C422.711 101.817 425.954 90.524 427.272 79.0004C430.301 52.6435 435.139 35.664 413.846 4.52319C412.913 2.86394 411.78 1.35856 410.479 0.0501462H346.682C355.217 6.61931 362.976 11.995 370.264 18.9653C395.717 43.3364 406.247 76.1521 410.808 112.177Z" fill="url(#paint0_linear_127_6)"/>
<path d="M1740.49 536.314V535.803C1740.04 504.822 1729.87 474.384 1710.64 452.008C1704.33 443.985 1695.01 439.291 1700.4 456.14C1702.94 463.585 1705.07 471.202 1706.77 478.947C1733.3 596.46 1643.91 699.871 1549.18 730.952C1540.92 734.583 1537.11 741.824 1547.95 743.388C1555.28 744.05 1563.25 742.676 1570.68 741.382C1658.51 725.045 1739.15 639.866 1740.49 536.314ZM1432.25 773.616C1475.51 763.025 1515.69 797.486 1558.1 798.158H1558.59C1575.59 798.158 1592.72 792 1607.26 781.991C1614.91 776.655 1622.61 770.567 1628.64 763.226C1636.59 753.448 1633.45 749.977 1621.64 754.2C1573.87 775.903 1543 760.889 1495.87 748.182C1483.27 744.742 1470.04 742.054 1457.08 743.95C1445.23 745.535 1432.66 751.743 1424.94 761.581C1416.65 772.383 1423.21 774.98 1432.25 773.616ZM1661.89 773.035C1714.57 784.067 1762.13 724.894 1764.08 665.972V665.461C1762.18 645.643 1753.25 674.487 1750.21 678.94C1746.29 686.254 1741.59 693.003 1736.22 699.039C1694.01 744.993 1682.13 713.621 1656.84 727.753C1638.72 739.748 1641.22 767.127 1661.89 773.035ZM1628.62 860.64C1631.01 860.909 1633.42 860.865 1635.81 860.51C1709.81 851.975 1795.78 792.612 1799.67 703.051V702.509C1799.88 683.654 1796.59 663.335 1789.57 648.582C1788.09 645.573 1785.75 641.04 1782.45 641.451C1780.05 641.662 1778.84 647.057 1778.88 650.868C1781.28 692.991 1768.81 732.527 1744.84 765.001C1715.44 806.442 1673.7 832.709 1629.64 848.916C1623.28 851.714 1620.24 859.266 1628.62 860.64ZM1802.9 577.514C1798.58 556.293 1784.13 540.005 1774.52 521.631C1765.25 505.805 1757.2 488.966 1749.4 472.067C1747.46 468.226 1745.08 460.473 1742.12 458.608L1741.96 458.548C1737.79 459.42 1741.06 474.504 1741.71 478.766C1747.1 507.791 1752.62 536.796 1758.26 565.78C1760.24 575.679 1762.66 585.789 1767.78 594.223C1784.09 621.653 1808.06 609.026 1802.9 577.514ZM1855.52 340.995C1857.69 318.188 1838.51 310.155 1823.78 324.426C1795.96 353.2 1796.72 405.934 1800.82 445.098L1800.88 445.65C1802.01 455.549 1804.15 473.932 1807.57 480.07C1807.72 480.433 1807.92 480.761 1808.18 481.033C1808.44 481.305 1808.74 481.516 1809.08 481.655C1810.12 481.765 1810.86 479.097 1811.27 474.534C1811.81 468.908 1811.73 461.606 1812.23 455.589C1815.11 421.58 1835.53 394.691 1848.57 364.864C1851.87 357.443 1854.88 349.259 1855.52 340.995ZM1646.5 268.784C1645.69 263.348 1644.66 259.226 1643.38 258.484L1643.25 258.424C1642.22 257.912 1641.03 259.547 1639.94 262.777C1638.85 266.26 1638.06 269.854 1637.59 273.508C1629.15 330.233 1650.24 391.542 1692.1 425.351C1703.05 434.858 1721.3 444.135 1732.58 430.917C1740.88 420.767 1739.38 402.905 1732.49 391.973C1718.31 370.621 1695.62 358.877 1679.1 339.992C1660.89 320.936 1649.22 296.645 1646.5 268.784ZM1297.18 890.026C1360.52 855.435 1422.57 767.388 1423.19 685.72V685.199C1423.75 622.335 1391.35 556.273 1336.69 535.432C1298.38 520.388 1253.67 534.82 1228.52 570.895C1218.42 584.204 1210.12 606.108 1233.32 588.517C1244.69 580.052 1257.99 575.453 1271.63 575.268C1301.11 574.967 1328.27 590.914 1347.9 615.034C1371.95 643.928 1384.61 688.318 1375.31 730.671C1365.9 773.797 1347.37 814.104 1323.38 849.407C1315.97 860.011 1307.7 869.809 1298.66 878.673C1295 882.153 1285.89 893.436 1297.14 890.006L1297.18 890.026ZM1307.64 816.953C1306.58 820.172 1306.17 823.071 1306.88 824.685C1311.72 831.244 1323.72 812.991 1327.14 808.639C1348.59 778.761 1362.77 742.827 1363.41 703.442V702.92C1363.31 648.522 1326.74 606.048 1277.09 604.002C1267.78 603.36 1260.16 607.692 1270.57 616.639C1326.94 654.83 1337.63 733.981 1314.59 798.7C1312.47 804.817 1309.67 810.885 1307.61 816.933L1307.64 816.953ZM1611.64 601.003C1611.31 599.569 1608.37 598.405 1603.63 597.723C1590.65 596.319 1573.34 596.299 1559.45 596.42C1513.84 595.597 1470.36 623.499 1446.3 666.574C1438.41 680.746 1424.81 708.868 1439.56 721.675C1459.78 731.072 1476.4 682.751 1486.88 668.109C1509.42 629.225 1541.23 614.332 1581.17 610.942C1587.38 610.213 1593.56 609.085 1599.66 607.562C1607.23 605.556 1612.02 603.129 1611.61 601.133L1611.64 601.003ZM1363.84 484.894C1346.45 484.814 1330.04 489.087 1315.21 499.527C1312.71 501.282 1309.17 504.923 1309.45 507.139C1310.11 512.154 1314.74 510.69 1318.11 510.71C1324.48 510.71 1330.91 510.258 1337.22 510.99C1359.25 513.548 1378.75 521.852 1393.35 541.981C1406 559.362 1416.38 577.765 1421.23 599.91C1424.52 614.954 1435.95 625.565 1447.27 625.765C1459.61 625.986 1470.98 615.987 1475.77 601.334C1479.25 590.673 1476.97 580.965 1473.38 571.056C1454.95 520.217 1410.46 485.115 1363.84 484.894ZM1409.28 453.513L1408.81 453.312C1357.97 434.959 1260.04 455.318 1240.68 512.104C1240.13 514.914 1240.36 517.846 1241.35 520.499C1242.34 523.151 1244.04 525.393 1246.21 526.917C1254.23 531.49 1264.27 525.112 1271.42 520.508C1304.76 492.507 1336.62 460.674 1380.69 460.212C1387.82 459.921 1394.88 460.985 1401.93 462.349C1405.49 462.98 1409.33 463.903 1412.08 462.81C1417.38 460.624 1413.4 454.807 1409.3 453.513H1409.28ZM1235.25 897.277C1228.22 908.631 1220.35 919.302 1211.74 929.18C1210.35 930.695 1208.28 933.493 1208.39 934.736V934.947C1209.02 937.705 1213.74 936.522 1218.02 934.817C1229.08 929.802 1239.04 921.578 1247.59 912.351C1281.74 874.43 1302.82 823.221 1302.59 769.053C1302.91 742.325 1292.91 717.603 1287.08 692.199C1282.78 676.212 1284.06 659.102 1279.2 643.306C1265.66 603.089 1232.47 635.213 1230.48 663.886C1225.84 713.18 1270.19 733.088 1265.41 801.718C1262.89 835.838 1251.83 868.533 1235.25 897.277ZM1379.94 354.364C1368.54 359.529 1362.89 373.088 1354.17 382.115C1337.24 399.746 1312.41 400.378 1292.25 410.969C1251.69 430.175 1215.63 473.15 1210.97 523.677V524.169C1211.29 534.308 1215.02 532.433 1216.48 524.229C1220.1 501.784 1233.86 483.109 1249.11 468.998C1268.67 450.614 1293.89 443.815 1318 436.995C1348.88 427.968 1387.12 419.945 1402.76 384.592C1411.15 364.142 1399.72 345.869 1379.94 354.364ZM1517.86 660.256C1501.5 673.575 1487.4 691.346 1480.06 712.759C1478.53 716.931 1476.99 725.285 1478.5 726.399L1478.6 726.519C1482.03 728.364 1487.67 719.809 1491.13 716.49C1516.66 686.643 1554.81 683.253 1588.75 674.578C1637.16 661.981 1688.05 624.572 1697.73 566.262C1699.46 552.01 1691.09 537.237 1678.13 544.308C1669.94 548.951 1664.32 557.496 1658.48 565.66C1645.57 585.026 1631.3 604.142 1611.76 615.184C1596.7 624.301 1579.68 628.834 1563.74 634.852C1547.5 640.819 1531.73 648.893 1517.86 660.306V660.256ZM1569.81 817.825C1579.24 808.398 1566.69 807.365 1560.59 808.428C1524.34 814.295 1490.33 793.936 1454.84 790.636H1454.4C1444.44 790.816 1434.54 792.548 1425 795.781C1412.99 799.905 1402.04 807.234 1393.08 817.143C1379.25 833.19 1391.59 832.749 1404.04 828.176C1459.86 809.972 1491.93 858.333 1552.6 828.537C1558.68 825.478 1564.85 822.399 1569.81 817.825ZM1527.61 920.926C1528.68 921.678 1530.65 920.013 1532.95 916.744C1535.25 913.474 1537.41 909.473 1539.48 905.972C1556.11 877.158 1579.88 856.659 1607.31 843.32C1627.48 831.856 1654.19 832.799 1671.71 816.14C1686.5 798.509 1668.5 781.038 1651.22 781.209C1591.85 781.911 1545.73 847.823 1528.27 907.346C1527.28 911.137 1525.6 918.519 1527.47 920.836L1527.61 920.926ZM1314.92 973.981C1323.52 975.886 1332.74 973.981 1341.53 973.88C1384.24 971.875 1412.63 968.184 1441.93 929.842C1454.4 916.463 1468.12 904.699 1484.53 898.2C1494.68 894.419 1504.86 890.016 1512.51 881.311C1516.28 876.978 1520.59 871.572 1519.71 868.272L1519.63 868.112C1517.52 866.297 1513.98 868.694 1511.51 869.396C1492.48 876.677 1471.97 877.65 1452.06 880.047C1416.69 884.981 1396.82 902.031 1371.4 928.488C1355.3 941.436 1337.93 953.23 1319.53 961.344C1313.05 963.44 1304.08 970.069 1314.92 973.981ZM1820.73 740.239C1820.47 733.991 1818.95 718.716 1813.81 718.345C1812.86 718.536 1812.03 719.779 1811.26 721.785C1809.48 726.96 1809.1 732.988 1807.94 738.614C1804.06 758.944 1797.38 778.992 1780.18 788.961C1776.62 791.378 1773.06 793.825 1770.45 796.844C1763.79 803.734 1765.29 815.579 1772.5 820.975C1780.58 827.163 1791.48 823.061 1798.55 816.622C1817.08 798.659 1820.75 767.479 1820.75 740.791L1820.73 740.239ZM1556.72 1027.46C1569.96 933.463 1669.53 883.888 1743.6 919.061C1747.77 921.117 1759.1 925.991 1756.7 916.934C1753.69 909.964 1747.17 904.548 1741.88 899.373C1726.13 885.583 1704.58 876.557 1684.32 876.186H1683.91C1618.47 874.551 1546.81 917.165 1538.92 992.725C1538.12 1003.98 1539.76 1015.29 1543.7 1025.68C1547.35 1035.77 1554.1 1040.15 1556.72 1027.46ZM1107.58 945.287C1120.44 963.781 1145.51 966.629 1163.43 957.713C1176.42 951.455 1186.49 941.667 1194.47 929.13C1197.39 923.925 1202.48 918.659 1202.25 912.501C1199.73 904.919 1187.84 919.522 1184.02 921.608C1167.66 934.415 1149.91 939.159 1130.57 932.5C1126.33 931.166 1121.8 929.351 1117.56 929.23H1117.14C1108.47 928.909 1102.16 936.08 1107.58 945.287ZM1633.08 953.702C1670.4 947.975 1704.35 961.163 1734.64 985.615C1739.59 989.556 1744.98 993.899 1750.73 996.165C1765.38 1002.99 1782.47 989.877 1780.13 972.095C1778.92 961.926 1770.62 953.04 1762.67 947.243C1743.71 933.202 1720.62 927.796 1698.36 927.716H1697.9C1672.64 928.839 1644.68 932.881 1623.16 949.038C1621.78 950.573 1621.38 951.947 1622.17 952.849C1624.04 954.875 1629.87 954.063 1633.08 953.702ZM1121.97 423.896C1132.17 421.79 1142.02 419.594 1152.05 417.377C1206.7 408.722 1244.79 381.874 1259.02 319.492C1262.49 305.341 1263.47 290.738 1264.91 276.216C1265.16 273.728 1265.12 270.359 1263.41 268.854C1260.61 266.588 1257.83 269.637 1255.89 272.866C1236.94 304.749 1213.73 330.524 1183.85 346.912C1173.73 352.929 1161.94 356.189 1151.31 361.394C1132.6 371.163 1115.99 390.93 1113.39 414.71V415.201C1113.01 422.743 1115.42 425.441 1121.97 423.896ZM1442.14 331.627C1411.59 309.824 1372.49 311.719 1338.71 320.816C1335.15 321.899 1328.96 323.694 1327.23 327.255L1327.15 327.505C1327.27 333.062 1344.37 330.855 1348.79 331.377C1378.19 332.64 1403.96 349.78 1430.24 362.979C1461.69 378.013 1467.43 349.67 1442.14 331.627ZM1460.43 408.261C1460.32 399.345 1460.94 388.142 1455.34 381.483C1450.54 375.656 1443.02 375.796 1437.72 381.854C1428.11 392.886 1424.81 408.722 1424.78 423.716C1425.55 481.224 1454.82 529.645 1497.72 559.632C1504.77 564.653 1512.5 568.339 1520.61 570.544C1534.28 574.064 1531.18 564.978 1522.95 558.81C1480.45 523.808 1460.4 466.441 1460.46 408.792L1460.43 408.261ZM1134.84 511.021C1135.27 521.531 1139.05 531.209 1142.75 540.697C1148.87 556.072 1153.64 572.239 1159.38 587.835C1160.99 592.699 1166.51 602.748 1167.58 591.255C1163 526.405 1146.59 492.647 1185.4 434.969C1187.51 431.218 1188.67 428.229 1187.86 427.046L1187.76 426.895C1186.87 425.702 1183.96 426.514 1180.42 428.329C1152.24 443.002 1133.76 476.269 1134.84 511.021ZM1631.15 178.2C1602.78 186.414 1579.74 209.601 1562.29 235.126C1522.66 292.854 1511.97 387.851 1550.35 449.421C1564.36 471.836 1584.2 488.535 1608.9 493.329C1614.25 494.081 1619.25 494.422 1620.06 490.852C1620.14 486.158 1613.43 482.156 1610.09 479.128C1574.02 452.751 1558.29 405.713 1558.63 356.991V356.49C1561.18 292.714 1587.63 233.953 1633.03 194.698C1636.22 191.84 1640.22 188.61 1642.74 185.381C1648.9 176.515 1637.54 176.284 1631.15 178.2ZM1649.69 192.732C1600.74 237.593 1555.97 331.136 1596.36 397.128C1606.59 415.181 1621.26 431.228 1625.47 452.71C1626.49 461.045 1628.54 476.249 1633.75 461.917C1644.82 413.306 1620.73 366.72 1612.59 319.773C1603.68 276.396 1626.22 235.477 1651 204.366C1654.74 198.97 1663.92 190.325 1663.68 185.1L1663.62 184.96C1660.48 182.593 1652.92 189.954 1649.69 192.732ZM1211.09 417.518C1184.49 451.617 1168.69 497.02 1177 542.883C1178.63 550.877 1180.85 558.703 1183.64 566.282C1184.83 570.013 1188.02 576.07 1190.07 575.81C1192.93 576.331 1193.46 567.505 1193.16 563.694C1188.51 482.327 1238.64 410.347 1301.49 375.977C1314.11 368.705 1327.57 363.942 1340.97 359.067C1344.43 357.733 1347.69 355.978 1349.09 354.223C1353.21 349.259 1342.11 348.206 1337.97 348.617H1337.5C1288.29 350.502 1243.68 374.272 1211.09 417.518ZM1735.71 223.452C1707.2 238.937 1685.37 275.153 1687.74 310.937C1689.18 329.511 1698.81 345.809 1712.62 356.069C1721.79 363.199 1737.72 370.511 1747.07 361.384C1756.25 351.766 1748.16 340.012 1738.91 334.957C1726.68 328.147 1716.37 316.152 1714.77 300.426C1712.09 270.339 1733.54 245.907 1753.2 228.777C1756.88 225.067 1765.34 220.122 1766.01 215.017L1765.97 214.867C1761.29 210.203 1741.33 220.373 1735.71 223.452ZM1375.03 237.142C1378.54 240.06 1387.07 243.079 1395.02 245.165C1419.18 251.815 1444.91 256.097 1469.29 248.425C1514.83 233.01 1544.6 185.892 1587.9 165.342C1603.7 157.672 1620.69 153.628 1637.89 153.448C1645.61 153.237 1653.6 154.39 1661.33 154.701C1666.67 154.872 1670.35 154.31 1671.07 152.695C1673.11 150.69 1664.3 144.191 1659.16 141.663C1626.91 125.617 1589 121.374 1555.64 135.225C1493.84 160.298 1464.33 233.511 1392.13 229.62H1391.64C1383.88 229.79 1367.35 230.442 1375.03 237.142ZM1796.42 197.797C1809.64 190.245 1824.8 189.402 1839.07 193.224C1846.13 194.397 1854.94 200.033 1861.66 196.543C1866.01 192.11 1860.22 184.639 1854.97 179.584C1844.92 170.422 1832.45 165.3 1819.53 165.031H1819.04C1803.36 164.68 1785.91 171.771 1779.48 189.242C1778.08 193.474 1776.75 199.983 1780.32 203.062C1784.68 206.001 1791.91 200.084 1796.41 197.797H1796.42ZM1630.72 117.683C1638.42 123.019 1638.16 98.1062 1638.3 93.2421V92.6503C1637.83 79.4619 1638.47 60.2659 1626.72 53.2655C1625.42 52.6124 1624 52.3442 1622.59 52.4865C1621.18 52.6287 1619.82 53.1766 1618.65 54.0778C1609.84 63.2346 1617.76 77.8371 1620.43 89.12C1623.14 97.4443 1625.86 112.849 1630.74 117.683H1630.72ZM1769.67 249.929C1772.09 257.642 1788.16 247.923 1793.97 247.923C1829.35 241.906 1868.28 247.121 1899.88 224.926C1905.59 220.764 1913.44 216.05 1916.44 209.331L1916.53 209.04C1917.78 200.816 1903.16 209.16 1899.18 210.745C1894.62 212.786 1889.94 214.482 1885.18 215.82C1872.23 219.29 1858.79 219.754 1845.67 217.184C1833.68 215.178 1821.34 209.662 1809.43 211.036C1798.4 212.039 1788.69 219.139 1781.32 228.145C1776.96 233.772 1768.87 242.708 1769.67 249.929ZM1714.63 32.916H1714.2C1692.37 33.5078 1673.58 47.96 1659.12 66.474C1656.1 70.5459 1652.3 75.6707 1651.84 80.9562C1652.73 90.6043 1668.37 73.9357 1672.15 72.2608C1678.61 67.9071 1685.56 64.5792 1692.82 62.372C1714.2 55.7326 1730.37 58.4607 1749.71 69.222C1758.75 72.7423 1759.68 64.3377 1756.09 57.4576C1748.29 42.1229 1730.55 32.7255 1714.63 32.916ZM1537.92 52.1523H1537.43C1501.96 53.9375 1469.09 68.7707 1447.41 104.766C1440.28 116.279 1439.57 125.897 1453.2 114.474C1497.52 78.2985 1569.56 67.3365 1611.32 112.378C1615.66 116.239 1620.37 117.192 1620.01 109.931C1618.55 98.7581 1611.71 88.1773 1604.91 79.9834C1587.88 60.0653 1562.83 52.4431 1537.92 52.1523ZM1719.55 68.5199C1710.03 68.2893 1699.82 69.7134 1691.99 76.4731C1685.16 81.9792 1682.62 93.7235 1691.1 98.2467C1693.95 99.8815 1698.23 99.9115 1701.47 99.41C1718.9 96.8225 1737.17 90.6044 1753.15 99.6708C1756.24 101.075 1766.14 108.848 1766.45 101.416C1766.17 98.1463 1764.1 95.1677 1762.32 92.6503C1751.51 78.6094 1736.44 69.4125 1719.99 68.5801L1719.55 68.5199ZM1391.59 193.745C1386.36 201.377 1379.12 217.675 1394.02 215.459C1430.33 204.296 1461.19 177.578 1490.98 152.816C1513.14 133.76 1538.2 118.787 1566.3 114.785C1571.64 113.581 1581.44 113.782 1584.57 110.272L1584.63 110.131C1584.63 104.615 1567.45 102.419 1562.65 101.657C1495.72 92.5901 1428.8 130.29 1391.59 193.745ZM1016.48 155.373L1016.37 155.223C1015.48 154.14 1013.25 155.594 1010.78 158.232C1001.75 168.228 995.236 180.732 991.885 194.477C978.326 249.728 988.722 301.61 1021.09 345.307C1030.83 358.466 1041.46 370.561 1051.93 382.847C1054.51 386.036 1059.33 389.787 1062.75 387.029C1070.76 378.354 1057.48 359.739 1053.58 350.683C1047.92 339.651 1041.34 329.22 1035.72 318.208C1014.44 275.835 1000.21 224.545 1012.46 175.793C1013.44 169.886 1017.94 160.649 1016.48 155.373ZM1073.21 344.314C1075.13 344.484 1077.06 344.088 1078.81 343.164C1080.56 342.24 1082.06 340.82 1083.18 339.044C1084.29 337.268 1084.97 335.196 1085.16 333.032C1085.35 330.869 1085.03 328.688 1084.24 326.703C1080.97 317.195 1073.16 310.195 1067.36 302.522C1053.71 285.633 1042.86 266.758 1036.51 245.356C1035.23 240.512 1029.05 224.635 1027.6 236.47C1029.27 267.561 1040.85 297.227 1053.65 324.727C1057.68 333.272 1063.56 343.502 1072.8 344.284L1073.21 344.314ZM1048.9 1021.39H1048.84C1045.5 1019.97 1042.23 1023.7 1043.22 1027.56C1043.3 1027.88 1043.38 1028.21 1043.49 1028.56C1043.99 1029.98 1044.68 1031.29 1045.54 1032.47C1054.54 1046.41 1062.73 1061.45 1062.36 1080H1088.94C1089.18 1059.27 1067.83 1029.77 1048.9 1021.39ZM1159.76 150.85C1182.77 164.941 1210.8 166.626 1235.84 160.448C1261.54 153.688 1286.47 138.384 1302.46 114.314C1309.82 102.278 1302.51 102.629 1294.22 107.825C1269.07 123.49 1238.72 130.892 1210.63 122.457C1198.71 119.107 1186.74 112.98 1174.45 112.298H1173.98C1149.98 111.245 1135.29 135.395 1159.76 150.83V150.85ZM1090.73 98.4472C1078.01 88.4982 1068.91 103.542 1070.88 118.185C1071.57 125.406 1073.78 132.286 1076.74 139.026C1121.76 236.43 1242.97 248.174 1310.69 173.907C1319.4 164.47 1327.77 154.15 1334.19 142.596C1337.13 137.12 1338.52 132.958 1337.92 131.835V131.744C1337.23 130.601 1334.35 132.807 1330.15 137.16C1326.26 141.172 1321.65 146.728 1317.01 151.342C1272.61 194.818 1211.72 197.636 1160.05 168.231C1145.23 160.299 1131.71 149.593 1120.08 136.568C1109.23 125.566 1102.31 108.396 1090.73 98.4272V98.4472ZM1296.37 71.8797C1308.06 56.9361 1304.95 30.9905 1284.98 29.3858C1268.13 29.9575 1256.53 46.5359 1242.73 55.2212C1218.92 72.1105 1191.84 75.7009 1164.43 70.1547C1161.04 69.7034 1153.29 67.4869 1151.07 70.0243L1150.97 70.2349C1150.75 74.8183 1157.41 78.7699 1160.52 81.1067C1200.16 106.501 1262.8 112.578 1296.37 71.8797ZM1893.91 199.642C1900.49 198.068 1912.13 194.888 1919.24 192.853V180.055C1903.94 184.067 1894.3 183.666 1882.29 184.067C1880.21 184.137 1876.94 186.073 1876.45 187.998C1875.81 190.275 1876.77 194.016 1878.24 196.022C1882.43 201.418 1888.37 200.976 1893.91 199.642ZM1174.32 871.121C1159.8 885.443 1141.13 893.917 1122.78 900.105C1119.73 901.198 1110.99 903.375 1113.37 908.359C1116.66 912.301 1127.02 911.639 1132.59 911.89H1133.03C1198.34 912.14 1240.37 847.833 1238.1 779.905C1237.46 722.367 1172.1 671.188 1195.45 614.964C1198.3 609.097 1200.79 597.774 1191.24 601.605C1185.07 604.965 1180.88 611.845 1176.7 617.762C1153.31 650.798 1164.09 692.981 1181.43 726.078C1194.64 750.529 1208.52 777.678 1203.02 807.104C1198.38 830.482 1189.28 853.77 1174.32 871.121ZM1219.53 992.896L1219.1 992.956C1215.54 993.237 1210.64 995.965 1212.15 998.613C1215.57 1003.49 1224.69 1004.63 1229.82 1007.78C1248.22 1016.81 1258.17 1038.15 1272.83 1052.58C1280.07 1060.6 1293.85 1062.48 1296.84 1049.09C1298.67 1039.61 1293.89 1029.82 1289.01 1022.33C1273.47 999.084 1244.25 992.655 1219.53 992.896ZM1814.37 316.002C1824.86 302.071 1812.17 301.71 1802.79 305.19C1794.73 308.154 1787.19 312.674 1780.51 318.549C1756.98 338.608 1748.5 372.888 1749.07 405.182V405.713C1749.71 425.617 1753.45 445.24 1760.1 463.693C1766.94 481.645 1777.86 497.18 1790.69 511.081C1807.34 528.682 1814.93 525.041 1803.01 500.991C1781.45 456.09 1771.28 398.302 1790.79 350.753C1796.11 337.404 1805.67 326.733 1814.37 316.002ZM1166.19 312.913C1184.13 298.461 1204.96 289.073 1224.28 276.968C1240.93 265.985 1256.21 252.566 1269.72 237.061C1273.23 232.568 1279.79 226.521 1280.78 221.015V220.844C1280.63 220.002 1279.77 219.841 1278.39 220.493C1275.18 221.967 1272 225.187 1269.17 227.734C1258.64 237.52 1246.71 245.227 1233.9 250.531C1218.75 257.16 1202.07 258.875 1186.5 263.629C1158.3 272.054 1133.43 286.696 1112.47 311.469C1091.67 335.94 1075.23 364.955 1077.66 400.729C1078.33 411.44 1080.33 421.891 1082.22 432.351C1085.13 449.17 1090.08 445.389 1091.98 431.539C1101.21 382.446 1130.25 340.784 1166.19 312.913ZM1521.3 254.342C1523.97 248.575 1523.14 244.734 1517.79 249.077C1487.87 285.633 1477.94 336.712 1477.18 385.715V386.227C1476.76 469.62 1522.32 580.794 1608.28 572.48C1645.1 568.98 1680.88 534.529 1685.78 492.246C1687.57 476.199 1685 459.701 1677.68 445.861C1675.32 441.117 1669.53 434.106 1665.94 438.599C1662.95 442.3 1662.51 447.806 1661.44 452.52C1658.51 468.306 1653.88 483.972 1645.07 497.24C1615.46 542.211 1567.25 513.909 1543.7 477.182C1514.64 435.059 1500.57 382.546 1501.08 329.321C1500.86 302.332 1507.52 276.647 1521.3 254.342ZM1086.93 560.826C1076.58 563.744 1070.01 606.82 1069.19 618.303C1067.15 674.517 1059.39 715.477 1026.72 760.037C1020.02 767.809 1017.64 777.819 1029.82 770.136C1073.07 742.706 1104.24 694.496 1104.55 638.422V637.86C1104.43 613.128 1100.72 589.379 1093.72 569.01C1092.51 565.65 1090.71 560.455 1086.93 560.826ZM1395.38 877.038C1405.74 870.318 1417.04 865.622 1428.79 863.148C1431.84 862.315 1435.92 861.643 1437.96 859.136C1440.15 853.75 1426.59 854.783 1422.73 854.703H1422.28C1381.21 855.595 1338.67 868.052 1308 899.463C1272.87 940.764 1234.77 961.855 1184.31 969.668C1171.78 973.279 1175.77 978.484 1185.46 978.514C1254.44 977.932 1323.55 949.249 1373.73 895.853C1380.32 888.752 1387.52 882.053 1395.38 877.038ZM1883.13 918.99C1882.99 919.148 1882.89 919.346 1882.85 919.562C1882.76 920.03 1882.77 920.516 1882.88 920.979C1882.99 921.442 1883.19 921.869 1883.48 922.225C1883.77 922.58 1884.12 922.853 1884.52 923.021C1884.92 923.19 1885.35 923.248 1885.77 923.193C1886.18 923.173 1886.58 923.071 1886.96 922.892C1894.27 919.071 1901.14 914.046 1908.77 911.107C1912.2 909.637 1915.71 908.397 1919.28 907.397V887.779C1904.86 894.248 1893.5 907.296 1883.13 918.99ZM1919.22 941.055V918.178C1905.23 922.25 1893.82 930.263 1883.32 939.941C1878.42 944.465 1874.14 949.88 1869.85 955.176C1869.64 955.464 1869.51 955.811 1869.46 956.179C1869.39 956.726 1869.44 957.283 1869.59 957.806C1869.75 958.33 1870.01 958.807 1870.35 959.2C1870.7 959.594 1871.12 959.893 1871.58 960.075C1872.04 960.257 1872.54 960.317 1873.02 960.251C1873.26 960.251 1873.49 960.191 1873.71 960.14C1874.38 960.01 1874.88 959.047 1875.49 958.576C1903.13 938.477 1917.27 941.406 1919.22 941.025V941.055ZM1792.54 956.179C1794.98 964.022 1801.94 956.349 1803.96 952.077C1841.81 891.831 1778.81 806.573 1722 840.08C1716.87 842.788 1697.21 860.139 1710.42 863.087C1753.74 867.791 1790.45 896.104 1792.08 946.4V946.872C1792.18 949.921 1791.83 953.12 1792.54 956.149V956.179ZM1919.39 1006.94C1919.39 993.287 1919.49 977.07 1919.23 964.283C1909.06 963.731 1902.79 966.118 1897.16 969.297C1887.93 974.583 1886.94 985.765 1893.89 994.541C1900.4 1002.79 1908.96 1006.09 1919.39 1006.94ZM1827.58 923.835L1827.66 923.925C1832.19 924.065 1837.37 899.594 1839.29 894.228C1845.74 870.158 1853.82 845.967 1853.55 820.583C1853.33 809.1 1850.8 795.982 1842.54 788.59C1831.08 778.42 1821.76 790.325 1821.5 804.005C1820.94 813.563 1822.7 823.161 1824.18 832.548C1828.43 856.709 1830.49 880.929 1827.92 905.321C1827.58 910.285 1825.82 920.334 1827.58 923.804V923.835ZM1901.79 741.834C1890.3 691.577 1860.9 649.374 1816.89 628.313C1810.36 625.534 1801.85 620.55 1795.32 622.135L1795.04 622.235C1783.58 628.934 1811.57 665.13 1816.81 672.842C1832.19 694.195 1847.34 716.249 1861.07 739.156C1881.02 774.92 1896.78 816.481 1887.09 859.186C1886.2 862.736 1884.42 873.578 1887.62 873.127C1890.09 872.816 1893.72 866.036 1894.95 862.345C1909.39 823.963 1911.85 783.204 1901.79 741.834ZM982.709 172.172C982.228 172.283 981.738 172.413 981.275 172.573C972.107 175.582 969.301 176.936 960.169 180.065V192.853C971.421 189.774 977.408 185.05 985.114 177.217L985.168 177.167C987.048 175.171 985.266 171.57 982.709 172.162V172.172ZM1376.05 154.12C1375.51 157.74 1375.92 161.531 1375.9 165.252C1379.15 163.367 1383.02 162.183 1385.56 159.485C1398.83 145.484 1405.95 127.462 1410.41 107.995C1415.62 85.2587 1398.58 17.4209 1386.16 6.50883e-05H1339.94C1343.41 4.87428 1346.46 9.6984 1349.86 14.6228C1378.52 56.1639 1383.68 103.301 1376.05 154.12ZM1621.04 39.4451C1649.11 35.5036 1676.35 24.4714 1705.22 27.059C1705.65 27.0726 1706.06 26.9546 1706.43 26.7181C1706.91 26.4214 1707.31 25.9944 1707.61 25.4759C1707.91 24.9575 1708.08 24.364 1708.12 23.7492C1708.16 23.1345 1708.07 22.518 1707.84 21.9558C1707.62 21.3936 1707.27 20.9034 1706.84 20.5299C1706.53 20.2483 1706.17 20.0678 1705.78 20.0084C1696.78 19.0055 1687.72 17.9124 1678.7 18.113C1651.81 18.7148 1624.87 19.5271 1598.61 11.6642C1589.74 9.11285 1581.23 5.18728 1573.32 6.50883e-05H1509.52C1541.55 28.794 1587.64 44.1287 1621.04 39.4451ZM1428 65.3909C1427.86 67.5686 1428.09 69.7556 1428.66 71.8397C1430.75 81.1869 1438.75 84.0954 1446.76 78.4891C1453.25 74.0616 1458.14 67.1957 1460.58 59.1025C1466.97 38.4824 1464.7 18.8149 1454.27 6.50883e-05H1404.65C1404.99 0.762288 1430.9 41.5012 1428 65.3909ZM981.747 24.4012C990.397 19.4468 998.166 15.0039 998.291 0.140526C985.515 0.140526 972.865 6.50883e-05 960.089 6.50883e-05V31.3013C968.276 31.5621 975.02 28.2524 981.747 24.4012ZM1875.65 569.26C1891.39 577.484 1905.35 588.858 1919.4 602.447C1919.4 582.068 1919.5 561.899 1919.28 543.425C1909.92 535.532 1902.41 530.838 1894.95 528.672C1887.49 526.506 1879.62 526.907 1871.95 525.894C1854.91 523.647 1839.59 517.68 1829.29 500.761C1828.6 499.647 1825.73 499.186 1825.06 499.407C1817.65 501.844 1828.87 521.732 1833.22 528.953C1843.8 546.525 1858.48 560.472 1875.65 569.26ZM1206.59 44.9512C1223.7 44.3093 1239.79 39.3048 1254.16 28.4832C1255.78 27.2596 1256.53 24.5818 1257.67 22.5759C1255.76 22.1848 1253.7 21.0515 1251.96 21.5028C1232.98 26.3469 1214.55 23.9601 1196.92 15.3349C1188.78 11.3232 1181.49 5.17516 1173.76 6.50883e-05H1108.57C1144.27 29.2755 1174.63 46.1346 1206.58 44.9512H1206.59ZM1092.45 75.7209C1101.36 87.5655 1112.22 97.6048 1122.74 107.815C1129.21 114.053 1137.43 114.905 1145.22 111.265C1148.31 109.82 1151.66 105.919 1152.48 102.419C1153.09 99.751 1150.54 95.1176 1148.25 92.851C1143.62 88.2877 1138.01 85.0281 1133.15 80.7255C1109.71 59.9249 1095.95 32.3344 1089.01 0.0502736H1062.28C1062.54 2.85846 1062.6 5.7068 1063.1 8.45481C1067.65 33.3177 1077.75 56.4667 1092.45 75.7209ZM1321.32 76.8744C1322.7 97.2638 1318.65 116.229 1305.84 131.925C1305.71 132.089 1305.6 132.271 1305.52 132.467C1304.38 135.084 1306.73 137.952 1309.27 137.481C1309.56 137.431 1309.84 137.371 1310.12 137.301C1310.8 137.13 1311.34 136.298 1311.97 135.756C1346.81 106.17 1357.4 37.9207 1315.53 0.0101273H1267.87C1300.66 21.7235 1318.83 40.2074 1321.32 76.8744ZM1820.22 103.191C1819.94 103.49 1819.73 103.862 1819.61 104.274C1819.41 104.97 1819.37 105.712 1819.5 106.429C1819.62 107.146 1819.91 107.814 1820.33 108.371C1820.75 108.927 1821.3 109.353 1821.9 109.609C1822.51 109.864 1823.17 109.941 1823.81 109.83C1824.82 109.738 1825.79 109.366 1826.63 108.747C1856.31 84.0653 1865.26 36.6469 1847.41 6.50883e-05H1818.38C1821.55 4.92443 1824.88 9.71847 1827.86 14.7832C1845.05 43.9784 1842.97 80.4748 1820.22 103.191ZM1864.41 84.3461C1877.49 102.098 1902.58 103.532 1919.25 98.0662C1919.5 87.2546 1919.39 73.9157 1919.39 62.2617C1905.09 61.2588 1894.21 53.9173 1882.62 49.344C1879.35 48.0502 1876.12 45.6834 1872.67 45.904C1861 46.6362 1856.95 56.6955 1858.07 67.477C1858.76 73.6499 1860.96 79.487 1864.41 84.3461ZM1788.42 86.7832C1788.18 95.8095 1794.14 100.995 1802.2 100.122C1807.85 99.5104 1811.81 96.1104 1814.95 90.9955C1826.88 71.6792 1827.78 50.2968 1823.24 28.4431C1821.21 18.6645 1817 9.46768 1813.73 6.50883e-05H1789.34C1791.82 16.3979 1794.86 44.1289 1791.34 64.2676C1790.04 71.7093 1788.6 79.2312 1788.42 86.7832ZM1764.99 46.7866C1768.66 51.36 1770.78 55.9834 1773.89 60.3562C1774.15 60.7164 1774.45 61.0309 1774.78 61.2889C1775.23 61.6196 1775.74 61.8332 1776.27 61.9141C1776.79 61.9949 1777.33 61.9409 1777.84 61.7561C1778.35 61.5712 1778.81 61.2602 1779.2 60.846C1779.59 60.4319 1779.89 59.9252 1780.08 59.3633C1780.17 59.0594 1780.21 58.7405 1780.2 58.4205C1780.02 51.9316 1777.41 22.0845 1767.73 6.50883e-05H1684.88C1693.38 2.55752 1751.62 28.6036 1764.99 46.7866ZM1784.84 116.199C1788.37 121.626 1792.31 126.687 1796.64 131.323C1818.13 153.317 1844.09 164.129 1872.44 168.351C1886.55 170.437 1901.35 174.509 1919.24 169.976C1919.64 157.178 1919.34 135.054 1919.34 121.535C1870.27 138.665 1825.57 134.111 1790.82 109.911C1790.2 109.531 1789.5 109.354 1788.8 109.399C1788.18 109.391 1787.56 109.533 1786.99 109.815C1786.42 110.097 1785.91 110.512 1785.5 111.034C1785.09 111.555 1784.78 112.171 1784.59 112.838C1784.4 113.506 1784.35 114.211 1784.42 114.905C1784.48 115.373 1784.64 115.818 1784.89 116.199H1784.84ZM1919.37 31.3013V6.50883e-05H1870.11C1880.96 18.5341 1897.99 30.7497 1919.42 31.3013H1919.37ZM1696.12 114.725C1685.43 120.933 1677.18 143.81 1692.7 148.874C1703.75 151.161 1714.01 142.927 1724.57 140.43C1737.22 136.588 1750.02 136.659 1762.29 141.272C1767.55 142.596 1776.43 149.055 1781 145.214L1781.16 144.983C1782.52 142.355 1780.09 138.243 1778.38 135.806C1759.25 109.871 1722.44 97.0733 1696.17 114.725H1696.12ZM1042.54 921.076C1048.24 924.647 1053.13 929.882 1058.84 933.443C1068.92 939.741 1081.09 938.397 1088.8 930.715C1097.56 922.079 1097.55 911.659 1094.73 899.694C1091.87 887.609 1084.17 881.962 1075.18 877.499C1059.82 869.887 1043.49 868.252 1026.93 868.824C1003.67 869.427 980.814 875.887 960.053 887.729V907.397C961.577 907.206 963.109 907.086 964.624 906.815C992.028 901.971 1018.18 905.822 1042.59 921.087L1042.54 921.076ZM1048.78 854.031C1059.14 856.288 1069.96 858.233 1080.37 857.3C1104.53 855.114 1122.12 839.488 1136.06 818.186C1136.18 817.995 1136.27 817.79 1136.35 817.575C1137.39 814.636 1134.48 811.697 1131.9 812.841C1131.58 812.973 1131.29 813.145 1131.01 813.352C1122.29 819.761 1113.03 824.846 1102.55 825.387C1089.06 826.039 1075.52 825.608 1062.02 825.899C1050.43 826.15 1038.69 825.488 1027.32 827.433C999.787 832.147 979.671 851.885 960.036 872.144V877.369C963.296 875.524 966.806 874.079 969.773 871.763C993.925 852.888 1020.2 847.803 1048.87 854.041L1048.78 854.031ZM1016.08 965.967C1020.04 972.627 1022.97 980.008 1026.73 986.858C1031.34 995.243 1037.99 1000.17 1047.06 998.723C1055.83 997.339 1061.62 991.151 1063.7 981.864C1064.72 976.595 1064.63 971.134 1063.46 965.907C1060.91 953.922 1053.66 945.327 1045.06 938.317C1019.39 917.336 990.62 912.181 960.089 918.208V941.025C966.192 941.907 999.769 940.995 1016.17 965.977L1016.08 965.967ZM1000.8 54.82C1000.87 54.6579 1000.93 54.4903 1000.98 54.3185C1002.05 50.5174 998.05 47.298 995.083 49.4643L994.923 49.5846C984.286 58.1496 972.767 62.7431 960 62.3219V98.0662C979.689 92.2693 991.992 75.8714 1000.89 54.8301L1000.8 54.82ZM1019.73 1079.93H1044.88C1044.68 1078.2 1040.31 1034.8 992.393 985.354C982.593 977.601 972.259 966.298 960.089 964.293V1006.94C979.84 1007.77 1011.92 1048.96 1019.73 1079.93ZM998.291 1079.98C998.291 1073.88 998.745 1068.67 998.202 1063.56C996.928 1051.7 994.175 1040.33 984.535 1032.58C982.919 1031.38 980.983 1030.84 979.056 1031.07C978.299 1031.2 977.372 1034.35 977.56 1035.98C979.297 1050.91 972.089 1061.43 960.089 1063.06V1079.98H998.291ZM980.107 733.078C979.306 711.445 975.653 697.354 967.769 677.777C965.537 672.614 962.977 667.64 960.107 662.893V852.486C961.55 849.979 963.341 847.642 964.383 844.944C978.192 809.19 981.506 771.53 980.107 733.078ZM972.856 217.635L960.089 232.398V277.75C967.92 266.658 977.533 235.627 978.263 220.373C978.312 219.646 978.16 218.919 977.829 218.293C977.497 217.666 977.003 217.169 976.412 216.87C975.821 216.571 975.163 216.484 974.527 216.621C973.89 216.758 973.307 217.112 972.856 217.635ZM975.11 629.526C975.218 629.883 975.371 630.22 975.564 630.529C975.972 631.209 976.534 631.753 977.192 632.107C977.85 632.46 978.579 632.61 979.305 632.54C980.031 632.471 980.728 632.185 981.323 631.711C981.918 631.238 982.39 630.594 982.691 629.847C982.817 629.529 982.895 629.19 982.923 628.844C983.733 617.812 984.553 606.73 984.455 595.677C984.304 576.461 976.972 560.435 965.399 546.725C964.054 545.14 961.898 544.428 960.116 543.315V602.257C967.546 609.658 972.294 618.875 975.11 629.576V629.526ZM1021.27 410.618C1039.39 424.839 1052.45 444.095 1063.5 465.337C1063.61 465.54 1063.73 465.734 1063.86 465.919C1064.42 466.65 1065.16 467.182 1065.98 467.448C1066.8 467.714 1067.68 467.703 1068.5 467.416C1069.31 467.129 1070.04 466.579 1070.58 465.834C1071.13 465.089 1071.47 464.18 1071.56 463.221C1071.58 462.886 1071.56 462.548 1071.5 462.218C1063.04 414.319 1039.74 379.447 999.235 360.512C986.762 354.705 973.586 352.558 960.089 355.988V396.497C982.78 388.553 1002.75 396.075 1021.27 410.618ZM1044.88 6.50883e-05H1019.69C1017.22 63.0239 999.957 101.446 966.031 119.118C964.125 120.12 962.076 120.782 960.089 121.595V169.976C1014.36 153.327 1059.4 65.802 1044.88 6.50883e-05ZM991.778 444.687C1009.14 446.624 1025.52 454.666 1038.59 467.674C1038.92 467.98 1039.28 468.239 1039.66 468.446C1042.55 470.001 1046.03 467.443 1045.59 463.833C1045.54 463.457 1045.45 463.089 1045.31 462.74C1043.51 458.299 1041.17 454.164 1038.35 450.454C1026.77 435.41 1011.37 426.384 993.809 420.807C982.798 417.337 971.537 415.672 960.089 418.27V445.7C970.664 445.299 981.373 443.524 991.778 444.687ZM984.045 534.619C985.981 539.644 988.612 544.292 991.841 548.39C999.68 558.639 1012.63 557.657 1018.96 546.384C1021.35 542.284 1022.96 537.675 1023.7 532.845C1024.44 528.014 1024.28 523.064 1023.25 518.302C1017.71 491.223 989.587 470.934 960.089 466.962V508.593C972.089 513.959 979.733 522.755 984.045 534.619ZM1025.45 176.776V177.307C1025.58 188.279 1027.72 200.635 1032.01 210.404C1035.57 217.785 1039.76 216.421 1039.46 207.154C1034.11 141.242 1064.64 129.929 1061.65 95.4284C1061.46 85.9909 1052.74 67.8781 1049.26 86.4021C1047.74 104.585 1037.27 119.84 1032.17 136.799C1028.09 149.647 1025.82 163.136 1025.45 176.776ZM1360.7 100.162H1360.57C1359.98 100.072 1359.49 100.804 1359.12 102.168C1357.86 108.396 1358.34 115.206 1357.66 121.785C1356.49 136.978 1352.07 151.626 1344.79 164.48C1331.7 186.885 1315.79 207.255 1299.52 226.661C1294.17 233.12 1288.93 239.699 1285.13 247.472C1271.04 277.058 1288.34 296.615 1313.55 277.359C1356.31 239.699 1375.02 171.761 1365.04 112.027C1364.36 108.436 1362.88 101.416 1360.7 100.162ZM1049.1 566.322C1016.85 598.887 993.747 641.952 989.827 691.066C989.542 704.886 989.302 721.033 996.42 732.998C998.391 735.844 1000.91 738.154 1003.78 739.758C1006.65 741.362 1009.8 742.219 1013.01 742.265C1025.48 742.626 1033.5 728.956 1037.5 717.352C1046.12 682.812 1037.68 646.074 1045.74 611.373C1050.19 591.054 1058.6 572.259 1069.63 555.39C1071.79 552.13 1076.42 545.25 1075.34 542.934L1075.25 542.753C1074.49 541.078 1070.8 543.626 1069.32 545.1C1062.51 551.98 1056.03 559.472 1049.1 566.322ZM1050.68 201.016C1050.98 203.443 1051.41 205.911 1051.92 208.358C1059.87 246.77 1088.79 267.129 1121.41 268.062H1121.88C1135.26 268.127 1148.24 262.977 1158.62 253.489C1163.25 249.568 1171.19 238.225 1160.75 236.771C1130.45 236.55 1102.29 214.917 1086.57 186.384C1081.39 178.23 1077.81 162.394 1067.17 162.314C1052.65 164.69 1048.89 187.096 1050.68 201.016ZM1000.68 827.313C1024.38 811.527 1052.82 821.145 1078.25 813.122C1089.33 810.203 1103.44 802.089 1104.58 787.728C1105.87 773.235 1091.27 763.497 1079.75 763.567H1079.3C1048.75 766.907 1020.09 790.786 998.531 814.466C994.157 819.621 988.803 824.495 985.533 830.512C981.373 841.454 997.524 828.908 1000.68 827.313ZM1108.94 871.382C1104.83 874.461 1096.96 882.574 1106.01 884.58C1149.49 884.58 1187.45 846.058 1186.3 795.911V795.4C1186.08 781.469 1182.87 767.569 1176.51 753.107C1170.61 740.069 1164.03 744.14 1164.7 757.6C1165.56 803.112 1141.01 845.165 1108.94 871.382ZM1068.85 1008.11C1072.56 1024.09 1088.64 1034.89 1102.7 1035.46H1103.18C1124.56 1035.77 1141.83 1021.6 1150.63 1000.84C1151.79 997.75 1154.62 991.813 1151.93 989.386C1149.84 988.012 1144.17 993.237 1141.39 995.494C1129.24 1005.61 1118.73 1009.7 1104.32 1004.59C1096.06 1001.97 1088.59 995.995 1080.27 993.989C1072.89 992.164 1067.11 999.866 1068.83 1008.11H1068.85ZM1133.99 787.467C1136.25 789.533 1140.03 793.143 1142.81 791.137C1144.07 790.024 1143.82 787.256 1143 784.257C1139.59 773.697 1137.78 762.374 1140.75 751.472C1144.1 737.842 1153.83 727.783 1158.78 715.086C1162.78 705.758 1161.88 693.372 1155.89 685.349C1149.84 678.108 1141.64 684.587 1135.99 690.193C1123.32 702.84 1116.49 720.853 1115.92 739.848V740.379C1116.1 758.532 1122.09 775.502 1133.97 787.467H1133.99ZM1129.49 645.242C1129.31 656.142 1126.79 666.831 1122.13 676.393C1121.06 678.79 1119.32 683.504 1121.57 684.817C1130.12 686.733 1141.29 670.305 1144.35 662.041C1156.01 630.258 1153.01 594.604 1140.91 563.614C1132.37 540.898 1120.61 518.924 1120.17 493.499V492.988C1120.04 481.956 1124.41 469.489 1131.81 460.122C1135.94 454.405 1142.23 449.411 1142.71 441.508C1141.62 426.965 1122.87 437.717 1116.53 441.508C1110.45 445.307 1105.3 450.745 1101.55 457.334C1090.67 479.067 1091.86 507.089 1097.09 530.628C1105.37 562.812 1119.36 592.809 1127.21 625.003C1128.79 631.601 1129.55 638.411 1129.47 645.242H1129.49ZM1876.54 454.175C1876.51 454.436 1876.52 454.703 1876.58 454.958C1876.65 455.212 1876.76 455.449 1876.91 455.653C1877.06 455.856 1877.24 456.022 1877.45 456.139C1877.66 456.256 1877.89 456.321 1878.13 456.331C1878.29 456.337 1878.44 456.3 1878.58 456.221C1890.42 448.96 1906.2 447.194 1919.29 445.68C1919.56 438.319 1919.42 425.622 1919.42 418.25C1899.89 419.985 1878.52 438.75 1876.54 454.175ZM1854.91 399.696C1841.68 416.625 1831.64 435.51 1828 457.986C1827.89 459.028 1828.03 460.086 1828.41 461.045C1828.65 461.744 1829.02 462.376 1829.5 462.897C1829.97 463.418 1830.55 463.815 1831.18 464.062C1831.8 464.308 1832.47 464.397 1833.13 464.323C1833.8 464.249 1834.44 464.013 1835.01 463.632C1835.68 463.188 1836.28 462.626 1836.79 461.967C1840.79 456.692 1843.92 450.574 1848.05 445.429C1867.35 421.309 1890.46 404.179 1919.11 396.938V355.958C1889.26 364.232 1870.3 379.998 1854.91 399.696ZM1875.46 500.53C1888.71 495.616 1900.93 499.858 1913.03 505.545C1914.9 506.417 1916.86 507.661 1919.11 508.483V466.902C1903.89 466.461 1891.74 472.749 1880.97 482.949C1877.52 486.415 1874.38 490.266 1871.62 494.442C1869.39 497.581 1870.22 503.348 1875.46 500.53ZM1750.51 165.322H1750.07C1702.03 164.45 1663.17 222.369 1663.76 294.288C1663.85 299.714 1664.51 311.027 1668.22 312.602C1673.92 311.599 1673.56 287.89 1675.66 281.07C1684.24 233.541 1714.68 209.531 1754.53 200.906C1778.2 192.943 1775.91 165.242 1750.51 165.322ZM1274.22 339.169C1272.74 342.68 1268.87 351.425 1273.02 352.669C1277.29 352.438 1281.71 345.077 1285.27 341.105C1296.36 327.699 1309.86 317.125 1324.88 310.095C1344 301.028 1365.06 298.458 1385.46 302.703C1399.01 305.03 1412.36 310.947 1425.95 310.977C1450.7 311.98 1470.95 292.443 1483.28 269.807C1486.75 263.94 1488.83 255.355 1480.9 258.253C1477.05 259.868 1473.05 263.047 1469.22 265.163C1460.99 270.018 1451.4 270.329 1441.86 270.178C1424.87 269.817 1407.23 265.284 1390.68 263.779H1390.22C1337.59 262.446 1294.34 289.184 1274.22 339.169ZM1889.46 248.655C1889.92 240.391 1874.24 250.19 1870.29 250.601C1861.11 253.379 1851.52 252.948 1842.07 252.607C1822.4 251.173 1803.26 255.164 1786.83 267.561C1758.58 289.053 1791.34 295.753 1809.5 296.966H1809.99C1836.7 298.23 1879.67 277.81 1889.46 248.655ZM1919.41 232.679C1900.8 250.731 1887.14 271.382 1876.56 294.459C1872.38 303.724 1869.53 313.676 1868.11 323.945C1867.22 330.504 1868.91 338.297 1871.45 344.495C1876.03 355.677 1888.16 356.71 1894.61 346.731C1898.49 340.508 1901.72 333.805 1904.24 326.753C1908.08 316.563 1911.31 296.044 1919.59 276.978C1919.28 264.05 1919.41 246.72 1919.41 232.679ZM1871.17 851.744C1871.51 842.237 1870.79 832.689 1870.17 823.141C1870.16 822.935 1870.12 822.732 1870.06 822.539C1869.17 819.921 1865.82 820.042 1864.59 822.479C1864.43 822.8 1864.28 823.131 1864.14 823.482C1863.77 824.364 1864.14 825.628 1864.14 826.711C1864.14 844.022 1862.85 861.312 1857.42 877.489C1851.09 896.374 1845.84 916.222 1835.98 933.092C1810.55 976.558 1808.19 1058.09 1818.38 1079.91H1847.41C1843.05 1069.88 1839.39 1061.72 1838.08 1052.94C1833.14 1018.65 1836.51 985.354 1847.64 952.899C1858.86 920.204 1869.91 887.358 1871.17 851.744ZM1791.53 1018.9C1789.61 1014.44 1786.57 1010.7 1782.79 1008.14C1779.01 1005.58 1774.66 1004.31 1770.25 1004.48C1763.41 1004.55 1760.45 1009.62 1762.86 1016.74C1763.87 1019.56 1765.18 1022.24 1766.77 1024.7C1776.84 1040.54 1789.2 1074.84 1789.33 1079.86H1813.73C1811.63 1071.41 1810.74 1067.82 1808.89 1062.7C1803.5 1047.94 1798.03 1033.1 1791.53 1018.9ZM1745.39 1058.17C1722.53 1044.44 1697.95 1040.37 1672.44 1042.82C1654.15 1044.58 1636.71 1049.91 1621.16 1061.36L1621.08 1061.42C1617.68 1064.02 1619.8 1070.31 1623.87 1069.72H1623.93C1644.55 1066.3 1683.5 1079.15 1685.09 1079.91C1711.36 1079.98 1740.33 1079.91 1768.24 1079.91C1762.17 1070.82 1754.36 1063.38 1745.39 1058.17ZM1887.76 1042.78C1882.65 1030.98 1880.69 1018.51 1883.14 1005.41C1884.53 997.921 1882.24 992.374 1876.94 989.626C1872.04 987.159 1866.25 988.784 1862.98 995.132C1859.96 1001.04 1852.58 1024.07 1864.44 1067.61C1865.58 1071.79 1870.11 1079.91 1870.11 1079.91H1919.42C1919.41 1077.25 1919.21 1068.95 1919.21 1063.1C1904.55 1063.76 1893.97 1057.14 1887.76 1042.78ZM1919.36 674.046C1919.36 671.268 1919.28 666.173 1919.28 662.893C1909.78 646.847 1894.18 614.312 1872.7 596.339C1865.83 590.624 1857.73 587.057 1849.24 585.999C1837.79 584.395 1825.77 590.522 1821.19 600.211C1817.56 607.893 1819.33 617.06 1825.03 621.001C1867.13 650.086 1896.47 690.554 1910.75 744.02C1919.04 775.061 1920.89 806.613 1911.09 837.763C1907.58 848.956 1902.18 859.377 1897.92 870.308C1897.63 871.281 1897.6 872.327 1897.84 873.317C1897.91 873.788 1898.07 874.235 1898.31 874.628C1898.55 875.021 1898.87 875.35 1899.23 875.594C1899.6 875.837 1900 875.988 1900.43 876.036C1900.85 876.085 1901.27 876.03 1901.67 875.875C1902.43 875.637 1903.12 875.181 1903.68 874.551C1905.68 871.983 1915.36 861.834 1919.28 852.486C1920.82 826.009 1919.41 779.052 1919.4 752.465C1919.4 726.328 1919.43 700.182 1919.36 674.046ZM1093.89 1041.62C1093.34 1041.41 1092.75 1041.34 1092.16 1041.42C1091.58 1041.5 1091.02 1041.72 1090.53 1042.07C1090.03 1042.43 1089.61 1042.9 1089.29 1043.45C1088.98 1044.01 1088.77 1044.63 1088.7 1045.29C1088.58 1045.99 1088.64 1046.72 1088.86 1047.39C1093.55 1059.78 1107.31 1079.89 1108.75 1079.9C1132.13 1079.98 1150.41 1079.96 1173.79 1079.96C1132.25 1053.65 1121.23 1065.46 1094.75 1042.13C1094.49 1041.91 1094.2 1041.74 1093.89 1041.62ZM1716.88 1025.15C1721.25 1027.64 1725.55 1030.42 1729.91 1032.88C1732.79 1034.49 1736.24 1035.83 1738.15 1034.77C1741.44 1032.82 1738.45 1027.26 1736.6 1024.52C1716.55 995.574 1690.88 978.584 1662.49 977.11H1662.02C1581.12 974.673 1568.65 1083.03 1590.8 1056.85C1619.77 1008.54 1671.74 998.412 1716.88 1025.15ZM1318.65 1017.37C1313.18 1015.53 1307.26 1015.18 1301.51 1014.73C1300.06 1014.62 1297.86 1016.44 1297.17 1018.02C1296.71 1019.02 1298.06 1021.55 1299.1 1022.86C1300.37 1024.44 1302.21 1025.41 1303.76 1026.7C1320.02 1040.32 1321.94 1048.06 1339.94 1079.93H1386.16C1385.34 1078.14 1346.85 1026.83 1318.65 1017.37ZM1233.02 1060.58C1232.73 1060.66 1232.45 1060.78 1232.19 1060.95C1231.58 1061.38 1231.09 1061.98 1230.77 1062.7C1230.46 1063.41 1230.32 1064.22 1230.38 1065.01C1230.44 1065.81 1230.7 1066.58 1231.12 1067.22C1231.54 1067.87 1232.11 1068.37 1232.77 1068.67C1233.06 1068.8 1233.36 1068.87 1233.66 1068.88C1244.03 1068.97 1262.52 1077.87 1267.87 1079.84C1281.82 1080.05 1301.55 1079.91 1315.51 1079.94C1294.05 1060.57 1251.61 1056.35 1233 1060.58H1233.02ZM1225.9 1020.93C1216.08 1014.06 1204.77 1010.38 1193.22 1010.32H1192.72C1174.82 1010.1 1156.5 1019.46 1146.02 1036.01C1142.87 1040.55 1140.09 1048.84 1142.2 1051.71C1149.47 1061.74 1174.95 1024.39 1217.67 1033.13C1231.21 1036.11 1240.54 1032.78 1225.85 1020.93H1225.9ZM1295.72 989.426C1295.58 989.444 1295.44 989.47 1295.31 989.506C1292.76 990.198 1292.02 994.461 1294.33 995.875C1295.76 996.571 1297.25 997.092 1298.78 997.429C1344.37 1005.39 1390.36 1055.46 1404.64 1079.91H1454.26C1453 1077.01 1451.78 1075.1 1450.86 1073.31C1415.75 1005.93 1349.83 984.311 1295.72 989.426ZM1504.56 920.224C1507.23 917.215 1510.68 914.959 1512.01 911.198C1513.09 907.707 1510.22 905.962 1506.98 906.915C1495.83 910.094 1486.54 918.409 1476.46 924.416C1462.35 932.977 1449.71 944.319 1439.16 957.904C1429.25 969.638 1422.71 984.461 1422.97 1001.15V1001.65C1421.82 1038.12 1467.52 1051.86 1470.62 1009.54C1468.55 975.505 1482.95 943.221 1504.56 920.194V920.224ZM1509.19 967.823C1509.16 967.559 1509.11 967.298 1509.05 967.041C1508.84 966.066 1508.39 965.182 1507.74 964.498C1507.09 963.814 1506.27 963.361 1505.4 963.196C1504.52 963.031 1503.62 963.162 1502.81 963.571C1502 963.98 1501.31 964.65 1500.83 965.496C1500.57 965.949 1500.36 966.442 1500.22 966.96C1497.29 978.183 1494.05 989.476 1492.73 1001C1489.7 1027.36 1484.86 1044.34 1506.15 1075.48C1507.09 1077.14 1508.22 1078.64 1509.52 1079.95H1573.32C1564.78 1073.38 1557.02 1068.01 1549.74 1061.03C1524.28 1036.66 1513.75 1003.85 1509.19 967.823Z" fill="url(#paint1_linear_127_6)"/>
<defs>
<linearGradient id="paint0_linear_127_6" x1="0.596342" y1="1080.02" x2="1073.04" y2="127.369" gradientUnits="userSpaceOnUse">
<stop stop-color="#98989A" stop-opacity="0.19"/>
<stop offset="0.0001" stop-color="#98989A" stop-opacity="0.2"/>
<stop offset="0.168269" stop-color="#98989A" stop-opacity="0.05"/>
<stop offset="0.841346" stop-color="#98989A" stop-opacity="0"/>
</linearGradient>
<linearGradient id="paint1_linear_127_6" x1="1919.4" y1="-0.0199539" x2="846.965" y2="952.631" gradientUnits="userSpaceOnUse">
<stop stop-color="#98989A" stop-opacity="0.19"/>
<stop offset="0.0001" stop-color="#98989A" stop-opacity="0.2"/>
<stop offset="0.168269" stop-color="#98989A" stop-opacity="0.05"/>
<stop offset="0.841346" stop-color="#98989A" stop-opacity="0"/>
</linearGradient>
</defs>
</svg>
